<svg width="74" height="86" viewBox="0 0 74 86" fill="none" xmlns="http://www.w3.org/2000/svg">
<path d="M17.9942 64.8359H17.9219L17.8499 64.7522V64.6682V64.5842V64.5002V64.4162V64.3323V64.2483V64.1643V64.0803V63.9963V63.9123V63.8283V63.7444V63.6604V63.5764V63.4924V63.4084V63.3244V63.2405V63.1565V63.0725V62.9885V62.9045V62.8205V62.7365V62.6526V62.5686V62.4846V62.4006V62.3166V62.2326V62.1487V62.0647V61.9807V61.8967V61.8127V61.7287V61.6448V61.5608V61.4768V61.3928V61.3088V61.2248V61.1409V61.0569V60.9729V60.8889V60.8049V60.7209V60.6369V60.553V60.469V60.385V60.301V60.217V60.133V60.0491V59.9651V59.8811V59.7971V59.7131V59.6291V59.5451V59.4612V59.3772V59.2932V59.2092V59.1252V59.0412V58.9573V58.8733V58.7893V58.7053V58.6213V58.5373V58.4534V58.3694V58.2854V58.2014V58.1174V58.0334V57.9494V57.8655V57.7815V57.6975V57.6135V57.5295V57.4455V57.3616V57.2776V57.1936V57.1096V57.0256V56.9416V56.8576V56.7737V56.6897V56.6057V56.5217V56.4377V56.3537V56.2698V56.1858V56.1018V56.0178V55.9338V55.8498V55.7659V55.6819V55.5979V55.5139V55.4299V55.3459V55.2619V55.178V55.094V55.01V54.926V54.842V54.758V54.6741V54.5901V54.5061V54.4221V54.3381V54.2541V54.1701V54.0862V54.0022V53.9182V53.8342V53.7502V53.6662V53.5823V53.4983V53.4143V53.3303V53.2463V53.1623V53.0784V52.9944V52.9104V52.8264V52.7424V52.6584V52.5744V52.4905V52.4065V52.3225V52.2385V52.1545V52.0705V51.9866V51.9026V51.8186V51.7346V51.6506V51.5666V51.4826V51.3987V51.3147V51.2307V51.1467V51.0627V50.9787V50.8948V50.8108V50.7268V50.6428V50.5588V50.4748V50.3909V50.3069V50.2229V50.1389V50.0549V49.9709V49.8869V49.803V49.719V49.635V49.551V49.467V49.383V49.2991V49.2151V49.1311V49.0471V48.9631V48.8791V48.7951V48.7112V48.6272V48.5432V48.4592V48.3752V48.2912V48.2073V48.1233V48.0393V47.9553V47.8713V47.7873V47.7034V47.6194V47.5354V47.4514V47.3674V47.2834V47.1994V47.1155V47.0315V46.9475V46.8635V46.7795V46.6955V46.6116V46.5276V46.4436V46.3596V46.2756V46.1916V46.1076V46.0237V45.9397V45.8557V45.7717V45.6877V45.6037V45.5198V45.4358V45.3518V45.2678V45.1838V45.0998V45.0159V44.9319V44.8479V44.7639V44.6799V44.5959V44.5119V44.428V44.344V44.26V44.176V44.092V44.008V43.9241V43.8401V43.7561V43.6721V43.5881V43.5041V43.4201V43.3362V43.2522V43.1682V43.0842V43.0002V42.9162V42.8323V42.7483V42.6643V42.5803V42.4963V42.4123V42.3284V42.2444V42.1604V42.0764V41.9924V41.9084V41.8244V41.7405V41.6565V41.5725V41.4885V41.4045V41.3205V41.2366V41.1526V41.0686V40.9846V40.9006V40.8166V40.7326V40.6487V40.5647V40.4807V40.3967V40.3127V40.2287V40.1448V40.0608V39.9768V39.8928V39.8088V39.7248V39.6409V39.5569V39.4729V39.3889V39.3049V39.2209V39.1369V39.053V38.969V38.885V38.801V38.717V38.633V38.5491V38.4651V38.3811V38.2971V38.2131V38.1291V38.0451V37.9612V37.8772V37.7932V37.7092V37.6252V37.5412V37.4573V37.3733V37.2893V37.2053V37.1213V37.0373V36.9534V36.8694V36.7854V36.7014V36.6174V36.5334V36.4494V36.3655V36.2815V36.1975V36.1135V36.0295V35.9455V35.8616V35.7776V35.6936V35.6096V35.5256V35.4416V35.3576V35.2737V35.1897V35.1057V35.0217V34.9377V34.8537V34.7698V34.6858V34.6018V34.5178V34.4338V34.3498V34.2658V34.1819V34.0979V34.0139V33.9299V33.8459V33.7619V33.678V33.594V33.51V33.426V33.342V33.258V33.1741V33.0901V33.0061V32.9221V32.8381V32.7541V32.6701V32.5862V32.5022V32.4182V32.3342V32.2502V32.1662V32.0823V31.9983V31.9143V31.8303V31.7463V31.6623V31.5783V31.4944V31.4104V31.3264V31.2424V31.1584V31.0744V30.9905V30.9065V30.8225V30.7385V30.6545V30.5705V30.4866V30.4026V30.3186V30.2346V30.1506V30.0666V29.9826V29.8987V29.8147V29.7307V29.6467V29.5627V29.4787V29.3948V29.3108V29.2268V29.1428V29.0588V28.9748V28.8908V28.8069V28.7229V28.6389V28.5549V28.4709V28.3869V28.303V28.219V28.135V28.051V27.967V27.883V27.7991V27.7151V27.6311V27.5471V27.4631V27.3791V27.2951V27.2112V27.1272V27.0432V26.9592V26.8752V26.7912V26.7073V26.6233V26.5393V26.4553V26.3713V26.2873V26.2033V26.1194V26.0354V25.9514V25.8674V25.7834V25.6994V25.6155V25.5315V25.4475V25.3635V25.2795V25.1955V25.1116V25.0276V24.9436V24.8596V24.7756V24.6916V24.6076V24.5237V24.4397V24.3557V24.2717V24.1877V24.1037V24.0198V23.9358V23.8518V23.7678V23.6838V23.5998V23.5158V23.4319V23.3479V23.2639V23.1799V23.0959V23.0119V22.928V22.844V22.76V22.676V22.592V22.508V22.4241V22.3401V22.2561V22.1721V22.0881V22.0041V21.9201V21.8362V21.7522V21.6682V21.5842V21.5002V21.4162V21.3323V21.2483V21.1643V21.0803V20.9963V20.9123V20.8283V20.7444V20.6604V20.5764V20.4924V20.4084V20.3244V20.2405V20.1565V20.0725V19.9885V19.9045V19.8205V19.7366V19.6526V19.5686V19.4846V19.4006V19.3166V19.2326L17.9219 19.1489H17.9942H18.0664H18.1387H18.211H18.2832H18.3555H18.4278H18.5H18.5723H18.6445H18.7168H18.7891H18.8613H18.9336H19.0059H19.0781H19.1504H19.2227H19.2949H19.3672H19.4395H19.5117H19.584H19.6563H19.7285H19.8008H19.8731H19.9453H20.0176H20.0899H20.1621H20.2344H20.3067H20.3789H20.4512H20.5235H20.5957H20.668H20.7403H20.8125H20.8848H20.957H21.0293H21.1016H21.1738H21.2461H21.3184H21.3906H21.4629H21.5352H21.6074H21.6797H21.752H21.8242H21.8965H21.9688H22.041H22.1133H22.1856H22.2578H22.3301H22.4024H22.4746H22.5469H22.6192H22.6914H22.7637H22.836H22.9082H22.9805H23.0528H23.125H23.1973H23.2695H23.3418H23.4141H23.4863H23.5586H23.6309H23.7031H23.7754H23.8477H23.9199H23.9922H24.0645H24.1367H24.209H24.2813H24.3535H24.4258H24.4981H24.5703H24.6426H24.7149H24.7871H24.8594H24.9317H25.0039H25.0762H25.1485H25.2207H25.293H25.3653H25.4375H25.5098H25.582H25.6543H25.7266H25.7988H25.8711H25.9434H26.0156H26.0879H26.1602H26.2324H26.3047H26.377H26.4492H26.5215H26.5938H26.666H26.7383H26.8106H26.8828H26.9551H27.0274H27.0996H27.1719H27.2442H27.3164H27.3887H27.461H27.5332H27.6055H27.6778H27.75H27.8223H27.8945H27.9668H28.0391H28.1113H28.1836H28.2559H28.3281H28.4004H28.4727H28.5449H28.6172H28.6895H28.7617H28.834H28.9063H28.9785H29.0508H29.1231H29.1953H29.2676H29.3399H29.4121H29.4844H29.5567H29.6289H29.7012H29.7735H29.8457H29.918H29.9903H30.0625H30.1348H30.207H30.2793H30.3516H30.4238H30.4961H30.5684H30.6406H30.7129H30.7852H30.8574H30.9297H31.002H31.0742H31.1465H31.2188H31.291H31.3633H31.4356H31.5078H31.5801H31.6524H31.7246H31.7969H31.8692H31.9414H32.0137H32.086H32.1582H32.2305H32.3028H32.375H32.4473H32.5195H32.5918H32.6641H32.7363H32.8086H32.8809H32.9531H33.0254H33.0977H33.1699H33.2422H33.3145H33.3867H33.459H33.5313H33.6035H33.6758H33.7481H33.8203H33.8926H33.9649H34.0371H34.1094H34.1817H34.2539H34.3262H34.3985H34.4707H34.543H34.6153H34.6875H34.7598H34.832H34.9043H34.9766H35.0488H35.1211H35.1934H35.2656H35.3379H35.4102H35.4824H35.5547H35.627H35.6992H35.7715H35.8438H35.916H35.9883H36.0606H36.1328H36.2051H36.2774H36.3496H36.4219H36.4942H36.5664H36.6387H36.711H36.7832H36.8555H36.9278H37H37.0723H37.1445H37.2168H37.2891H37.3613H37.4336H37.5059H37.5781H37.6504H37.7227H37.7949H37.8672H37.9395H38.0117H38.084H38.1563H38.2285H38.3008H38.3731H38.4453H38.5176H38.5899H38.6621H38.7344H38.8067H38.8789H38.9512H39.0235H39.0957H39.168H39.2403H39.3125H39.3848H39.457H39.5293H39.6016H39.6738H39.7461H39.8184H39.8906H39.9629H40.0352H40.1074H40.1797H40.252H40.3242H40.3965H40.4688H40.541H40.6133H40.6856H40.7578H40.8301H40.9024H40.9746H41.0469H41.1192H41.1914H41.2637H41.336H41.4082H41.4805H41.5528H41.625H41.6973H41.7695H41.8418H41.9141H41.9863H42.0586H42.1309H42.2031H42.2754H42.3477H42.4199H42.4922H42.5645H42.6367H42.709H42.7813H42.8535H42.9258H42.9981H43.0703H43.1426H43.2149H43.2871H43.3594H43.4317H43.5039H43.5762H43.6485H43.7207H43.793H43.8653H43.9375H44.0098H44.082H44.1543H44.2266H44.2988H44.3711H44.4434H44.5156L44.5877 19.2326L44.5879 19.2329L44.6599 19.3166L44.6602 19.3169L44.7322 19.4006L44.7324 19.4009L44.8045 19.4846L44.8047 19.4849L44.8767 19.5686L44.877 19.5688L44.949 19.6526L44.9492 19.6528L45.0213 19.7366L45.0215 19.7368L45.0935 19.8205L45.0938 19.8208L45.1658 19.9045L45.166 19.9048L45.2381 19.9885L45.2383 19.9888L45.3103 20.0725L45.3106 20.0728L45.3826 20.1565L45.3828 20.1567L45.4549 20.2405L45.4551 20.2407L45.5271 20.3244L45.5274 20.3247L45.5994 20.4084L45.5996 20.4087L45.6717 20.4924L45.6719 20.4927L45.7439 20.5764L45.7442 20.5767L45.8162 20.6604L45.8164 20.6606L45.8885 20.7444L45.8887 20.7446L45.9607 20.8283L45.961 20.8286L46.033 20.9123L46.0332 20.9126L46.1053 20.9963L46.1055 20.9966L46.1775 21.0803L46.1778 21.0806H46.25L46.3221 21.1643L46.3223 21.1646L46.3943 21.2483V21.3323L46.3945 21.3325L46.4666 21.4162L46.4668 21.4165L46.5389 21.5002L46.5391 21.5005L46.6111 21.5842L46.6113 21.5845L46.6834 21.6682L46.6836 21.6685L46.7557 21.7522L46.7559 21.7524L46.8279 21.8362L46.8281 21.8364L46.9002 21.9201L46.9004 21.9204L46.9724 22.0041L46.9727 22.0044L47.0447 22.0881L47.0449 22.0884L47.117 22.1721L47.1172 22.1724L47.1892 22.2561L47.1895 22.2563L47.2615 22.3401L47.2617 22.3403L47.3338 22.4241L47.334 22.4243L47.406 22.508L47.4063 22.5083L47.4783 22.592L47.4785 22.5923L47.5506 22.676L47.5508 22.6763L47.6228 22.76L47.6231 22.7603L47.6951 22.844L47.6953 22.8442L47.7674 22.928L47.7676 22.9282L47.8396 23.0119L47.8399 23.0122L47.9119 23.0959L47.9121 23.0962L47.9842 23.1799L47.9844 23.1802L48.0564 23.2639L48.0567 23.2642L48.1287 23.3479L48.1289 23.3481L48.201 23.4319L48.2012 23.4321L48.2732 23.5158L48.2735 23.5161L48.3455 23.5998L48.3457 23.6001L48.4178 23.6838L48.418 23.6841L48.49 23.7678L48.4903 23.7681L48.5623 23.8518L48.5625 23.8521L48.6346 23.9358L48.6348 23.936L48.7068 24.0198L48.707 24.02L48.7791 24.1037L48.7793 24.104L48.8514 24.1877L48.8516 24.188L48.9236 24.2717L48.9238 24.272L48.9959 24.3557L48.9961 24.356L49.0682 24.4397L49.0684 24.4399L49.1404 24.5237L49.1406 24.5239H49.2129L49.2849 24.6076L49.2852 24.6079L49.3572 24.6916L49.3574 24.6919L49.4295 24.7756V24.8596L49.4297 24.8599L49.5017 24.9436L49.502 24.9438L49.574 25.0276L49.5742 25.0278L49.6463 25.1116L49.6465 25.1118L49.7185 25.1955L49.7188 25.1958H49.791L49.8631 25.2795V25.3635L49.8633 25.3638L49.9353 25.4475L49.9356 25.4478L50.0076 25.5315L50.0078 25.5317L50.0799 25.6155L50.0801 25.6157L50.1521 25.6994L50.1524 25.6997L50.2244 25.7834L50.2246 25.7837L50.2967 25.8674L50.2969 25.8677L50.3689 25.9514L50.3692 25.9517L50.4412 26.0354L50.4414 26.0356L50.5135 26.1194L50.5137 26.1196L50.5857 26.2033L50.586 26.2036L50.658 26.2873L50.6582 26.2876L50.7303 26.3713L50.7305 26.3716L50.8025 26.4553L50.8027 26.4556L50.8748 26.5393L50.875 26.5396L50.9471 26.6233L50.9473 26.6235L51.0193 26.7073L51.0195 26.7075L51.0916 26.7912L51.0918 26.7915L51.1639 26.8752L51.1641 26.8755L51.2361 26.9592L51.2363 26.9595L51.3084 27.0432L51.3086 27.0435L51.3806 27.1272L51.3809 27.1274L51.4529 27.2112L51.4531 27.2114L51.5252 27.2951L51.5254 27.2954L51.5974 27.3791L51.5977 27.3794L51.6697 27.4631L51.6699 27.4634L51.742 27.5471L51.7422 27.5474L51.8142 27.6311L51.8145 27.6313L51.8865 27.7151L51.8867 27.7153L51.9588 27.7991L51.959 27.7993L52.031 27.883L52.0313 27.8833L52.1033 27.967L52.1035 27.9673L52.1756 28.051L52.1758 28.0513L52.2478 28.135L52.2481 28.1353L52.3201 28.219L52.3203 28.2192L52.3924 28.303L52.3926 28.3032L52.4646 28.3869L52.4649 28.3872L52.5369 28.4709L52.5371 28.4712H52.6094L52.6814 28.5549V28.6389L52.6817 28.6392H52.7539L52.826 28.7229V28.8069L52.8262 28.8071L52.8982 28.8908L52.8985 28.8911L52.9705 28.9748L52.9707 28.9751L53.0428 29.0588L53.043 29.0591L53.115 29.1428L53.1152 29.1431L53.1873 29.2268L53.1875 29.2271L53.2596 29.3108L53.2598 29.311L53.3318 29.3948L53.332 29.395L53.4041 29.4787L53.4043 29.479L53.4764 29.5627L53.4766 29.563L53.5486 29.6467L53.5488 29.647L53.6209 29.7307L53.6211 29.731L53.6931 29.8147L53.6934 29.8149L53.7654 29.8987L53.7656 29.8989L53.8377 29.9826L53.8379 29.9829L53.9099 30.0666L53.9102 30.0669L53.9822 30.1506V30.2346V30.3186V30.4026V30.4866V30.5705V30.6545V30.7385V30.8225V30.9065V30.9905V31.0744V31.1584V31.2424V31.3264V31.4104V31.4944V31.5783V31.6623V31.7463V31.8303V31.9143V31.9983V32.0823V32.1662V32.2502L53.9824 32.2505L54.0545 32.3342V32.4182V32.5022V32.5862V32.6701V32.7541V32.8381V32.9221V33.0061V33.0901V33.1741V33.258V33.342V33.426V33.51V33.594V33.678V33.7619V33.8459V33.9299V34.0139V34.0979V34.1819V34.2658V34.3498V34.4338V34.5178V34.6018V34.6858V34.7698V34.8537V34.9377V35.0217V35.1057V35.1897V35.2737V35.3576V35.4416V35.5256V35.6096V35.6936V35.7776V35.8616V35.9455V36.0295V36.1135V36.1975L53.9824 36.2812L53.9822 36.2815L53.9102 36.3652L53.9099 36.3655L53.8379 36.4492L53.8377 36.4494L53.7656 36.5332L53.7654 36.5334L53.6934 36.6171L53.6931 36.6174L53.6211 36.7011L53.6209 36.7014L53.5488 36.7851L53.5486 36.7854L53.4766 36.8691L53.4764 36.8694L53.4043 36.9531L53.4041 36.9534L53.332 37.0371L53.3318 37.0373L53.2598 37.1211L53.2596 37.1213L53.1875 37.205L53.1873 37.2053L53.1152 37.289L53.115 37.2893V37.3733L53.043 37.457L53.0428 37.4573L52.9707 37.541L52.9705 37.5412L52.8985 37.625L52.8982 37.6252L52.8262 37.7089L52.826 37.7092L52.7539 37.7929L52.7537 37.7932L52.6817 37.8769L52.6814 37.8772L52.6094 37.9609H52.5371L52.5369 37.9612V38.0451L52.4649 38.1289H52.3926L52.3924 38.1291L52.3203 38.2129L52.3201 38.2131L52.2481 38.2968L52.2478 38.2971V38.3811L52.1758 38.4648H52.1035L52.1033 38.4651L52.0313 38.5488L52.031 38.5491V38.633L51.959 38.7168L51.9588 38.717L51.8867 38.8007L51.8865 38.801L51.8145 38.8847H51.7422L51.742 38.885V38.969L51.6699 39.0527L51.6697 39.053L51.5977 39.1367H51.5254L51.5252 39.1369V39.2209L51.4531 39.3046L51.4529 39.3049L51.3809 39.3886L51.3806 39.3889L51.3086 39.4726L51.3084 39.4729L51.2363 39.5566L51.2361 39.5569L51.1641 39.6406L51.1639 39.6409L51.0918 39.7246L51.0916 39.7248L51.0195 39.8086L51.0193 39.8088L50.9473 39.8925L50.9471 39.8928L50.875 39.9765L50.8748 39.9768L50.8027 40.0605L50.8025 40.0608L50.7305 40.1445L50.7303 40.1448L50.6582 40.2285L50.658 40.2287L50.586 40.3125L50.5857 40.3127L50.5137 40.3964L50.5135 40.3967L50.4414 40.4804L50.4412 40.4807L50.3692 40.5644L50.3689 40.5647L50.2969 40.6484L50.2967 40.6487L50.2246 40.7324L50.2244 40.7326L50.1524 40.8164L50.1521 40.8166L50.0801 40.9004L50.0799 40.9006L50.0078 40.9843L50.0076 40.9846L49.9356 41.0683L49.9353 41.0686L49.8633 41.1523L49.8631 41.1526L49.791 41.2363L49.7908 41.2366L49.7188 41.3203L49.7185 41.3205L49.6465 41.4043L49.6463 41.4045L49.5742 41.4882L49.574 41.4885L49.502 41.5722L49.5017 41.5725L49.4297 41.6562L49.4295 41.6565L49.3574 41.7402L49.3572 41.7405L49.2852 41.8242L49.2849 41.8244L49.2129 41.9082L49.2127 41.9084L49.1406 41.9921L49.1404 41.9924L49.0684 42.0761L49.0682 42.0764L48.9961 42.1601L48.9959 42.1604L48.9238 42.2441L48.9236 42.2444L48.8516 42.3281L48.8514 42.3284L48.7793 42.4121L48.7791 42.4123L48.707 42.4961L48.7068 42.4963L48.6348 42.58L48.6346 42.5803L48.5625 42.664L48.5623 42.6643L48.4903 42.748L48.49 42.7483L48.418 42.832L48.4178 42.8323L48.3457 42.916L48.3455 42.9162L48.2735 43L48.2732 43.0002L48.2012 43.0839L48.201 43.0842L48.1289 43.1679L48.1287 43.1682L48.0567 43.2519L48.0564 43.2522L47.9844 43.3359L47.9842 43.3362L47.9121 43.4199L47.9119 43.4201L47.8399 43.5039L47.8396 43.5041L47.7676 43.5879L47.7674 43.5881L47.6953 43.6718L47.6951 43.6721L47.6231 43.7558L47.6228 43.7561L47.5508 43.8398L47.5506 43.8401L47.4785 43.9238H47.4063L47.406 43.9241L47.334 44.0078L47.3338 44.008V44.092L47.2617 44.1757H47.1895L47.1892 44.176V44.26L47.1172 44.3437H47.0449L47.0447 44.344L46.9727 44.4277L46.9724 44.428L46.9004 44.5117L46.9002 44.5119L46.8281 44.5957L46.8279 44.5959L46.7559 44.6797L46.7557 44.6799V44.7639L46.6836 44.8476L46.6834 44.8479L46.6113 44.9316H46.5391L46.5389 44.9319L46.4668 45.0156L46.4666 45.0159L46.3945 45.0996L46.3943 45.0998L46.3223 45.1836L46.3221 45.1838L46.25 45.2675L46.2498 45.2678L46.1778 45.3515L46.1775 45.3518V45.4358L46.1055 45.5195H46.0332L46.033 45.5198L45.961 45.6035L45.9607 45.6037L45.8887 45.6875L45.8885 45.6877L45.8887 45.688L45.9607 45.7717L45.961 45.772L46.033 45.8557L46.0332 45.856L46.1053 45.9397L46.1055 45.9399L46.1775 46.0237V46.1076L46.1778 46.1079L46.2498 46.1916L46.25 46.1919L46.3221 46.2756L46.3223 46.2759L46.3943 46.3596V46.4436L46.3945 46.4438L46.4666 46.5276L46.4668 46.5278L46.5389 46.6116L46.5391 46.6118L46.6111 46.6955L46.6113 46.6958L46.6834 46.7795V46.8635L46.6836 46.8638L46.7557 46.9475L46.7559 46.9478L46.8279 47.0315L46.8281 47.0317L46.9002 47.1155V47.1994L46.9004 47.1997L46.9724 47.2834L46.9727 47.2837L47.0447 47.3674L47.0449 47.3677L47.117 47.4514L47.1172 47.4517L47.1892 47.5354V47.6194L47.1895 47.6196L47.2615 47.7034L47.2617 47.7036L47.3338 47.7873L47.334 47.7876L47.406 47.8713V47.9553L47.4063 47.9556L47.4783 48.0393L47.4785 48.0395L47.5506 48.1233L47.5508 48.1235L47.6228 48.2073L47.6231 48.2075L47.6951 48.2912V48.3752L47.6953 48.3755L47.7674 48.4592L47.7676 48.4595L47.8396 48.5432L47.8399 48.5435L47.9119 48.6272L47.9121 48.6274L47.9842 48.7112V48.7951L47.9844 48.7954L48.0564 48.8791L48.0567 48.8794L48.1287 48.9631L48.1289 48.9634L48.201 49.0471L48.2012 49.0474L48.2732 49.1311V49.2151L48.2735 49.2153L48.3455 49.2991L48.3457 49.2993L48.4178 49.383L48.418 49.3833L48.49 49.467V49.551L48.4903 49.5513L48.5623 49.635L48.5625 49.6353L48.6346 49.719L48.6348 49.7192L48.7068 49.803L48.707 49.8032L48.7791 49.8869V49.9709L48.7793 49.9712L48.8514 50.0549L48.8516 50.0552L48.9236 50.1389L48.9238 50.1392L48.9959 50.2229L48.9961 50.2231L49.0682 50.3069V50.3909L49.0684 50.3911L49.1404 50.4748L49.1406 50.4751L49.2127 50.5588L49.2129 50.5591L49.2849 50.6428L49.2852 50.6431L49.3572 50.7268V50.8108L49.3574 50.811L49.4295 50.8948L49.4297 50.895L49.5017 50.9787L49.502 50.979L49.574 51.0627V51.1467L49.5742 51.147L49.6463 51.2307L49.6465 51.231L49.7185 51.3147L49.7188 51.3149L49.7908 51.3987L49.791 51.3989L49.8631 51.4826V51.5666L49.8633 51.5669L49.9353 51.6506L49.9356 51.6509L50.0076 51.7346L50.0078 51.7349L50.0799 51.8186L50.0801 51.8188L50.1521 51.9026V51.9866L50.1524 51.9868L50.2244 52.0705L50.2246 52.0708L50.2967 52.1545L50.2969 52.1548L50.3689 52.2385L50.3692 52.2388L50.4412 52.3225V52.4065L50.4414 52.4067L50.5135 52.4905L50.5137 52.4907L50.5857 52.5744L50.586 52.5747L50.658 52.6584V52.7424L50.6582 52.7427L50.7303 52.8264L50.7305 52.8267L50.8025 52.9104L50.8027 52.9106L50.8748 52.9944L50.875 52.9946L50.9471 53.0784V53.1623L50.9473 53.1626L51.0193 53.2463L51.0195 53.2466L51.0916 53.3303L51.0918 53.3306L51.1639 53.4143L51.1641 53.4145L51.2361 53.4983V53.5823L51.2363 53.5825L51.3084 53.6662L51.3086 53.6665L51.3806 53.7502L51.3809 53.7505L51.4529 53.8342V53.9182L51.4531 53.9185L51.5252 54.0022L51.5254 54.0024L51.5974 54.0862L51.5977 54.0864L51.6697 54.1701L51.6699 54.1704L51.742 54.2541V54.3381L51.7422 54.3384L51.8142 54.4221L51.8145 54.4224L51.8865 54.5061L51.8867 54.5063L51.9588 54.5901L51.959 54.5903L52.031 54.6741V54.758L52.0313 54.7583L52.1033 54.842L52.1035 54.8423L52.1756 54.926L52.1758 54.9263L52.2478 55.01L52.2481 55.0103L52.3201 55.094V55.178L52.3203 55.1782L52.3924 55.2619L52.3926 55.2622L52.4646 55.3459L52.4649 55.3462L52.5369 55.4299V55.5139L52.5371 55.5142L52.6092 55.5979L52.6094 55.5981L52.6814 55.6819L52.6817 55.6821L52.7537 55.7659L52.7539 55.7661L52.826 55.8498V55.9338L52.8262 55.9341L52.8982 56.0178L52.8985 56.0181L52.9705 56.1018L52.9707 56.102L53.0428 56.1858L53.043 56.186L53.115 56.2698V56.3537L53.1152 56.354L53.1873 56.4377L53.1875 56.438L53.2596 56.5217L53.2598 56.522L53.3318 56.6057L53.332 56.606L53.4041 56.6897V56.7737L53.4043 56.7739L53.4764 56.8576L53.4766 56.8579L53.5486 56.9416L53.5488 56.9419L53.6209 57.0256V57.1096L53.6211 57.1099L53.6931 57.1936L53.6934 57.1938L53.7654 57.2776L53.7656 57.2778L53.8377 57.3616L53.8379 57.3618L53.9099 57.4455V57.5295L53.9102 57.5298L53.9822 57.6135L53.9824 57.6138L54.0545 57.6975L54.0547 57.6978L54.1267 57.7815L54.127 57.7817L54.199 57.8655L54.1992 57.8657L54.2713 57.9494V58.0334L54.2715 58.0337L54.3435 58.1174L54.3438 58.1177L54.4158 58.2014L54.416 58.2017L54.4881 58.2854V58.3694L54.4883 58.3696L54.5603 58.4534L54.5606 58.4536L54.6326 58.5373L54.6328 58.5376L54.7049 58.6213L54.7051 58.6216L54.7771 58.7053V58.7893L54.7774 58.7895L54.8494 58.8733L54.8496 58.8735L54.9217 58.9573L54.9219 58.9575L54.9939 59.0412L54.9942 59.0415L55.0662 59.1252V59.2092L55.0664 59.2095L55.1385 59.2932L55.1387 59.2935L55.2107 59.3772L55.211 59.3774L55.283 59.4612V59.5451L55.2832 59.5454L55.3553 59.6291L55.3555 59.6294L55.4275 59.7131L55.4277 59.7134L55.4998 59.7971L55.5 59.7974L55.5721 59.8811V59.9651L55.5723 59.9653L55.6443 60.0491L55.6445 60.0493L55.7166 60.133L55.7168 60.1333L55.7889 60.217L55.7891 60.2173L55.8611 60.301V60.385L55.8613 60.3853L55.9334 60.469L55.9336 60.4692L56.0057 60.553L56.0059 60.5532L56.0779 60.6369V60.7209L56.0781 60.7212L56.1502 60.8049L56.1504 60.8052L56.2225 60.8889L56.2227 60.8892L56.2947 60.9729L56.2949 60.9731L56.367 61.0569V61.1409L56.3672 61.1411L56.4392 61.2248L56.4395 61.2251L56.5115 61.3088L56.5117 61.3091L56.5838 61.3928L56.584 61.3931L56.656 61.4768V61.5608L56.6563 61.561L56.7283 61.6448L56.7285 61.645L56.8006 61.7287L56.8008 61.729L56.8728 61.8127L56.8731 61.813L56.9451 61.8967V61.9807L56.9453 61.981L57.0174 62.0647L57.0176 62.0649L57.0896 62.1487L57.0899 62.1489L57.1619 62.2326V62.3166L57.1621 62.3169L57.2342 62.4006L57.2344 62.4009L57.3064 62.4846L57.3067 62.4849L57.3787 62.5686L57.3789 62.5688L57.451 62.6526V62.7365L57.4512 62.7368L57.5232 62.8205L57.5235 62.8208L57.5955 62.9045L57.5957 62.9048L57.6678 62.9885L57.668 62.9888L57.74 63.0725V63.1565L57.7402 63.1567L57.8123 63.2405L57.8125 63.2407L57.8846 63.3244L57.8848 63.3247L57.9568 63.4084L57.957 63.4087L58.0291 63.4924V63.5764L58.0293 63.5767L58.1014 63.6604L58.1016 63.6606L58.1736 63.7444L58.1738 63.7446L58.2459 63.8283L58.2461 63.8286L58.3182 63.9123V63.9963L58.3184 63.9966L58.3904 64.0803L58.3906 64.0806L58.4627 64.1643L58.4629 64.1646L58.535 64.2483V64.3323L58.5352 64.3325L58.6072 64.4162L58.6074 64.4165L58.6795 64.5002L58.6797 64.5005L58.7517 64.5842V64.6682L58.6797 64.7519H58.6074H58.5352H58.4629H58.3906H58.3184H58.2461H58.1738H58.1016H58.0293H57.957H57.8848H57.8125H57.7402H57.668H57.5957H57.5235H57.4512H57.3789H57.3067H57.2344H57.1621H57.0899H57.0176H56.9453H56.8731H56.8008H56.7285H56.6563H56.584H56.5117H56.4395H56.3672H56.2949H56.2227H56.1504H56.0781H56.0059H55.9336H55.8613H55.7891H55.7168H55.6445H55.5723H55.5H55.4277H55.3555H55.2832H55.211H55.1387H55.0664H54.9942H54.9219H54.8496H54.7774H54.7051H54.6328H54.5606H54.4883H54.416H54.3438H54.2715H54.1992H54.127H54.0547H53.9824H53.9102H53.8379H53.7656H53.6934H53.6211H53.5488H53.4766H53.4043H53.332H53.2598H53.1875H53.1152H53.043H52.9707H52.8985H52.8262H52.7539H52.6817H52.6094H52.5371H52.4649H52.3926H52.3203H52.2481H52.1758H52.1035H52.0313H51.959H51.8867H51.8145H51.7422H51.6699H51.5977H51.5254H51.4531H51.3809H51.3086H51.2363H51.1641H51.0918H51.0195H50.9473H50.875H50.8027H50.7305H50.6582H50.586H50.5137H50.4414H50.3692H50.2969H50.2246H50.1524H50.0801H50.0078H49.9356H49.8633H49.791H49.7188H49.6465H49.5742H49.502H49.4297H49.3574H49.2852H49.2129H49.1406H49.0684L48.9963 64.6682L48.9961 64.6679L48.9241 64.5842L48.9238 64.584L48.8518 64.5002V64.4162L48.8516 64.416L48.7795 64.3323L48.7793 64.332L48.7073 64.2483L48.707 64.248L48.635 64.1643L48.6348 64.164L48.5627 64.0803V63.9963L48.5625 63.9961L48.4905 63.9123L48.4903 63.9121L48.4182 63.8283L48.418 63.8281L48.3459 63.7444L48.3457 63.7441L48.2737 63.6604V63.5764L48.2735 63.5761L48.2014 63.4924L48.2012 63.4922L48.1291 63.4084L48.1289 63.4082L48.0569 63.3244L48.0567 63.3242L47.9846 63.2405L47.9844 63.2402L47.9124 63.1565V63.0725L47.9121 63.0722L47.8401 62.9885L47.8399 62.9882L47.7678 62.9045L47.7676 62.9043L47.6956 62.8205L47.6953 62.8203L47.6233 62.7365V62.6526L47.6231 62.6523L47.551 62.5686L47.5508 62.5683L47.4788 62.4846L47.4785 62.4843L47.4065 62.4006L47.4063 62.4004L47.3342 62.3166V62.2326L47.334 62.2324L47.262 62.1487L47.2617 62.1484L47.1897 62.0647L47.1895 62.0644L47.1174 61.9807L47.1172 61.9804L47.0452 61.8967L47.0449 61.8964L46.9729 61.8127V61.7287L46.9727 61.7285L46.9006 61.6448L46.9004 61.6445L46.8284 61.5608L46.8281 61.5605L46.7561 61.4768L46.7559 61.4765L46.6838 61.3928V61.3088L46.6836 61.3086L46.6116 61.2248L46.6113 61.2246L46.5393 61.1409L46.5391 61.1406L46.467 61.0569L46.4668 61.0566L46.3948 60.9729L46.3945 60.9726L46.3225 60.8889V60.8049L46.3223 60.8046L46.2502 60.7209L46.25 60.7207L46.178 60.6369L46.1778 60.6367L46.1057 60.553L46.1055 60.5527L46.0334 60.469L46.0332 60.4687L45.9612 60.385V60.301L45.961 60.3007L45.8889 60.217L45.8887 60.2168L45.8166 60.133L45.8164 60.1328L45.7444 60.0491L45.7442 60.0488L45.6721 59.9651V59.8811L45.6719 59.8808L45.5999 59.7971L45.5996 59.7968L45.5276 59.7131L45.5274 59.7129L45.4553 59.6291L45.4551 59.6289L45.3831 59.5451L45.3828 59.5449L45.3108 59.4612V59.3772L45.3106 59.3769L45.2385 59.2932L45.2383 59.2929L45.1663 59.2092L45.166 59.2089L45.094 59.1252V59.0412L45.0938 59.041L45.0217 58.9573L45.0215 58.957L44.9495 58.8733L44.9492 58.873L44.8772 58.7893L44.877 58.789L44.8049 58.7053L44.8047 58.705L44.7327 58.6213V58.5373L44.7324 58.5371L44.6604 58.4534L44.6602 58.4531L44.5881 58.3694L44.5879 58.3691L44.5159 58.2854L44.5156 58.2851L44.4436 58.2014L44.4434 58.2011L44.3713 58.1174V58.0334L44.3711 58.0332L44.2991 57.9494L44.2988 57.9492L44.2268 57.8655L44.2266 57.8652L44.1545 57.7815L44.1543 57.7812L44.0823 57.6975V57.6135L44.082 57.6132L44.01 57.5295L44.0098 57.5293L43.9377 57.4455L43.9375 57.4453L43.8655 57.3616L43.8653 57.3613L43.7932 57.2776L43.793 57.2773L43.7209 57.1936V57.1096L43.7207 57.1093L43.6487 57.0256L43.6485 57.0254L43.5764 56.9416L43.5762 56.9414L43.5041 56.8576L43.5039 56.8574L43.4319 56.7737L43.4317 56.7734L43.3596 56.6897V56.6057L43.3594 56.6054L43.2874 56.5217L43.2871 56.5214L43.2151 56.4377L43.2149 56.4375L43.1428 56.3537L43.1426 56.3535L43.0706 56.2698V56.1858L43.0703 56.1855L42.9983 56.1018L42.9981 56.1015L42.926 56.0178L42.9258 56.0175L42.8538 55.9338L42.8535 55.9336L42.7815 55.8498L42.7813 55.8496L42.7092 55.7659V55.6819L42.709 55.6816L42.637 55.5979L42.6367 55.5976L42.5647 55.5139L42.5645 55.5136L42.4924 55.4299L42.4922 55.4296L42.4202 55.3459V55.2619L42.4199 55.2617L42.3479 55.178L42.3477 55.1777L42.2756 55.094L42.2754 55.0937L42.2034 55.01L42.2031 55.0097L42.1311 54.926L42.1309 54.9257L42.0588 54.842V54.758L42.0586 54.7578L41.9866 54.6741L41.9863 54.6738L41.9143 54.5901L41.9141 54.5898L41.842 54.5061L41.8418 54.5058L41.7698 54.4221V54.3381L41.7695 54.3379L41.6975 54.2541L41.6973 54.2539L41.6252 54.1701L41.625 54.1699L41.553 54.0862L41.5528 54.0859L41.4807 54.0022L41.4805 54.0019L41.4084 53.9182V53.8342L41.4082 53.8339L41.3362 53.7502L41.336 53.75L41.2639 53.6662L41.2637 53.666L41.1916 53.5823L41.1914 53.582L41.1194 53.4983V53.4143L41.1192 53.414L41.0471 53.3303L41.0469 53.33L40.9749 53.2463L40.9746 53.2461L40.9026 53.1623L40.9024 53.1621L40.8303 53.0784L40.8301 53.0781L40.7581 52.9944V52.9104L40.7578 52.9101L40.6858 52.8264L40.6856 52.8261L40.6135 52.7424L40.6133 52.7421L40.5413 52.6584L40.541 52.6582L40.469 52.5744V52.4905L40.4688 52.4902L40.3967 52.4065L40.3965 52.4062L40.3245 52.3225L40.3242 52.3222L40.2522 52.2385L40.252 52.2382L40.1799 52.1545L40.1797 52.1543L40.1077 52.0705V51.9866L40.1074 51.9863L40.0354 51.9026L40.0352 51.9023L39.9631 51.8186L39.9629 51.8183L39.8909 51.7346L39.8906 51.7343L39.8186 51.6506L39.8184 51.6504L39.7463 51.5666V51.4826L39.7461 51.4824L39.6741 51.3987L39.6738 51.3984L39.6018 51.3147L39.6016 51.3144L39.5295 51.2307L39.5293 51.2304L39.4573 51.1467L39.457 51.1464L39.385 51.0627V50.9787L39.3848 50.9785L39.3127 50.8948L39.3125 50.8945L39.2405 50.8108L39.2403 50.8105L39.1682 50.7268L39.168 50.7265L39.0959 50.6428V50.5588L39.0957 50.5586L39.0237 50.4748L39.0235 50.4746L38.9514 50.3909L38.9512 50.3906L38.8791 50.3069L38.8789 50.3066L38.8069 50.2229V50.1389L38.8067 50.1386L38.7346 50.0549L38.7344 50.0547L38.6624 49.9709L38.6621 49.9707L38.5901 49.8869L38.5899 49.8867L38.5178 49.803L38.5176 49.8027L38.4456 49.719V49.635L38.4453 49.6347L38.3733 49.551L38.3731 49.5507L38.301 49.467L38.3008 49.4668L38.2288 49.383L38.2285 49.3828L38.1565 49.2991V49.2151L38.1563 49.2148L38.0842 49.1311L38.084 49.1308L38.012 49.0471L38.0117 49.0468L37.9397 48.9631L37.9395 48.9629L37.8674 48.8791L37.8672 48.8789L37.7952 48.7951V48.7112L37.7949 48.7109L37.7229 48.6272L37.7227 48.6269L37.6506 48.5432L37.6504 48.5429L37.5784 48.4592L37.5781 48.4589L37.5061 48.3752L37.5059 48.375L37.4338 48.2912V48.2073L37.4336 48.207L37.3616 48.1233L37.3613 48.123L37.2893 48.0393L37.2891 48.039L37.217 47.9553L37.2168 47.955L37.1448 47.8713L37.1445 47.8711L37.0725 47.7873V47.7034L37.0723 47.7031L37.0002 47.6194L37 47.6191L36.928 47.5354L36.9278 47.5351L36.8557 47.4514L36.8555 47.4511L36.7834 47.3674V47.2834L36.7832 47.2832L36.7112 47.1994L36.711 47.1992L36.6389 47.1155L36.6387 47.1152L36.5667 47.0315L36.5664 47.0312L36.4944 46.9475L36.4942 46.9472L36.4221 46.8635V46.7795L36.4219 46.7793L36.3499 46.6955L36.3496 46.6953L36.2776 46.6116L36.2774 46.6113L36.2053 46.5276L36.2051 46.5273L36.1331 46.4436L36.1328 46.4433L36.0608 46.3596V46.2756L36.0606 46.2754L35.9885 46.1916L35.9883 46.1914L35.9163 46.1076L35.916 46.1074L35.844 46.0237L35.8438 46.0234L35.7717 45.9397V45.8557L35.7715 45.8554L35.6995 45.7717L35.6992 45.7714L35.6272 45.6877L35.627 45.6875L35.5549 45.6037L35.5547 45.6035L35.4827 45.5198V45.4358L35.4824 45.4355L35.4104 45.3518L35.4102 45.3515L35.3381 45.2678L35.3379 45.2675L35.2659 45.1838L35.2656 45.1836L35.1936 45.0998L35.1934 45.0996L35.1213 45.0159V44.9319L35.1211 44.9316L35.0491 44.8479L35.0488 44.8476L34.9768 44.7639L34.9766 44.7636L34.9045 44.6799L34.9043 44.6797L34.8323 44.5959L34.832 44.5957L34.76 44.5119V44.428L34.7598 44.4277L34.6877 44.344L34.6875 44.3437L34.6155 44.26L34.6153 44.2597L34.5432 44.176L34.543 44.1757L34.4709 44.092V44.008L34.4707 44.0078L34.3987 43.9241L34.3985 43.9238L34.3264 43.8401L34.3262 43.8398L34.2542 43.7561L34.2539 43.7558L34.1819 43.6721L34.1817 43.6718L34.1096 43.5881V43.5041L34.1094 43.5039L34.0374 43.4201L34.0371 43.4199L33.9651 43.3362L33.9649 43.3359L33.8928 43.2522L33.8926 43.2519L33.8206 43.1682L33.8203 43.1679L33.7483 43.0842V43.0002L33.7481 43L33.676 42.9162L33.6758 42.916L33.6038 42.8323L33.6035 42.832L33.5315 42.7483L33.5313 42.748L33.4592 42.6643V42.5803L33.459 42.58L33.387 42.4963L33.3867 42.4961L33.3147 42.4123L33.3145 42.4121L33.2424 42.3284L33.2422 42.3281L33.1702 42.2444L33.1699 42.2441L33.0979 42.1604V42.0764L33.0977 42.0761L33.0256 41.9924L33.0254 41.9921L32.9534 41.9084L32.9531 41.9082L32.8811 41.8244L32.8809 41.8242L32.8088 41.7405V41.6565L32.8086 41.6562L32.7366 41.5725L32.7363 41.5722L32.6643 41.4885L32.6641 41.4882L32.592 41.4045L32.5918 41.4043L32.5198 41.3205L32.5195 41.3203L32.4475 41.2366V41.1526L32.4473 41.1523L32.3752 41.0686L32.375 41.0683L32.303 40.9846L32.3028 40.9843L32.2307 40.9006L32.2305 40.9004L32.1584 40.8166V40.7326L32.1582 40.7324L32.0862 40.6487L32.086 40.6484L32.0139 40.5647L32.0137 40.5644L31.9417 40.4807L31.9414 40.4804L31.8694 40.3967L31.8692 40.3964L31.7971 40.3127V40.2287L31.7969 40.2285L31.7249 40.1448L31.7246 40.1445L31.6526 40.0608L31.6524 40.0605L31.5803 39.9768L31.5801 39.9765L31.5081 39.8928V39.8088L31.5078 39.8086L31.4358 39.7248L31.4356 39.7246L31.3635 39.6409L31.3633 39.6406L31.2913 39.5569L31.291 39.5566L31.219 39.4729L31.2188 39.4726L31.1467 39.3889V39.3049L31.1465 39.3046L31.0745 39.2209L31.0742 39.2207L31.0022 39.1369L31.002 39.1367L30.9299 39.053L30.9297 39.0527L30.8577 38.969V38.885L30.8574 38.8847L30.7854 38.801L30.7852 38.8007L30.7131 38.717L30.7129 38.7168L30.6409 38.633L30.6406 38.6328L30.5686 38.5491V38.4651L30.6406 38.3813L30.7127 38.4651L30.7129 38.4653H30.7852H30.8574H30.9297H31.002H31.0742H31.1465H31.2188H31.291H31.3633H31.4356H31.5078H31.5801H31.6524H31.7246H31.7969H31.8692H31.9414H32.0137H32.086H32.1582H32.2305H32.3028H32.375L32.3752 38.4651L32.4473 38.3813L32.5193 38.4651L32.5195 38.4653H32.5918H32.6641H32.7363H32.8086H32.8809H32.9531H33.0254H33.0977H33.1699H33.2422H33.3145H33.3867H33.459H33.5313H33.6035H33.6758H33.7481L33.7483 38.4651L33.8203 38.3813L33.8924 38.4651L33.8926 38.4653H33.9649H34.0371H34.1094H34.1817H34.2539H34.3262H34.3985H34.4707H34.543H34.6153H34.6875H34.7598H34.832H34.9043H34.9766H35.0488H35.1211H35.1934H35.2656H35.3379H35.4102H35.4824H35.5547H35.627H35.6992H35.7715H35.8438H35.916H35.9883H36.0606H36.1328H36.2051H36.2774H36.3496H36.4219H36.4942H36.5664H36.6387H36.711H36.7832H36.8555H36.9278H37H37.0723H37.1445H37.2168H37.2891H37.3613H37.4336H37.5059H37.5781H37.6504H37.7227H37.7949H37.8672H37.9395H38.0117H38.084H38.1563H38.2285H38.3008H38.3731H38.4453H38.5176H38.5899H38.6621H38.7344H38.8067H38.8789H38.9512H39.0235H39.0957H39.168H39.2403H39.3125H39.3848H39.457H39.5293H39.6016H39.6738H39.7461H39.8184H39.8906H39.9629H40.0352H40.1074H40.1797H40.252H40.3242H40.3965H40.4688H40.541H40.6133H40.6856L40.6858 38.4651L40.7578 38.3813L40.7581 38.3811L40.8301 38.2974L40.8303 38.2971L40.9024 38.2134L40.9026 38.2131L40.9746 38.1294L40.9749 38.1291L41.0469 38.0454L41.0471 38.0451L41.1192 37.9614L41.1194 37.9612L41.1914 37.8774L41.1916 37.8772L41.2637 37.7935L41.2639 37.7932L41.336 37.7095L41.3362 37.7092L41.4082 37.6255L41.4084 37.6252L41.4805 37.5415L41.4807 37.5412L41.5528 37.4575L41.553 37.4573L41.625 37.3735L41.6252 37.3733L41.6973 37.2896L41.6975 37.2893L41.7695 37.2056L41.7698 37.2053L41.8418 37.1216L41.842 37.1213L41.9141 37.0376L41.9143 37.0373L41.9863 36.9536L41.9866 36.9534L42.0586 36.8696L42.0588 36.8694L42.1309 36.7856L42.1311 36.7854L42.2031 36.7017L42.2034 36.7014L42.2754 36.6177L42.2756 36.6174L42.3477 36.5337L42.3479 36.5334L42.4199 36.4497L42.4202 36.4494L42.4922 36.3657L42.4924 36.3655L42.5645 36.2817L42.5647 36.2815L42.6367 36.1978L42.637 36.1975L42.709 36.1138L42.7092 36.1135L42.7813 36.0298L42.7815 36.0295L42.8535 35.9458L42.8538 35.9455L42.9258 35.8618L42.926 35.8616L42.9981 35.7778L42.9983 35.7776L43.0703 35.6938L43.0706 35.6936L43.1426 35.6099L43.1428 35.6096L43.2149 35.5259L43.2151 35.5256L43.2871 35.4419L43.2874 35.4416L43.3594 35.3579L43.3596 35.3576L43.4317 35.2739L43.4319 35.2737L43.5039 35.1899L43.5041 35.1897L43.5762 35.106L43.5764 35.1057L43.6485 35.022L43.6487 35.0217L43.7207 34.938L43.7209 34.9377L43.793 34.854L43.7932 34.8537L43.8653 34.77L43.8655 34.7698L43.9375 34.686L43.9377 34.6858L44.0098 34.6021L44.01 34.6018L44.082 34.5181L44.0823 34.5178L44.1543 34.4341L44.1545 34.4338L44.2266 34.3501L44.2268 34.3498L44.2988 34.2661L44.2991 34.2658L44.3711 34.1821L44.3713 34.1819L44.4434 34.0981L44.4436 34.0979L44.5156 34.0142L44.5159 34.0139L44.5879 33.9302L44.5881 33.9299L44.6602 33.8462H44.7324L44.7327 33.8459V33.7619L44.7324 33.7617L44.6604 33.678L44.6602 33.6777L44.5881 33.594L44.5879 33.5937L44.5159 33.51L44.5156 33.5097L44.4436 33.426L44.4434 33.4257L44.3713 33.342L44.3711 33.3418L44.2991 33.258L44.2988 33.2578L44.2268 33.1741L44.2266 33.1738L44.1545 33.0901L44.1543 33.0898L44.0823 33.0061L44.082 33.0058L44.01 32.9221L44.0098 32.9218L43.9377 32.8381L43.9375 32.8379L43.8655 32.7541L43.8653 32.7539L43.7932 32.6701L43.793 32.6699L43.7209 32.5862L43.7207 32.5859L43.6487 32.5022L43.6485 32.5019L43.5764 32.4182L43.5762 32.4179L43.5041 32.3342L43.5039 32.3339L43.4319 32.2502L43.4317 32.25L43.3596 32.1662L43.3594 32.166L43.2874 32.0823L43.2871 32.082L43.2151 31.9983L43.2149 31.998L43.1428 31.9143L43.1426 31.914L43.0706 31.8303L43.0703 31.83L42.9983 31.7463L42.9981 31.7461L42.926 31.6623L42.9258 31.6621L42.8538 31.5783L42.8535 31.5781L42.7815 31.4944L42.7813 31.4941L42.7092 31.4104L42.709 31.4101H42.6367L42.5647 31.3264L42.5645 31.3261L42.4924 31.2424V31.1584L42.4922 31.1582L42.4202 31.0744L42.4199 31.0742L42.3479 30.9905L42.3477 30.9902L42.2756 30.9065L42.2754 30.9062L42.2034 30.8225L42.2031 30.8222L42.1311 30.7385L42.1309 30.7382L42.0588 30.6545L42.0586 30.6543L41.9866 30.5705L41.9863 30.5703L41.9143 30.4866L41.9141 30.4863L41.842 30.4026L41.8418 30.4023L41.7698 30.3186L41.7695 30.3183L41.6975 30.2346L41.6973 30.2343L41.6252 30.1506L41.625 30.1504L41.553 30.0666L41.5528 30.0664L41.4807 29.9826L41.4805 29.9824L41.4084 29.8987L41.4082 29.8984L41.3362 29.8147L41.336 29.8144L41.2639 29.7307L41.2637 29.7304L41.1916 29.6467L41.1914 29.6464L41.1194 29.5627L41.1192 29.5625L41.0471 29.4787L41.0469 29.4785L40.9749 29.3948L40.9746 29.3945L40.9026 29.3108L40.9024 29.3105L40.8303 29.2268L40.8301 29.2265L40.7581 29.1428L40.7578 29.1425L40.6858 29.0588L40.6856 29.0586H40.6133L40.5413 28.9748L40.541 28.9746L40.469 28.8908V28.8069L40.4688 28.8066L40.3967 28.7229L40.3965 28.7226L40.3245 28.6389L40.3242 28.6386L40.2522 28.5549L40.252 28.5546L40.1799 28.4709L40.1797 28.4707L40.1077 28.3869L40.1074 28.3867L40.0354 28.303L40.0352 28.3027L39.9631 28.219L39.9629 28.2187H39.8906H39.8184H39.7461H39.6738H39.6016H39.5293H39.457H39.3848H39.3125H39.2403H39.168H39.0957H39.0235H38.9512H38.8789H38.8067H38.7344H38.6621H38.5899H38.5176H38.4453H38.3731H38.3008H38.2285H38.1563H38.084H38.0117H37.9395H37.8672H37.7949H37.7227H37.6504H37.5781H37.5059H37.4336H37.3613H37.2891H37.2168H37.1445H37.0723H37H36.9278H36.8555H36.7832H36.711H36.6387H36.5664H36.4942H36.4219H36.3496H36.2774H36.2051H36.1328H36.0606H35.9883H35.916H35.8438H35.7715H35.6992H35.627H35.5547H35.4824H35.4102H35.3379H35.2656H35.1934H35.1211H35.0488H34.9766H34.9043H34.832H34.7598H34.6875H34.6153H34.543H34.4707H34.3985H34.3262H34.2539H34.1817H34.1094H34.0371H33.9649H33.8926H33.8203H33.7481H33.6758H33.6035H33.5313H33.459H33.3867H33.3145H33.2422H33.1699H33.0977H33.0254H32.9531H32.8809H32.8086H32.7363H32.6641H32.5918H32.5195H32.4473H32.375H32.3028H32.2305H32.1582H32.086H32.0137H31.9414H31.8692H31.7969H31.7246H31.6524H31.5801H31.5078H31.4356H31.3633H31.291H31.2188H31.1465H31.0742H31.002H30.9297H30.8574H30.7852H30.7129H30.6406H30.5684H30.4961H30.4238H30.3516H30.2793H30.207H30.1348H30.0625H29.9903H29.918H29.8457H29.7735H29.7012H29.6289H29.5567H29.4844H29.4121H29.3399H29.2676H29.1953H29.1231H29.0508H28.9785H28.9063H28.834H28.7617H28.6895H28.6172H28.5449H28.4727H28.4004H28.3281H28.2559H28.1836H28.1113H28.0391H27.9668H27.8945H27.8223H27.75H27.6778H27.6055H27.5332H27.461H27.3887H27.3164H27.2442H27.1719H27.0996H27.0274H26.9551H26.8828H26.8106H26.7383H26.666H26.5938H26.5215L26.5213 28.219V28.303V28.3869V28.4709V28.5549V28.6389V28.7229V28.8069V28.8908V28.9748V29.0588V29.1428V29.2268V29.3108V29.3948V29.4787V29.5627V29.6467V29.7307V29.8147V29.8987V29.9826V30.0666V30.1506V30.2346V30.3186V30.4026V30.4866V30.5705V30.6545V30.7385V30.8225V30.9065V30.9905V31.0744V31.1584V31.2424V31.3264V31.4104V31.4944V31.5783V31.6623V31.7463V31.8303V31.9143V31.9983V32.0823V32.1662V32.2502V32.3342V32.4182V32.5022V32.5862V32.6701V32.7541V32.8381V32.9221V33.0061V33.0901V33.1741V33.258V33.342V33.426V33.51V33.594V33.678V33.7619V33.8459V33.9299V34.0139V34.0979V34.1819V34.2658V34.3498V34.4338V34.5178V34.6018V34.6858V34.7698V34.8537V34.9377V35.0217V35.1057V35.1897V35.2737V35.3576V35.4416V35.5256V35.6096V35.6936V35.7776V35.8616V35.9455V36.0295V36.1135V36.1975V36.2815V36.3655V36.4494V36.5334V36.6174V36.7014V36.7854V36.8694V36.9534V37.0373V37.1213V37.2053V37.2893V37.3733V37.4573V37.5412V37.6252V37.7092V37.7932V37.8772V37.9612V38.0451V38.1291V38.2131V38.2971V38.3811V38.4651V38.5491V38.633V38.717V38.801V38.885V38.969V39.053V39.1369V39.2209V39.3049V39.3889V39.4729V39.5569V39.6409V39.7248V39.8088V39.8928V39.9768V40.0608V40.1448V40.2287V40.3127V40.3967V40.4807V40.5647V40.6487V40.7326V40.8166V40.9006V40.9846V41.0686V41.1526V41.2366V41.3205V41.4045V41.4885V41.5725V41.6565V41.7405V41.8244V41.9084V41.9924V42.0764V42.1604V42.2444V42.3284V42.4123V42.4963V42.5803V42.6643V42.7483V42.8323V42.9162V43.0002V43.0842V43.1682V43.2522V43.3362V43.4201V43.5041V43.5881V43.6721V43.7561V43.8401V43.9241V44.008V44.092V44.176V44.26V44.344V44.428V44.5119V44.5959V44.6799V44.7639V44.8479V44.9319V45.0159V45.0998V45.1838V45.2678V45.3518V45.4358V45.5198V45.6037V45.6877V45.7717V45.8557V45.9397V46.0237V46.1076V46.1916V46.2756V46.3596V46.4436V46.5276V46.6116V46.6955V46.7795V46.8635V46.9475V47.0315V47.1155V47.1994V47.2834V47.3674V47.4514V47.5354V47.6194V47.7034V47.7873V47.8713V47.9553V48.0393V48.1233V48.2073V48.2912V48.3752V48.4592V48.5432V48.6272V48.7112V48.7951V48.8791V48.9631V49.0471V49.1311V49.2151V49.2991V49.383V49.467V49.551V49.635V49.719V49.803V49.8869V49.9709V50.0549V50.1389V50.2229V50.3069V50.3909V50.4748V50.5588V50.6428V50.7268V50.8108V50.8948V50.9787V51.0627V51.1467V51.2307V51.3147V51.3987V51.4826V51.5666V51.6506V51.7346V51.8186V51.9026V51.9866V52.0705V52.1545V52.2385V52.3225V52.4065V52.4905V52.5744V52.6584V52.7424V52.8264V52.9104V52.9944V53.0784V53.1623V53.2463V53.3303V53.4143V53.4983V53.5823V53.6662V53.7502V53.8342V53.9182V54.0022V54.0862V54.1701V54.2541V54.3381V54.4221V54.5061V54.5901V54.6741V54.758V54.842L26.4492 54.9257L26.449 54.926V55.01L26.377 55.0937L26.3767 55.094L26.3047 55.1777H26.2324L26.2322 55.178V55.2619L26.1602 55.3457L26.1599 55.3459L26.0879 55.4296L26.0877 55.4299L26.0156 55.5136L26.0154 55.5139L25.9434 55.5976L25.9431 55.5979L25.8711 55.6816L25.8709 55.6819L25.7988 55.7656L25.7986 55.7659L25.7266 55.8496L25.7264 55.8498L25.6543 55.9336L25.6541 55.9338L25.582 56.0175L25.5818 56.0178L25.5098 56.1015L25.5096 56.1018L25.4375 56.1855L25.4373 56.1858L25.3653 56.2695L25.365 56.2698L25.293 56.3535H25.2207L25.2205 56.3537V56.4377L25.1485 56.5214L25.1482 56.5217L25.0762 56.6054H25.0039L25.0037 56.6057V56.6897L24.9317 56.7734L24.9314 56.7737L24.8594 56.8574L24.8592 56.8576L24.7871 56.9414L24.7869 56.9416L24.7149 57.0254L24.7146 57.0256L24.6426 57.1093L24.6424 57.1096L24.5703 57.1933H24.4981L24.4978 57.1936L24.4258 57.2773L24.4256 57.2776V57.3616L24.3535 57.4453L24.3533 57.4455L24.2813 57.5293H24.209L24.2088 57.5295V57.6135L24.1367 57.6972L24.1365 57.6975L24.0645 57.7812L24.0642 57.7815L23.9922 57.8652L23.992 57.8655L23.9199 57.9492L23.9197 57.9494L23.8477 58.0332L23.8474 58.0334L23.7754 58.1171L23.7752 58.1174L23.7031 58.2011L23.7029 58.2014L23.6309 58.2851L23.6306 58.2854L23.5586 58.3691L23.5584 58.3694L23.4863 58.4531L23.4861 58.4534L23.4141 58.5371H23.3418L23.3416 58.5373V58.6213L23.2695 58.705H23.1973L23.1971 58.7053V58.7893L23.125 58.873H23.0528L23.0525 58.8733V58.9573L22.9805 59.041H22.9082L22.908 59.0412V59.1252L22.836 59.2089H22.7637L22.7635 59.2092L22.6914 59.2929L22.6912 59.2932L22.6192 59.3769L22.6189 59.3772L22.5469 59.4609L22.5467 59.4612L22.4746 59.5449L22.4744 59.5451L22.4024 59.6289L22.4021 59.6291L22.3301 59.7129L22.3299 59.7131L22.2578 59.7968L22.2576 59.7971L22.1856 59.8808L22.1853 59.8811L22.1133 59.9648L22.1131 59.9651L22.041 60.0488L22.0408 60.0491L21.9688 60.1328L21.9685 60.133L21.8965 60.2168L21.8963 60.217L21.8242 60.3007L21.824 60.301L21.752 60.3847L21.7517 60.385L21.6797 60.4687L21.6795 60.469L21.6074 60.5527L21.6072 60.553L21.5352 60.6367L21.5349 60.6369L21.4629 60.7207L21.4627 60.7209L21.3906 60.8046L21.3904 60.8049L21.3184 60.8886L21.3181 60.8889L21.2461 60.9726L21.2459 60.9729L21.1738 61.0566L21.1736 61.0569L21.1016 61.1406L21.1014 61.1409L21.0293 61.2246L21.0291 61.2248L20.957 61.3086L20.9568 61.3088L20.8848 61.3925L20.8846 61.3928L20.8125 61.4765L20.8123 61.4768L20.7403 61.5605L20.74 61.5608L20.668 61.6445L20.6678 61.6448L20.5957 61.7285L20.5955 61.7287L20.5235 61.8125L20.5232 61.8127L20.4512 61.8964L20.451 61.8967L20.3789 61.9804L20.3787 61.9807L20.3067 62.0644L20.3064 62.0647L20.2344 62.1484L20.2342 62.1487L20.1621 62.2324L20.1619 62.2326L20.0899 62.3164L20.0896 62.3166L20.0176 62.4004L20.0174 62.4006L19.9453 62.4843L19.9451 62.4846L19.8731 62.5683L19.8728 62.5686L19.8008 62.6523L19.8006 62.6526V62.7365L19.7285 62.8203L19.7283 62.8205L19.6563 62.9043L19.656 62.9045L19.584 62.9882L19.5838 62.9885L19.5117 63.0722H19.4395L19.4392 63.0725V63.1565L19.3672 63.2402L19.367 63.2405L19.2949 63.3242L19.2947 63.3244L19.2227 63.4082H19.1504L19.1502 63.4084V63.4924L19.0781 63.5761L19.0779 63.5764L19.0059 63.6601L19.0056 63.6604L18.9336 63.7441L18.9334 63.7444L18.8613 63.8281L18.8611 63.8283L18.7891 63.9121L18.7889 63.9123L18.7168 63.9961H18.6445L18.6443 63.9963V64.0803L18.5723 64.164H18.5L18.4998 64.1643L18.4278 64.248L18.4275 64.2483L18.3555 64.332L18.3553 64.3323V64.4162L18.2832 64.5L18.283 64.5002L18.211 64.584H18.1387L18.1385 64.5842L18.0664 64.6679L18.0662 64.6682V64.7522L17.9942 64.8359Z" fill="#2C79FF"/>
<path d="M17.9942 64.8359H17.9219L17.8499 64.7522V64.6682V64.5842V64.5002V64.4162V64.3323V64.2483V64.1643V64.0803V63.9963V63.9123V63.8283V63.7444V63.6604V63.5764V63.4924V63.4084V63.3244V63.2405V63.1565V63.0725V62.9885V62.9045V62.8205V62.7365V62.6526V62.5686V62.4846V62.4006V62.3166V62.2326V62.1487V62.0647V61.9807V61.8967V61.8127V61.7287V61.6448V61.5608V61.4768V61.3928V61.3088V61.2248V61.1409V61.0569V60.9729V60.8889V60.8049V60.7209V60.6369V60.553V60.469V60.385V60.301V60.217V60.133V60.0491V59.9651V59.8811V59.7971V59.7131V59.6291V59.5451V59.4612V59.3772V59.2932V59.2092V59.1252V59.0412V58.9573V58.8733V58.7893V58.7053V58.6213V58.5373V58.4534V58.3694V58.2854V58.2014V58.1174V58.0334V57.9494V57.8655V57.7815V57.6975V57.6135V57.5295V57.4455V57.3616V57.2776V57.1936V57.1096V57.0256V56.9416V56.8576V56.7737V56.6897V56.6057V56.5217V56.4377V56.3537V56.2698V56.1858V56.1018V56.0178V55.9338V55.8498V55.7659V55.6819V55.5979V55.5139V55.4299V55.3459V55.2619V55.178V55.094V55.01V54.926V54.842V54.758V54.6741V54.5901V54.5061V54.4221V54.3381V54.2541V54.1701V54.0862V54.0022V53.9182V53.8342V53.7502V53.6662V53.5823V53.4983V53.4143V53.3303V53.2463V53.1623V53.0784V52.9944V52.9104V52.8264V52.7424V52.6584V52.5744V52.4905V52.4065V52.3225V52.2385V52.1545V52.0705V51.9866V51.9026V51.8186V51.7346V51.6506V51.5666V51.4826V51.3987V51.3147V51.2307V51.1467V51.0627V50.9787V50.8948V50.8108V50.7268V50.6428V50.5588V50.4748V50.3909V50.3069V50.2229V50.1389V50.0549V49.9709V49.8869V49.803V49.719V49.635V49.551V49.467V49.383V49.2991V49.2151V49.1311V49.0471V48.9631V48.8791V48.7951V48.7112V48.6272V48.5432V48.4592V48.3752V48.2912V48.2073V48.1233V48.0393V47.9553V47.8713V47.7873V47.7034V47.6194V47.5354V47.4514V47.3674V47.2834V47.1994V47.1155V47.0315V46.9475V46.8635V46.7795V46.6955V46.6116V46.5276V46.4436V46.3596V46.2756V46.1916V46.1076V46.0237V45.9397V45.8557V45.7717V45.6877V45.6037V45.5198V45.4358V45.3518V45.2678V45.1838V45.0998V45.0159V44.9319V44.8479V44.7639V44.6799V44.5959V44.5119V44.428V44.344V44.26V44.176V44.092V44.008V43.9241V43.8401V43.7561V43.6721V43.5881V43.5041V43.4201V43.3362V43.2522V43.1682V43.0842V43.0002V42.9162V42.8323V42.7483V42.6643V42.5803V42.4963V42.4123V42.3284V42.2444V42.1604V42.0764V41.9924V41.9084V41.8244V41.7405V41.6565V41.5725V41.4885V41.4045V41.3205V41.2366V41.1526V41.0686V40.9846V40.9006V40.8166V40.7326V40.6487V40.5647V40.4807V40.3967V40.3127V40.2287V40.1448V40.0608V39.9768V39.8928V39.8088V39.7248V39.6409V39.5569V39.4729V39.3889V39.3049V39.2209V39.1369V39.053V38.969V38.885V38.801V38.717V38.633V38.5491V38.4651V38.3811V38.2971V38.2131V38.1291V38.0451V37.9612V37.8772V37.7932V37.7092V37.6252V37.5412V37.4573V37.3733V37.2893V37.2053V37.1213V37.0373V36.9534V36.8694V36.7854V36.7014V36.6174V36.5334V36.4494V36.3655V36.2815V36.1975V36.1135V36.0295V35.9455V35.8616V35.7776V35.6936V35.6096V35.5256V35.4416V35.3576V35.2737V35.1897V35.1057V35.0217V34.9377V34.8537V34.7698V34.6858V34.6018V34.5178V34.4338V34.3498V34.2658V34.1819V34.0979V34.0139V33.9299V33.8459V33.7619V33.678V33.594V33.51V33.426V33.342V33.258V33.1741V33.0901V33.0061V32.9221V32.8381V32.7541V32.6701V32.5862V32.5022V32.4182V32.3342V32.2502V32.1662V32.0823V31.9983V31.9143V31.8303V31.7463V31.6623V31.5783V31.4944V31.4104V31.3264V31.2424V31.1584V31.0744V30.9905V30.9065V30.8225V30.7385V30.6545V30.5705V30.4866V30.4026V30.3186V30.2346V30.1506V30.0666V29.9826V29.8987V29.8147V29.7307V29.6467V29.5627V29.4787V29.3948V29.3108V29.2268V29.1428V29.0588V28.9748V28.8908V28.8069V28.7229V28.6389V28.5549V28.4709V28.3869V28.303V28.219V28.135V28.051V27.967V27.883V27.7991V27.7151V27.6311V27.5471V27.4631V27.3791V27.2951V27.2112V27.1272V27.0432V26.9592V26.8752V26.7912V26.7073V26.6233V26.5393V26.4553V26.3713V26.2873V26.2033V26.1194V26.0354V25.9514V25.8674V25.7834V25.6994V25.6155V25.5315V25.4475V25.3635V25.2795V25.1955V25.1116V25.0276V24.9436V24.8596V24.7756V24.6916V24.6076V24.5237V24.4397V24.3557V24.2717V24.1877V24.1037V24.0198V23.9358V23.8518V23.7678V23.6838V23.5998V23.5158V23.4319V23.3479V23.2639V23.1799V23.0959V23.0119V22.928V22.844V22.76V22.676V22.592V22.508V22.4241V22.3401V22.2561V22.1721V22.0881V22.0041V21.9201V21.8362V21.7522V21.6682V21.5842V21.5002V21.4162V21.3323V21.2483V21.1643V21.0803V20.9963V20.9123V20.8283V20.7444V20.6604V20.5764V20.4924V20.4084V20.3244V20.2405V20.1565V20.0725V19.9885V19.9045V19.8205V19.7366V19.6526V19.5686V19.4846V19.4006V19.3166V19.2326L17.9219 19.1489H17.9942H18.0664H18.1387H18.211H18.2832H18.3555H18.4278H18.5H18.5723H18.6445H18.7168H18.7891H18.8613H18.9336H19.0059H19.0781H19.1504H19.2227H19.2949H19.3672H19.4395H19.5117H19.584H19.6563H19.7285H19.8008H19.8731H19.9453H20.0176H20.0899H20.1621H20.2344H20.3067H20.3789H20.4512H20.5235H20.5957H20.668H20.7403H20.8125H20.8848H20.957H21.0293H21.1016H21.1738H21.2461H21.3184H21.3906H21.4629H21.5352H21.6074H21.6797H21.752H21.8242H21.8965H21.9688H22.041H22.1133H22.1856H22.2578H22.3301H22.4024H22.4746H22.5469H22.6192H22.6914H22.7637H22.836H22.9082H22.9805H23.0528H23.125H23.1973H23.2695H23.3418H23.4141H23.4863H23.5586H23.6309H23.7031H23.7754H23.8477H23.9199H23.9922H24.0645H24.1367H24.209H24.2813H24.3535H24.4258H24.4981H24.5703H24.6426H24.7149H24.7871H24.8594H24.9317H25.0039H25.0762H25.1485H25.2207H25.293H25.3653H25.4375H25.5098H25.582H25.6543H25.7266H25.7988H25.8711H25.9434H26.0156H26.0879H26.1602H26.2324H26.3047H26.377H26.4492H26.5215H26.5938H26.666H26.7383H26.8106H26.8828H26.9551H27.0274H27.0996H27.1719H27.2442H27.3164H27.3887H27.461H27.5332H27.6055H27.6778H27.75H27.8223H27.8945H27.9668H28.0391H28.1113H28.1836H28.2559H28.3281H28.4004H28.4727H28.5449H28.6172H28.6895H28.7617H28.834H28.9063H28.9785H29.0508H29.1231H29.1953H29.2676H29.3399H29.4121H29.4844H29.5567H29.6289H29.7012H29.7735H29.8457H29.918H29.9903H30.0625H30.1348H30.207H30.2793H30.3516H30.4238H30.4961H30.5684H30.6406H30.7129H30.7852H30.8574H30.9297H31.002H31.0742H31.1465H31.2188H31.291H31.3633H31.4356H31.5078H31.5801H31.6524H31.7246H31.7969H31.8692H31.9414H32.0137H32.086H32.1582H32.2305H32.3028H32.375H32.4473H32.5195H32.5918H32.6641H32.7363H32.8086H32.8809H32.9531H33.0254H33.0977H33.1699H33.2422H33.3145H33.3867H33.459H33.5313H33.6035H33.6758H33.7481H33.8203H33.8926H33.9649H34.0371H34.1094H34.1817H34.2539H34.3262H34.3985H34.4707H34.543H34.6153H34.6875H34.7598H34.832H34.9043H34.9766H35.0488H35.1211H35.1934H35.2656H35.3379H35.4102H35.4824H35.5547H35.627H35.6992H35.7715H35.8438H35.916H35.9883H36.0606H36.1328H36.2051H36.2774H36.3496H36.4219H36.4942H36.5664H36.6387H36.711H36.7832H36.8555H36.9278H37H37.0723H37.1445H37.2168H37.2891H37.3613H37.4336H37.5059H37.5781H37.6504H37.7227H37.7949H37.8672H37.9395H38.0117H38.084H38.1563H38.2285H38.3008H38.3731H38.4453H38.5176H38.5899H38.6621H38.7344H38.8067H38.8789H38.9512H39.0235H39.0957H39.168H39.2403H39.3125H39.3848H39.457H39.5293H39.6016H39.6738H39.7461H39.8184H39.8906H39.9629H40.0352H40.1074H40.1797H40.252H40.3242H40.3965H40.4688H40.541H40.6133H40.6856H40.7578H40.8301H40.9024H40.9746H41.0469H41.1192H41.1914H41.2637H41.336H41.4082H41.4805H41.5528H41.625H41.6973H41.7695H41.8418H41.9141H41.9863H42.0586H42.1309H42.2031H42.2754H42.3477H42.4199H42.4922H42.5645H42.6367H42.709H42.7813H42.8535H42.9258H42.9981H43.0703H43.1426H43.2149H43.2871H43.3594H43.4317H43.5039H43.5762H43.6485H43.7207H43.793H43.8653H43.9375H44.0098H44.082H44.1543H44.2266H44.2988H44.3711H44.4434H44.5156L44.5877 19.2326L44.5879 19.2329L44.6599 19.3166L44.6602 19.3169L44.7322 19.4006L44.7324 19.4009L44.8045 19.4846L44.8047 19.4849L44.8767 19.5686L44.877 19.5688L44.949 19.6526L44.9492 19.6528L45.0213 19.7366L45.0215 19.7368L45.0935 19.8205L45.0938 19.8208L45.1658 19.9045L45.166 19.9048L45.2381 19.9885L45.2383 19.9888L45.3103 20.0725L45.3106 20.0728L45.3826 20.1565L45.3828 20.1567L45.4549 20.2405L45.4551 20.2407L45.5271 20.3244L45.5274 20.3247L45.5994 20.4084L45.5996 20.4087L45.6717 20.4924L45.6719 20.4927L45.7439 20.5764L45.7442 20.5767L45.8162 20.6604L45.8164 20.6606L45.8885 20.7444L45.8887 20.7446L45.9607 20.8283L45.961 20.8286L46.033 20.9123L46.0332 20.9126L46.1053 20.9963L46.1055 20.9966L46.1775 21.0803L46.1778 21.0806H46.25L46.3221 21.1643L46.3223 21.1646L46.3943 21.2483V21.3323L46.3945 21.3325L46.4666 21.4162L46.4668 21.4165L46.5389 21.5002L46.5391 21.5005L46.6111 21.5842L46.6113 21.5845L46.6834 21.6682L46.6836 21.6685L46.7557 21.7522L46.7559 21.7524L46.8279 21.8362L46.8281 21.8364L46.9002 21.9201L46.9004 21.9204L46.9724 22.0041L46.9727 22.0044L47.0447 22.0881L47.0449 22.0884L47.117 22.1721L47.1172 22.1724L47.1892 22.2561L47.1895 22.2563L47.2615 22.3401L47.2617 22.3403L47.3338 22.4241L47.334 22.4243L47.406 22.508L47.4063 22.5083L47.4783 22.592L47.4785 22.5923L47.5506 22.676L47.5508 22.6763L47.6228 22.76L47.6231 22.7603L47.6951 22.844L47.6953 22.8442L47.7674 22.928L47.7676 22.9282L47.8396 23.0119L47.8399 23.0122L47.9119 23.0959L47.9121 23.0962L47.9842 23.1799L47.9844 23.1802L48.0564 23.2639L48.0567 23.2642L48.1287 23.3479L48.1289 23.3481L48.201 23.4319L48.2012 23.4321L48.2732 23.5158L48.2735 23.5161L48.3455 23.5998L48.3457 23.6001L48.4178 23.6838L48.418 23.6841L48.49 23.7678L48.4903 23.7681L48.5623 23.8518L48.5625 23.8521L48.6346 23.9358L48.6348 23.936L48.7068 24.0198L48.707 24.02L48.7791 24.1037L48.7793 24.104L48.8514 24.1877L48.8516 24.188L48.9236 24.2717L48.9238 24.272L48.9959 24.3557L48.9961 24.356L49.0682 24.4397L49.0684 24.4399L49.1404 24.5237L49.1406 24.5239H49.2129L49.2849 24.6076L49.2852 24.6079L49.3572 24.6916L49.3574 24.6919L49.4295 24.7756V24.8596L49.4297 24.8599L49.5017 24.9436L49.502 24.9438L49.574 25.0276L49.5742 25.0278L49.6463 25.1116L49.6465 25.1118L49.7185 25.1955L49.7188 25.1958H49.791L49.8631 25.2795V25.3635L49.8633 25.3638L49.9353 25.4475L49.9356 25.4478L50.0076 25.5315L50.0078 25.5317L50.0799 25.6155L50.0801 25.6157L50.1521 25.6994L50.1524 25.6997L50.2244 25.7834L50.2246 25.7837L50.2967 25.8674L50.2969 25.8677L50.3689 25.9514L50.3692 25.9517L50.4412 26.0354L50.4414 26.0356L50.5135 26.1194L50.5137 26.1196L50.5857 26.2033L50.586 26.2036L50.658 26.2873L50.6582 26.2876L50.7303 26.3713L50.7305 26.3716L50.8025 26.4553L50.8027 26.4556L50.8748 26.5393L50.875 26.5396L50.9471 26.6233L50.9473 26.6235L51.0193 26.7073L51.0195 26.7075L51.0916 26.7912L51.0918 26.7915L51.1639 26.8752L51.1641 26.8755L51.2361 26.9592L51.2363 26.9595L51.3084 27.0432L51.3086 27.0435L51.3806 27.1272L51.3809 27.1274L51.4529 27.2112L51.4531 27.2114L51.5252 27.2951L51.5254 27.2954L51.5974 27.3791L51.5977 27.3794L51.6697 27.4631L51.6699 27.4634L51.742 27.5471L51.7422 27.5474L51.8142 27.6311L51.8145 27.6313L51.8865 27.7151L51.8867 27.7153L51.9588 27.7991L51.959 27.7993L52.031 27.883L52.0313 27.8833L52.1033 27.967L52.1035 27.9673L52.1756 28.051L52.1758 28.0513L52.2478 28.135L52.2481 28.1353L52.3201 28.219L52.3203 28.2192L52.3924 28.303L52.3926 28.3032L52.4646 28.3869L52.4649 28.3872L52.5369 28.4709L52.5371 28.4712H52.6094L52.6814 28.5549V28.6389L52.6817 28.6392H52.7539L52.826 28.7229V28.8069L52.8262 28.8071L52.8982 28.8908L52.8985 28.8911L52.9705 28.9748L52.9707 28.9751L53.0428 29.0588L53.043 29.0591L53.115 29.1428L53.1152 29.1431L53.1873 29.2268L53.1875 29.2271L53.2596 29.3108L53.2598 29.311L53.3318 29.3948L53.332 29.395L53.4041 29.4787L53.4043 29.479L53.4764 29.5627L53.4766 29.563L53.5486 29.6467L53.5488 29.647L53.6209 29.7307L53.6211 29.731L53.6931 29.8147L53.6934 29.8149L53.7654 29.8987L53.7656 29.8989L53.8377 29.9826L53.8379 29.9829L53.9099 30.0666L53.9102 30.0669L53.9822 30.1506V30.2346V30.3186V30.4026V30.4866V30.5705V30.6545V30.7385V30.8225V30.9065V30.9905V31.0744V31.1584V31.2424V31.3264V31.4104V31.4944V31.5783V31.6623V31.7463V31.8303V31.9143V31.9983V32.0823V32.1662V32.2502L53.9824 32.2505L54.0545 32.3342V32.4182V32.5022V32.5862V32.6701V32.7541V32.8381V32.9221V33.0061V33.0901V33.1741V33.258V33.342V33.426V33.51V33.594V33.678V33.7619V33.8459V33.9299V34.0139V34.0979V34.1819V34.2658V34.3498V34.4338V34.5178V34.6018V34.6858V34.7698V34.8537V34.9377V35.0217V35.1057V35.1897V35.2737V35.3576V35.4416V35.5256V35.6096V35.6936V35.7776V35.8616V35.9455V36.0295V36.1135V36.1975L53.9824 36.2812L53.9822 36.2815L53.9102 36.3652L53.9099 36.3655L53.8379 36.4492L53.8377 36.4494L53.7656 36.5332L53.7654 36.5334L53.6934 36.6171L53.6931 36.6174L53.6211 36.7011L53.6209 36.7014L53.5488 36.7851L53.5486 36.7854L53.4766 36.8691L53.4764 36.8694L53.4043 36.9531L53.4041 36.9534L53.332 37.0371L53.3318 37.0373L53.2598 37.1211L53.2596 37.1213L53.1875 37.205L53.1873 37.2053L53.1152 37.289L53.115 37.2893V37.3733L53.043 37.457L53.0428 37.4573L52.9707 37.541L52.9705 37.5412L52.8985 37.625L52.8982 37.6252L52.8262 37.7089L52.826 37.7092L52.7539 37.7929L52.7537 37.7932L52.6817 37.8769L52.6814 37.8772L52.6094 37.9609H52.5371L52.5369 37.9612V38.0451L52.4649 38.1289H52.3926L52.3924 38.1291L52.3203 38.2129L52.3201 38.2131L52.2481 38.2968L52.2478 38.2971V38.3811L52.1758 38.4648H52.1035L52.1033 38.4651L52.0313 38.5488L52.031 38.5491V38.633L51.959 38.7168L51.9588 38.717L51.8867 38.8007L51.8865 38.801L51.8145 38.8847H51.7422L51.742 38.885V38.969L51.6699 39.0527L51.6697 39.053L51.5977 39.1367H51.5254L51.5252 39.1369V39.2209L51.4531 39.3046L51.4529 39.3049L51.3809 39.3886L51.3806 39.3889L51.3086 39.4726L51.3084 39.4729L51.2363 39.5566L51.2361 39.5569L51.1641 39.6406L51.1639 39.6409L51.0918 39.7246L51.0916 39.7248L51.0195 39.8086L51.0193 39.8088L50.9473 39.8925L50.9471 39.8928L50.875 39.9765L50.8748 39.9768L50.8027 40.0605L50.8025 40.0608L50.7305 40.1445L50.7303 40.1448L50.6582 40.2285L50.658 40.2287L50.586 40.3125L50.5857 40.3127L50.5137 40.3964L50.5135 40.3967L50.4414 40.4804L50.4412 40.4807L50.3692 40.5644L50.3689 40.5647L50.2969 40.6484L50.2967 40.6487L50.2246 40.7324L50.2244 40.7326L50.1524 40.8164L50.1521 40.8166L50.0801 40.9004L50.0799 40.9006L50.0078 40.9843L50.0076 40.9846L49.9356 41.0683L49.9353 41.0686L49.8633 41.1523L49.8631 41.1526L49.791 41.2363L49.7908 41.2366L49.7188 41.3203L49.7185 41.3205L49.6465 41.4043L49.6463 41.4045L49.5742 41.4882L49.574 41.4885L49.502 41.5722L49.5017 41.5725L49.4297 41.6562L49.4295 41.6565L49.3574 41.7402L49.3572 41.7405L49.2852 41.8242L49.2849 41.8244L49.2129 41.9082L49.2127 41.9084L49.1406 41.9921L49.1404 41.9924L49.0684 42.0761L49.0682 42.0764L48.9961 42.1601L48.9959 42.1604L48.9238 42.2441L48.9236 42.2444L48.8516 42.3281L48.8514 42.3284L48.7793 42.4121L48.7791 42.4123L48.707 42.4961L48.7068 42.4963L48.6348 42.58L48.6346 42.5803L48.5625 42.664L48.5623 42.6643L48.4903 42.748L48.49 42.7483L48.418 42.832L48.4178 42.8323L48.3457 42.916L48.3455 42.9162L48.2735 43L48.2732 43.0002L48.2012 43.0839L48.201 43.0842L48.1289 43.1679L48.1287 43.1682L48.0567 43.2519L48.0564 43.2522L47.9844 43.3359L47.9842 43.3362L47.9121 43.4199L47.9119 43.4201L47.8399 43.5039L47.8396 43.5041L47.7676 43.5879L47.7674 43.5881L47.6953 43.6718L47.6951 43.6721L47.6231 43.7558L47.6228 43.7561L47.5508 43.8398L47.5506 43.8401L47.4785 43.9238H47.4063L47.406 43.9241L47.334 44.0078L47.3338 44.008V44.092L47.2617 44.1757H47.1895L47.1892 44.176V44.26L47.1172 44.3437H47.0449L47.0447 44.344L46.9727 44.4277L46.9724 44.428L46.9004 44.5117L46.9002 44.5119L46.8281 44.5957L46.8279 44.5959L46.7559 44.6797L46.7557 44.6799V44.7639L46.6836 44.8476L46.6834 44.8479L46.6113 44.9316H46.5391L46.5389 44.9319L46.4668 45.0156L46.4666 45.0159L46.3945 45.0996L46.3943 45.0998L46.3223 45.1836L46.3221 45.1838L46.25 45.2675L46.2498 45.2678L46.1778 45.3515L46.1775 45.3518V45.4358L46.1055 45.5195H46.0332L46.033 45.5198L45.961 45.6035L45.9607 45.6037L45.8887 45.6875L45.8885 45.6877L45.8887 45.688L45.9607 45.7717L45.961 45.772L46.033 45.8557L46.0332 45.856L46.1053 45.9397L46.1055 45.9399L46.1775 46.0237V46.1076L46.1778 46.1079L46.2498 46.1916L46.25 46.1919L46.3221 46.2756L46.3223 46.2759L46.3943 46.3596V46.4436L46.3945 46.4438L46.4666 46.5276L46.4668 46.5278L46.5389 46.6116L46.5391 46.6118L46.6111 46.6955L46.6113 46.6958L46.6834 46.7795V46.8635L46.6836 46.8638L46.7557 46.9475L46.7559 46.9478L46.8279 47.0315L46.8281 47.0317L46.9002 47.1155V47.1994L46.9004 47.1997L46.9724 47.2834L46.9727 47.2837L47.0447 47.3674L47.0449 47.3677L47.117 47.4514L47.1172 47.4517L47.1892 47.5354V47.6194L47.1895 47.6196L47.2615 47.7034L47.2617 47.7036L47.3338 47.7873L47.334 47.7876L47.406 47.8713V47.9553L47.4063 47.9556L47.4783 48.0393L47.4785 48.0395L47.5506 48.1233L47.5508 48.1235L47.6228 48.2073L47.6231 48.2075L47.6951 48.2912V48.3752L47.6953 48.3755L47.7674 48.4592L47.7676 48.4595L47.8396 48.5432L47.8399 48.5435L47.9119 48.6272L47.9121 48.6274L47.9842 48.7112V48.7951L47.9844 48.7954L48.0564 48.8791L48.0567 48.8794L48.1287 48.9631L48.1289 48.9634L48.201 49.0471L48.2012 49.0474L48.2732 49.1311V49.2151L48.2735 49.2153L48.3455 49.2991L48.3457 49.2993L48.4178 49.383L48.418 49.3833L48.49 49.467V49.551L48.4903 49.5513L48.5623 49.635L48.5625 49.6353L48.6346 49.719L48.6348 49.7192L48.7068 49.803L48.707 49.8032L48.7791 49.8869V49.9709L48.7793 49.9712L48.8514 50.0549L48.8516 50.0552L48.9236 50.1389L48.9238 50.1392L48.9959 50.2229L48.9961 50.2231L49.0682 50.3069V50.3909L49.0684 50.3911L49.1404 50.4748L49.1406 50.4751L49.2127 50.5588L49.2129 50.5591L49.2849 50.6428L49.2852 50.6431L49.3572 50.7268V50.8108L49.3574 50.811L49.4295 50.8948L49.4297 50.895L49.5017 50.9787L49.502 50.979L49.574 51.0627V51.1467L49.5742 51.147L49.6463 51.2307L49.6465 51.231L49.7185 51.3147L49.7188 51.3149L49.7908 51.3987L49.791 51.3989L49.8631 51.4826V51.5666L49.8633 51.5669L49.9353 51.6506L49.9356 51.6509L50.0076 51.7346L50.0078 51.7349L50.0799 51.8186L50.0801 51.8188L50.1521 51.9026V51.9866L50.1524 51.9868L50.2244 52.0705L50.2246 52.0708L50.2967 52.1545L50.2969 52.1548L50.3689 52.2385L50.3692 52.2388L50.4412 52.3225V52.4065L50.4414 52.4067L50.5135 52.4905L50.5137 52.4907L50.5857 52.5744L50.586 52.5747L50.658 52.6584V52.7424L50.6582 52.7427L50.7303 52.8264L50.7305 52.8267L50.8025 52.9104L50.8027 52.9106L50.8748 52.9944L50.875 52.9946L50.9471 53.0784V53.1623L50.9473 53.1626L51.0193 53.2463L51.0195 53.2466L51.0916 53.3303L51.0918 53.3306L51.1639 53.4143L51.1641 53.4145L51.2361 53.4983V53.5823L51.2363 53.5825L51.3084 53.6662L51.3086 53.6665L51.3806 53.7502L51.3809 53.7505L51.4529 53.8342V53.9182L51.4531 53.9185L51.5252 54.0022L51.5254 54.0024L51.5974 54.0862L51.5977 54.0864L51.6697 54.1701L51.6699 54.1704L51.742 54.2541V54.3381L51.7422 54.3384L51.8142 54.4221L51.8145 54.4224L51.8865 54.5061L51.8867 54.5063L51.9588 54.5901L51.959 54.5903L52.031 54.6741V54.758L52.0313 54.7583L52.1033 54.842L52.1035 54.8423L52.1756 54.926L52.1758 54.9263L52.2478 55.01L52.2481 55.0103L52.3201 55.094V55.178L52.3203 55.1782L52.3924 55.2619L52.3926 55.2622L52.4646 55.3459L52.4649 55.3462L52.5369 55.4299V55.5139L52.5371 55.5142L52.6092 55.5979L52.6094 55.5981L52.6814 55.6819L52.6817 55.6821L52.7537 55.7659L52.7539 55.7661L52.826 55.8498V55.9338L52.8262 55.9341L52.8982 56.0178L52.8985 56.0181L52.9705 56.1018L52.9707 56.102L53.0428 56.1858L53.043 56.186L53.115 56.2698V56.3537L53.1152 56.354L53.1873 56.4377L53.1875 56.438L53.2596 56.5217L53.2598 56.522L53.3318 56.6057L53.332 56.606L53.4041 56.6897V56.7737L53.4043 56.7739L53.4764 56.8576L53.4766 56.8579L53.5486 56.9416L53.5488 56.9419L53.6209 57.0256V57.1096L53.6211 57.1099L53.6931 57.1936L53.6934 57.1938L53.7654 57.2776L53.7656 57.2778L53.8377 57.3616L53.8379 57.3618L53.9099 57.4455V57.5295L53.9102 57.5298L53.9822 57.6135L53.9824 57.6138L54.0545 57.6975L54.0547 57.6978L54.1267 57.7815L54.127 57.7817L54.199 57.8655L54.1992 57.8657L54.2713 57.9494V58.0334L54.2715 58.0337L54.3435 58.1174L54.3438 58.1177L54.4158 58.2014L54.416 58.2017L54.4881 58.2854V58.3694L54.4883 58.3696L54.5603 58.4534L54.5606 58.4536L54.6326 58.5373L54.6328 58.5376L54.7049 58.6213L54.7051 58.6216L54.7771 58.7053V58.7893L54.7774 58.7895L54.8494 58.8733L54.8496 58.8735L54.9217 58.9573L54.9219 58.9575L54.9939 59.0412L54.9942 59.0415L55.0662 59.1252V59.2092L55.0664 59.2095L55.1385 59.2932L55.1387 59.2935L55.2107 59.3772L55.211 59.3774L55.283 59.4612V59.5451L55.2832 59.5454L55.3553 59.6291L55.3555 59.6294L55.4275 59.7131L55.4277 59.7134L55.4998 59.7971L55.5 59.7974L55.5721 59.8811V59.9651L55.5723 59.9653L55.6443 60.0491L55.6445 60.0493L55.7166 60.133L55.7168 60.1333L55.7889 60.217L55.7891 60.2173L55.8611 60.301V60.385L55.8613 60.3853L55.9334 60.469L55.9336 60.4692L56.0057 60.553L56.0059 60.5532L56.0779 60.6369V60.7209L56.0781 60.7212L56.1502 60.8049L56.1504 60.8052L56.2225 60.8889L56.2227 60.8892L56.2947 60.9729L56.2949 60.9731L56.367 61.0569V61.1409L56.3672 61.1411L56.4392 61.2248L56.4395 61.2251L56.5115 61.3088L56.5117 61.3091L56.5838 61.3928L56.584 61.3931L56.656 61.4768V61.5608L56.6563 61.561L56.7283 61.6448L56.7285 61.645L56.8006 61.7287L56.8008 61.729L56.8728 61.8127L56.8731 61.813L56.9451 61.8967V61.9807L56.9453 61.981L57.0174 62.0647L57.0176 62.0649L57.0896 62.1487L57.0899 62.1489L57.1619 62.2326V62.3166L57.1621 62.3169L57.2342 62.4006L57.2344 62.4009L57.3064 62.4846L57.3067 62.4849L57.3787 62.5686L57.3789 62.5688L57.451 62.6526V62.7365L57.4512 62.7368L57.5232 62.8205L57.5235 62.8208L57.5955 62.9045L57.5957 62.9048L57.6678 62.9885L57.668 62.9888L57.74 63.0725V63.1565L57.7402 63.1567L57.8123 63.2405L57.8125 63.2407L57.8846 63.3244L57.8848 63.3247L57.9568 63.4084L57.957 63.4087L58.0291 63.4924V63.5764L58.0293 63.5767L58.1014 63.6604L58.1016 63.6606L58.1736 63.7444L58.1738 63.7446L58.2459 63.8283L58.2461 63.8286L58.3182 63.9123V63.9963L58.3184 63.9966L58.3904 64.0803L58.3906 64.0806L58.4627 64.1643L58.4629 64.1646L58.535 64.2483V64.3323L58.5352 64.3325L58.6072 64.4162L58.6074 64.4165L58.6795 64.5002L58.6797 64.5005L58.7517 64.5842V64.6682L58.6797 64.7519H58.6074H58.5352H58.4629H58.3906H58.3184H58.2461H58.1738H58.1016H58.0293H57.957H57.8848H57.8125H57.7402H57.668H57.5957H57.5235H57.4512H57.3789H57.3067H57.2344H57.1621H57.0899H57.0176H56.9453H56.8731H56.8008H56.7285H56.6563H56.584H56.5117H56.4395H56.3672H56.2949H56.2227H56.1504H56.0781H56.0059H55.9336H55.8613H55.7891H55.7168H55.6445H55.5723H55.5H55.4277H55.3555H55.2832H55.211H55.1387H55.0664H54.9942H54.9219H54.8496H54.7774H54.7051H54.6328H54.5606H54.4883H54.416H54.3438H54.2715H54.1992H54.127H54.0547H53.9824H53.9102H53.8379H53.7656H53.6934H53.6211H53.5488H53.4766H53.4043H53.332H53.2598H53.1875H53.1152H53.043H52.9707H52.8985H52.8262H52.7539H52.6817H52.6094H52.5371H52.4649H52.3926H52.3203H52.2481H52.1758H52.1035H52.0313H51.959H51.8867H51.8145H51.7422H51.6699H51.5977H51.5254H51.4531H51.3809H51.3086H51.2363H51.1641H51.0918H51.0195H50.9473H50.875H50.8027H50.7305H50.6582H50.586H50.5137H50.4414H50.3692H50.2969H50.2246H50.1524H50.0801H50.0078H49.9356H49.8633H49.791H49.7188H49.6465H49.5742H49.502H49.4297H49.3574H49.2852H49.2129H49.1406H49.0684L48.9963 64.6682L48.9961 64.6679L48.9241 64.5842L48.9238 64.584L48.8518 64.5002V64.4162L48.8516 64.416L48.7795 64.3323L48.7793 64.332L48.7073 64.2483L48.707 64.248L48.635 64.1643L48.6348 64.164L48.5627 64.0803V63.9963L48.5625 63.9961L48.4905 63.9123L48.4903 63.9121L48.4182 63.8283L48.418 63.8281L48.3459 63.7444L48.3457 63.7441L48.2737 63.6604V63.5764L48.2735 63.5761L48.2014 63.4924L48.2012 63.4922L48.1291 63.4084L48.1289 63.4082L48.0569 63.3244L48.0567 63.3242L47.9846 63.2405L47.9844 63.2402L47.9124 63.1565V63.0725L47.9121 63.0722L47.8401 62.9885L47.8399 62.9882L47.7678 62.9045L47.7676 62.9043L47.6956 62.8205L47.6953 62.8203L47.6233 62.7365V62.6526L47.6231 62.6523L47.551 62.5686L47.5508 62.5683L47.4788 62.4846L47.4785 62.4843L47.4065 62.4006L47.4063 62.4004L47.3342 62.3166V62.2326L47.334 62.2324L47.262 62.1487L47.2617 62.1484L47.1897 62.0647L47.1895 62.0644L47.1174 61.9807L47.1172 61.9804L47.0452 61.8967L47.0449 61.8964L46.9729 61.8127V61.7287L46.9727 61.7285L46.9006 61.6448L46.9004 61.6445L46.8284 61.5608L46.8281 61.5605L46.7561 61.4768L46.7559 61.4765L46.6838 61.3928V61.3088L46.6836 61.3086L46.6116 61.2248L46.6113 61.2246L46.5393 61.1409L46.5391 61.1406L46.467 61.0569L46.4668 61.0566L46.3948 60.9729L46.3945 60.9726L46.3225 60.8889V60.8049L46.3223 60.8046L46.2502 60.7209L46.25 60.7207L46.178 60.6369L46.1778 60.6367L46.1057 60.553L46.1055 60.5527L46.0334 60.469L46.0332 60.4687L45.9612 60.385V60.301L45.961 60.3007L45.8889 60.217L45.8887 60.2168L45.8166 60.133L45.8164 60.1328L45.7444 60.0491L45.7442 60.0488L45.6721 59.9651V59.8811L45.6719 59.8808L45.5999 59.7971L45.5996 59.7968L45.5276 59.7131L45.5274 59.7129L45.4553 59.6291L45.4551 59.6289L45.3831 59.5451L45.3828 59.5449L45.3108 59.4612V59.3772L45.3106 59.3769L45.2385 59.2932L45.2383 59.2929L45.1663 59.2092L45.166 59.2089L45.094 59.1252V59.0412L45.0938 59.041L45.0217 58.9573L45.0215 58.957L44.9495 58.8733L44.9492 58.873L44.8772 58.7893L44.877 58.789L44.8049 58.7053L44.8047 58.705L44.7327 58.6213V58.5373L44.7324 58.5371L44.6604 58.4534L44.6602 58.4531L44.5881 58.3694L44.5879 58.3691L44.5159 58.2854L44.5156 58.2851L44.4436 58.2014L44.4434 58.2011L44.3713 58.1174V58.0334L44.3711 58.0332L44.2991 57.9494L44.2988 57.9492L44.2268 57.8655L44.2266 57.8652L44.1545 57.7815L44.1543 57.7812L44.0823 57.6975V57.6135L44.082 57.6132L44.01 57.5295L44.0098 57.5293L43.9377 57.4455L43.9375 57.4453L43.8655 57.3616L43.8653 57.3613L43.7932 57.2776L43.793 57.2773L43.7209 57.1936V57.1096L43.7207 57.1093L43.6487 57.0256L43.6485 57.0254L43.5764 56.9416L43.5762 56.9414L43.5041 56.8576L43.5039 56.8574L43.4319 56.7737L43.4317 56.7734L43.3596 56.6897V56.6057L43.3594 56.6054L43.2874 56.5217L43.2871 56.5214L43.2151 56.4377L43.2149 56.4375L43.1428 56.3537L43.1426 56.3535L43.0706 56.2698V56.1858L43.0703 56.1855L42.9983 56.1018L42.9981 56.1015L42.926 56.0178L42.9258 56.0175L42.8538 55.9338L42.8535 55.9336L42.7815 55.8498L42.7813 55.8496L42.7092 55.7659V55.6819L42.709 55.6816L42.637 55.5979L42.6367 55.5976L42.5647 55.5139L42.5645 55.5136L42.4924 55.4299L42.4922 55.4296L42.4202 55.3459V55.2619L42.4199 55.2617L42.3479 55.178L42.3477 55.1777L42.2756 55.094L42.2754 55.0937L42.2034 55.01L42.2031 55.0097L42.1311 54.926L42.1309 54.9257L42.0588 54.842V54.758L42.0586 54.7578L41.9866 54.6741L41.9863 54.6738L41.9143 54.5901L41.9141 54.5898L41.842 54.5061L41.8418 54.5058L41.7698 54.4221V54.3381L41.7695 54.3379L41.6975 54.2541L41.6973 54.2539L41.6252 54.1701L41.625 54.1699L41.553 54.0862L41.5528 54.0859L41.4807 54.0022L41.4805 54.0019L41.4084 53.9182V53.8342L41.4082 53.8339L41.3362 53.7502L41.336 53.75L41.2639 53.6662L41.2637 53.666L41.1916 53.5823L41.1914 53.582L41.1194 53.4983V53.4143L41.1192 53.414L41.0471 53.3303L41.0469 53.33L40.9749 53.2463L40.9746 53.2461L40.9026 53.1623L40.9024 53.1621L40.8303 53.0784L40.8301 53.0781L40.7581 52.9944V52.9104L40.7578 52.9101L40.6858 52.8264L40.6856 52.8261L40.6135 52.7424L40.6133 52.7421L40.5413 52.6584L40.541 52.6582L40.469 52.5744V52.4905L40.4688 52.4902L40.3967 52.4065L40.3965 52.4062L40.3245 52.3225L40.3242 52.3222L40.2522 52.2385L40.252 52.2382L40.1799 52.1545L40.1797 52.1543L40.1077 52.0705V51.9866L40.1074 51.9863L40.0354 51.9026L40.0352 51.9023L39.9631 51.8186L39.9629 51.8183L39.8909 51.7346L39.8906 51.7343L39.8186 51.6506L39.8184 51.6504L39.7463 51.5666V51.4826L39.7461 51.4824L39.6741 51.3987L39.6738 51.3984L39.6018 51.3147L39.6016 51.3144L39.5295 51.2307L39.5293 51.2304L39.4573 51.1467L39.457 51.1464L39.385 51.0627V50.9787L39.3848 50.9785L39.3127 50.8948L39.3125 50.8945L39.2405 50.8108L39.2403 50.8105L39.1682 50.7268L39.168 50.7265L39.0959 50.6428V50.5588L39.0957 50.5586L39.0237 50.4748L39.0235 50.4746L38.9514 50.3909L38.9512 50.3906L38.8791 50.3069L38.8789 50.3066L38.8069 50.2229V50.1389L38.8067 50.1386L38.7346 50.0549L38.7344 50.0547L38.6624 49.9709L38.6621 49.9707L38.5901 49.8869L38.5899 49.8867L38.5178 49.803L38.5176 49.8027L38.4456 49.719V49.635L38.4453 49.6347L38.3733 49.551L38.3731 49.5507L38.301 49.467L38.3008 49.4668L38.2288 49.383L38.2285 49.3828L38.1565 49.2991V49.2151L38.1563 49.2148L38.0842 49.1311L38.084 49.1308L38.012 49.0471L38.0117 49.0468L37.9397 48.9631L37.9395 48.9629L37.8674 48.8791L37.8672 48.8789L37.7952 48.7951V48.7112L37.7949 48.7109L37.7229 48.6272L37.7227 48.6269L37.6506 48.5432L37.6504 48.5429L37.5784 48.4592L37.5781 48.4589L37.5061 48.3752L37.5059 48.375L37.4338 48.2912V48.2073L37.4336 48.207L37.3616 48.1233L37.3613 48.123L37.2893 48.0393L37.2891 48.039L37.217 47.9553L37.2168 47.955L37.1448 47.8713L37.1445 47.8711L37.0725 47.7873V47.7034L37.0723 47.7031L37.0002 47.6194L37 47.6191L36.928 47.5354L36.9278 47.5351L36.8557 47.4514L36.8555 47.4511L36.7834 47.3674V47.2834L36.7832 47.2832L36.7112 47.1994L36.711 47.1992L36.6389 47.1155L36.6387 47.1152L36.5667 47.0315L36.5664 47.0312L36.4944 46.9475L36.4942 46.9472L36.4221 46.8635V46.7795L36.4219 46.7793L36.3499 46.6955L36.3496 46.6953L36.2776 46.6116L36.2774 46.6113L36.2053 46.5276L36.2051 46.5273L36.1331 46.4436L36.1328 46.4433L36.0608 46.3596V46.2756L36.0606 46.2754L35.9885 46.1916L35.9883 46.1914L35.9163 46.1076L35.916 46.1074L35.844 46.0237L35.8438 46.0234L35.7717 45.9397V45.8557L35.7715 45.8554L35.6995 45.7717L35.6992 45.7714L35.6272 45.6877L35.627 45.6875L35.5549 45.6037L35.5547 45.6035L35.4827 45.5198V45.4358L35.4824 45.4355L35.4104 45.3518L35.4102 45.3515L35.3381 45.2678L35.3379 45.2675L35.2659 45.1838L35.2656 45.1836L35.1936 45.0998L35.1934 45.0996L35.1213 45.0159V44.9319L35.1211 44.9316L35.0491 44.8479L35.0488 44.8476L34.9768 44.7639L34.9766 44.7636L34.9045 44.6799L34.9043 44.6797L34.8323 44.5959L34.832 44.5957L34.76 44.5119V44.428L34.7598 44.4277L34.6877 44.344L34.6875 44.3437L34.6155 44.26L34.6153 44.2597L34.5432 44.176L34.543 44.1757L34.4709 44.092V44.008L34.4707 44.0078L34.3987 43.9241L34.3985 43.9238L34.3264 43.8401L34.3262 43.8398L34.2542 43.7561L34.2539 43.7558L34.1819 43.6721L34.1817 43.6718L34.1096 43.5881V43.5041L34.1094 43.5039L34.0374 43.4201L34.0371 43.4199L33.9651 43.3362L33.9649 43.3359L33.8928 43.2522L33.8926 43.2519L33.8206 43.1682L33.8203 43.1679L33.7483 43.0842V43.0002L33.7481 43L33.676 42.9162L33.6758 42.916L33.6038 42.8323L33.6035 42.832L33.5315 42.7483L33.5313 42.748L33.4592 42.6643V42.5803L33.459 42.58L33.387 42.4963L33.3867 42.4961L33.3147 42.4123L33.3145 42.4121L33.2424 42.3284L33.2422 42.3281L33.1702 42.2444L33.1699 42.2441L33.0979 42.1604V42.0764L33.0977 42.0761L33.0256 41.9924L33.0254 41.9921L32.9534 41.9084L32.9531 41.9082L32.8811 41.8244L32.8809 41.8242L32.8088 41.7405V41.6565L32.8086 41.6562L32.7366 41.5725L32.7363 41.5722L32.6643 41.4885L32.6641 41.4882L32.592 41.4045L32.5918 41.4043L32.5198 41.3205L32.5195 41.3203L32.4475 41.2366V41.1526L32.4473 41.1523L32.3752 41.0686L32.375 41.0683L32.303 40.9846L32.3028 40.9843L32.2307 40.9006L32.2305 40.9004L32.1584 40.8166V40.7326L32.1582 40.7324L32.0862 40.6487L32.086 40.6484L32.0139 40.5647L32.0137 40.5644L31.9417 40.4807L31.9414 40.4804L31.8694 40.3967L31.8692 40.3964L31.7971 40.3127V40.2287L31.7969 40.2285L31.7249 40.1448L31.7246 40.1445L31.6526 40.0608L31.6524 40.0605L31.5803 39.9768L31.5801 39.9765L31.5081 39.8928V39.8088L31.5078 39.8086L31.4358 39.7248L31.4356 39.7246L31.3635 39.6409L31.3633 39.6406L31.2913 39.5569L31.291 39.5566L31.219 39.4729L31.2188 39.4726L31.1467 39.3889V39.3049L31.1465 39.3046L31.0745 39.2209L31.0742 39.2207L31.0022 39.1369L31.002 39.1367L30.9299 39.053L30.9297 39.0527L30.8577 38.969V38.885L30.8574 38.8847L30.7854 38.801L30.7852 38.8007L30.7131 38.717L30.7129 38.7168L30.6409 38.633L30.6406 38.6328L30.5686 38.5491V38.4651L30.6406 38.3813L30.7127 38.4651L30.7129 38.4653H30.7852H30.8574H30.9297H31.002H31.0742H31.1465H31.2188H31.291H31.3633H31.4356H31.5078H31.5801H31.6524H31.7246H31.7969H31.8692H31.9414H32.0137H32.086H32.1582H32.2305H32.3028H32.375L32.3752 38.4651L32.4473 38.3813L32.5193 38.4651L32.5195 38.4653H32.5918H32.6641H32.7363H32.8086H32.8809H32.9531H33.0254H33.0977H33.1699H33.2422H33.3145H33.3867H33.459H33.5313H33.6035H33.6758H33.7481L33.7483 38.4651L33.8203 38.3813L33.8924 38.4651L33.8926 38.4653H33.9649H34.0371H34.1094H34.1817H34.2539H34.3262H34.3985H34.4707H34.543H34.6153H34.6875H34.7598H34.832H34.9043H34.9766H35.0488H35.1211H35.1934H35.2656H35.3379H35.4102H35.4824H35.5547H35.627H35.6992H35.7715H35.8438H35.916H35.9883H36.0606H36.1328H36.2051H36.2774H36.3496H36.4219H36.4942H36.5664H36.6387H36.711H36.7832H36.8555H36.9278H37H37.0723H37.1445H37.2168H37.2891H37.3613H37.4336H37.5059H37.5781H37.6504H37.7227H37.7949H37.8672H37.9395H38.0117H38.084H38.1563H38.2285H38.3008H38.3731H38.4453H38.5176H38.5899H38.6621H38.7344H38.8067H38.8789H38.9512H39.0235H39.0957H39.168H39.2403H39.3125H39.3848H39.457H39.5293H39.6016H39.6738H39.7461H39.8184H39.8906H39.9629H40.0352H40.1074H40.1797H40.252H40.3242H40.3965H40.4688H40.541H40.6133H40.6856L40.6858 38.4651L40.7578 38.3813L40.7581 38.3811L40.8301 38.2974L40.8303 38.2971L40.9024 38.2134L40.9026 38.2131L40.9746 38.1294L40.9749 38.1291L41.0469 38.0454L41.0471 38.0451L41.1192 37.9614L41.1194 37.9612L41.1914 37.8774L41.1916 37.8772L41.2637 37.7935L41.2639 37.7932L41.336 37.7095L41.3362 37.7092L41.4082 37.6255L41.4084 37.6252L41.4805 37.5415L41.4807 37.5412L41.5528 37.4575L41.553 37.4573L41.625 37.3735L41.6252 37.3733L41.6973 37.2896L41.6975 37.2893L41.7695 37.2056L41.7698 37.2053L41.8418 37.1216L41.842 37.1213L41.9141 37.0376L41.9143 37.0373L41.9863 36.9536L41.9866 36.9534L42.0586 36.8696L42.0588 36.8694L42.1309 36.7856L42.1311 36.7854L42.2031 36.7017L42.2034 36.7014L42.2754 36.6177L42.2756 36.6174L42.3477 36.5337L42.3479 36.5334L42.4199 36.4497L42.4202 36.4494L42.4922 36.3657L42.4924 36.3655L42.5645 36.2817L42.5647 36.2815L42.6367 36.1978L42.637 36.1975L42.709 36.1138L42.7092 36.1135L42.7813 36.0298L42.7815 36.0295L42.8535 35.9458L42.8538 35.9455L42.9258 35.8618L42.926 35.8616L42.9981 35.7778L42.9983 35.7776L43.0703 35.6938L43.0706 35.6936L43.1426 35.6099L43.1428 35.6096L43.2149 35.5259L43.2151 35.5256L43.2871 35.4419L43.2874 35.4416L43.3594 35.3579L43.3596 35.3576L43.4317 35.2739L43.4319 35.2737L43.5039 35.1899L43.5041 35.1897L43.5762 35.106L43.5764 35.1057L43.6485 35.022L43.6487 35.0217L43.7207 34.938L43.7209 34.9377L43.793 34.854L43.7932 34.8537L43.8653 34.77L43.8655 34.7698L43.9375 34.686L43.9377 34.6858L44.0098 34.6021L44.01 34.6018L44.082 34.5181L44.0823 34.5178L44.1543 34.4341L44.1545 34.4338L44.2266 34.3501L44.2268 34.3498L44.2988 34.2661L44.2991 34.2658L44.3711 34.1821L44.3713 34.1819L44.4434 34.0981L44.4436 34.0979L44.5156 34.0142L44.5159 34.0139L44.5879 33.9302L44.5881 33.9299L44.6602 33.8462H44.7324L44.7327 33.8459V33.7619L44.7324 33.7617L44.6604 33.678L44.6602 33.6777L44.5881 33.594L44.5879 33.5937L44.5159 33.51L44.5156 33.5097L44.4436 33.426L44.4434 33.4257L44.3713 33.342L44.3711 33.3418L44.2991 33.258L44.2988 33.2578L44.2268 33.1741L44.2266 33.1738L44.1545 33.0901L44.1543 33.0898L44.0823 33.0061L44.082 33.0058L44.01 32.9221L44.0098 32.9218L43.9377 32.8381L43.9375 32.8379L43.8655 32.7541L43.8653 32.7539L43.7932 32.6701L43.793 32.6699L43.7209 32.5862L43.7207 32.5859L43.6487 32.5022L43.6485 32.5019L43.5764 32.4182L43.5762 32.4179L43.5041 32.3342L43.5039 32.3339L43.4319 32.2502L43.4317 32.25L43.3596 32.1662L43.3594 32.166L43.2874 32.0823L43.2871 32.082L43.2151 31.9983L43.2149 31.998L43.1428 31.9143L43.1426 31.914L43.0706 31.8303L43.0703 31.83L42.9983 31.7463L42.9981 31.7461L42.926 31.6623L42.9258 31.6621L42.8538 31.5783L42.8535 31.5781L42.7815 31.4944L42.7813 31.4941L42.7092 31.4104L42.709 31.4101H42.6367L42.5647 31.3264L42.5645 31.3261L42.4924 31.2424V31.1584L42.4922 31.1582L42.4202 31.0744L42.4199 31.0742L42.3479 30.9905L42.3477 30.9902L42.2756 30.9065L42.2754 30.9062L42.2034 30.8225L42.2031 30.8222L42.1311 30.7385L42.1309 30.7382L42.0588 30.6545L42.0586 30.6543L41.9866 30.5705L41.9863 30.5703L41.9143 30.4866L41.9141 30.4863L41.842 30.4026L41.8418 30.4023L41.7698 30.3186L41.7695 30.3183L41.6975 30.2346L41.6973 30.2343L41.6252 30.1506L41.625 30.1504L41.553 30.0666L41.5528 30.0664L41.4807 29.9826L41.4805 29.9824L41.4084 29.8987L41.4082 29.8984L41.3362 29.8147L41.336 29.8144L41.2639 29.7307L41.2637 29.7304L41.1916 29.6467L41.1914 29.6464L41.1194 29.5627L41.1192 29.5625L41.0471 29.4787L41.0469 29.4785L40.9749 29.3948L40.9746 29.3945L40.9026 29.3108L40.9024 29.3105L40.8303 29.2268L40.8301 29.2265L40.7581 29.1428L40.7578 29.1425L40.6858 29.0588L40.6856 29.0586H40.6133L40.5413 28.9748L40.541 28.9746L40.469 28.8908V28.8069L40.4688 28.8066L40.3967 28.7229L40.3965 28.7226L40.3245 28.6389L40.3242 28.6386L40.2522 28.5549L40.252 28.5546L40.1799 28.4709L40.1797 28.4707L40.1077 28.3869L40.1074 28.3867L40.0354 28.303L40.0352 28.3027L39.9631 28.219L39.9629 28.2187H39.8906H39.8184H39.7461H39.6738H39.6016H39.5293H39.457H39.3848H39.3125H39.2403H39.168H39.0957H39.0235H38.9512H38.8789H38.8067H38.7344H38.6621H38.5899H38.5176H38.4453H38.3731H38.3008H38.2285H38.1563H38.084H38.0117H37.9395H37.8672H37.7949H37.7227H37.6504H37.5781H37.5059H37.4336H37.3613H37.2891H37.2168H37.1445H37.0723H37H36.9278H36.8555H36.7832H36.711H36.6387H36.5664H36.4942H36.4219H36.3496H36.2774H36.2051H36.1328H36.0606H35.9883H35.916H35.8438H35.7715H35.6992H35.627H35.5547H35.4824H35.4102H35.3379H35.2656H35.1934H35.1211H35.0488H34.9766H34.9043H34.832H34.7598H34.6875H34.6153H34.543H34.4707H34.3985H34.3262H34.2539H34.1817H34.1094H34.0371H33.9649H33.8926H33.8203H33.7481H33.6758H33.6035H33.5313H33.459H33.3867H33.3145H33.2422H33.1699H33.0977H33.0254H32.9531H32.8809H32.8086H32.7363H32.6641H32.5918H32.5195H32.4473H32.375H32.3028H32.2305H32.1582H32.086H32.0137H31.9414H31.8692H31.7969H31.7246H31.6524H31.5801H31.5078H31.4356H31.3633H31.291H31.2188H31.1465H31.0742H31.002H30.9297H30.8574H30.7852H30.7129H30.6406H30.5684H30.4961H30.4238H30.3516H30.2793H30.207H30.1348H30.0625H29.9903H29.918H29.8457H29.7735H29.7012H29.6289H29.5567H29.4844H29.4121H29.3399H29.2676H29.1953H29.1231H29.0508H28.9785H28.9063H28.834H28.7617H28.6895H28.6172H28.5449H28.4727H28.4004H28.3281H28.2559H28.1836H28.1113H28.0391H27.9668H27.8945H27.8223H27.75H27.6778H27.6055H27.5332H27.461H27.3887H27.3164H27.2442H27.1719H27.0996H27.0274H26.9551H26.8828H26.8106H26.7383H26.666H26.5938H26.5215L26.5213 28.219V28.303V28.3869V28.4709V28.5549V28.6389V28.7229V28.8069V28.8908V28.9748V29.0588V29.1428V29.2268V29.3108V29.3948V29.4787V29.5627V29.6467V29.7307V29.8147V29.8987V29.9826V30.0666V30.1506V30.2346V30.3186V30.4026V30.4866V30.5705V30.6545V30.7385V30.8225V30.9065V30.9905V31.0744V31.1584V31.2424V31.3264V31.4104V31.4944V31.5783V31.6623V31.7463V31.8303V31.9143V31.9983V32.0823V32.1662V32.2502V32.3342V32.4182V32.5022V32.5862V32.6701V32.7541V32.8381V32.9221V33.0061V33.0901V33.1741V33.258V33.342V33.426V33.51V33.594V33.678V33.7619V33.8459V33.9299V34.0139V34.0979V34.1819V34.2658V34.3498V34.4338V34.5178V34.6018V34.6858V34.7698V34.8537V34.9377V35.0217V35.1057V35.1897V35.2737V35.3576V35.4416V35.5256V35.6096V35.6936V35.7776V35.8616V35.9455V36.0295V36.1135V36.1975V36.2815V36.3655V36.4494V36.5334V36.6174V36.7014V36.7854V36.8694V36.9534V37.0373V37.1213V37.2053V37.2893V37.3733V37.4573V37.5412V37.6252V37.7092V37.7932V37.8772V37.9612V38.0451V38.1291V38.2131V38.2971V38.3811V38.4651V38.5491V38.633V38.717V38.801V38.885V38.969V39.053V39.1369V39.2209V39.3049V39.3889V39.4729V39.5569V39.6409V39.7248V39.8088V39.8928V39.9768V40.0608V40.1448V40.2287V40.3127V40.3967V40.4807V40.5647V40.6487V40.7326V40.8166V40.9006V40.9846V41.0686V41.1526V41.2366V41.3205V41.4045V41.4885V41.5725V41.6565V41.7405V41.8244V41.9084V41.9924V42.0764V42.1604V42.2444V42.3284V42.4123V42.4963V42.5803V42.6643V42.7483V42.8323V42.9162V43.0002V43.0842V43.1682V43.2522V43.3362V43.4201V43.5041V43.5881V43.6721V43.7561V43.8401V43.9241V44.008V44.092V44.176V44.26V44.344V44.428V44.5119V44.5959V44.6799V44.7639V44.8479V44.9319V45.0159V45.0998V45.1838V45.2678V45.3518V45.4358V45.5198V45.6037V45.6877V45.7717V45.8557V45.9397V46.0237V46.1076V46.1916V46.2756V46.3596V46.4436V46.5276V46.6116V46.6955V46.7795V46.8635V46.9475V47.0315V47.1155V47.1994V47.2834V47.3674V47.4514V47.5354V47.6194V47.7034V47.7873V47.8713V47.9553V48.0393V48.1233V48.2073V48.2912V48.3752V48.4592V48.5432V48.6272V48.7112V48.7951V48.8791V48.9631V49.0471V49.1311V49.2151V49.2991V49.383V49.467V49.551V49.635V49.719V49.803V49.8869V49.9709V50.0549V50.1389V50.2229V50.3069V50.3909V50.4748V50.5588V50.6428V50.7268V50.8108V50.8948V50.9787V51.0627V51.1467V51.2307V51.3147V51.3987V51.4826V51.5666V51.6506V51.7346V51.8186V51.9026V51.9866V52.0705V52.1545V52.2385V52.3225V52.4065V52.4905V52.5744V52.6584V52.7424V52.8264V52.9104V52.9944V53.0784V53.1623V53.2463V53.3303V53.4143V53.4983V53.5823V53.6662V53.7502V53.8342V53.9182V54.0022V54.0862V54.1701V54.2541V54.3381V54.4221V54.5061V54.5901V54.6741V54.758V54.842L26.4492 54.9257L26.449 54.926V55.01L26.377 55.0937L26.3767 55.094L26.3047 55.1777H26.2324L26.2322 55.178V55.2619L26.1602 55.3457L26.1599 55.3459L26.0879 55.4296L26.0877 55.4299L26.0156 55.5136L26.0154 55.5139L25.9434 55.5976L25.9431 55.5979L25.8711 55.6816L25.8709 55.6819L25.7988 55.7656L25.7986 55.7659L25.7266 55.8496L25.7264 55.8498L25.6543 55.9336L25.6541 55.9338L25.582 56.0175L25.5818 56.0178L25.5098 56.1015L25.5096 56.1018L25.4375 56.1855L25.4373 56.1858L25.3653 56.2695L25.365 56.2698L25.293 56.3535H25.2207L25.2205 56.3537V56.4377L25.1485 56.5214L25.1482 56.5217L25.0762 56.6054H25.0039L25.0037 56.6057V56.6897L24.9317 56.7734L24.9314 56.7737L24.8594 56.8574L24.8592 56.8576L24.7871 56.9414L24.7869 56.9416L24.7149 57.0254L24.7146 57.0256L24.6426 57.1093L24.6424 57.1096L24.5703 57.1933H24.4981L24.4978 57.1936L24.4258 57.2773L24.4256 57.2776V57.3616L24.3535 57.4453L24.3533 57.4455L24.2813 57.5293H24.209L24.2088 57.5295V57.6135L24.1367 57.6972L24.1365 57.6975L24.0645 57.7812L24.0642 57.7815L23.9922 57.8652L23.992 57.8655L23.9199 57.9492L23.9197 57.9494L23.8477 58.0332L23.8474 58.0334L23.7754 58.1171L23.7752 58.1174L23.7031 58.2011L23.7029 58.2014L23.6309 58.2851L23.6306 58.2854L23.5586 58.3691L23.5584 58.3694L23.4863 58.4531L23.4861 58.4534L23.4141 58.5371H23.3418L23.3416 58.5373V58.6213L23.2695 58.705H23.1973L23.1971 58.7053V58.7893L23.125 58.873H23.0528L23.0525 58.8733V58.9573L22.9805 59.041H22.9082L22.908 59.0412V59.1252L22.836 59.2089H22.7637L22.7635 59.2092L22.6914 59.2929L22.6912 59.2932L22.6192 59.3769L22.6189 59.3772L22.5469 59.4609L22.5467 59.4612L22.4746 59.5449L22.4744 59.5451L22.4024 59.6289L22.4021 59.6291L22.3301 59.7129L22.3299 59.7131L22.2578 59.7968L22.2576 59.7971L22.1856 59.8808L22.1853 59.8811L22.1133 59.9648L22.1131 59.9651L22.041 60.0488L22.0408 60.0491L21.9688 60.1328L21.9685 60.133L21.8965 60.2168L21.8963 60.217L21.8242 60.3007L21.824 60.301L21.752 60.3847L21.7517 60.385L21.6797 60.4687L21.6795 60.469L21.6074 60.5527L21.6072 60.553L21.5352 60.6367L21.5349 60.6369L21.4629 60.7207L21.4627 60.7209L21.3906 60.8046L21.3904 60.8049L21.3184 60.8886L21.3181 60.8889L21.2461 60.9726L21.2459 60.9729L21.1738 61.0566L21.1736 61.0569L21.1016 61.1406L21.1014 61.1409L21.0293 61.2246L21.0291 61.2248L20.957 61.3086L20.9568 61.3088L20.8848 61.3925L20.8846 61.3928L20.8125 61.4765L20.8123 61.4768L20.7403 61.5605L20.74 61.5608L20.668 61.6445L20.6678 61.6448L20.5957 61.7285L20.5955 61.7287L20.5235 61.8125L20.5232 61.8127L20.4512 61.8964L20.451 61.8967L20.3789 61.9804L20.3787 61.9807L20.3067 62.0644L20.3064 62.0647L20.2344 62.1484L20.2342 62.1487L20.1621 62.2324L20.1619 62.2326L20.0899 62.3164L20.0896 62.3166L20.0176 62.4004L20.0174 62.4006L19.9453 62.4843L19.9451 62.4846L19.8731 62.5683L19.8728 62.5686L19.8008 62.6523L19.8006 62.6526V62.7365L19.7285 62.8203L19.7283 62.8205L19.6563 62.9043L19.656 62.9045L19.584 62.9882L19.5838 62.9885L19.5117 63.0722H19.4395L19.4392 63.0725V63.1565L19.3672 63.2402L19.367 63.2405L19.2949 63.3242L19.2947 63.3244L19.2227 63.4082H19.1504L19.1502 63.4084V63.4924L19.0781 63.5761L19.0779 63.5764L19.0059 63.6601L19.0056 63.6604L18.9336 63.7441L18.9334 63.7444L18.8613 63.8281L18.8611 63.8283L18.7891 63.9121L18.7889 63.9123L18.7168 63.9961H18.6445L18.6443 63.9963V64.0803L18.5723 64.164H18.5L18.4998 64.1643L18.4278 64.248L18.4275 64.2483L18.3555 64.332L18.3553 64.3323V64.4162L18.2832 64.5L18.283 64.5002L18.211 64.584H18.1387L18.1385 64.5842L18.0664 64.6679L18.0662 64.6682V64.7522L17.9942 64.8359Z" fill="#2C79FF"/>
<path d="M44.1543 34.4336L44.0823 34.3498L44.1543 34.2661L44.2264 34.3498L44.1543 34.4336Z" fill="#2C79FF"/>
<path d="M44.0821 34.5175L44.01 34.4338L44.0821 34.3501L44.1541 34.4338L44.0821 34.5175Z" fill="#2C79FF"/>
</svg>
