<?xml version="1.0" encoding="utf-8" ?>
<svg baseProfile="full" height="1024" version="1.1" width="1024" xmlns="http://www.w3.org/2000/svg" xmlns:ev="http://www.w3.org/2001/xml-events" xmlns:xlink="http://www.w3.org/1999/xlink"><defs /><polygon fill="#2C79FF" points="249.0,771.996862745098 248.0,771.996862745098 247.00313725490196,771.0 247.00313725490196,770.0 247.00313725490196,769.0 247.00313725490196,768.0 247.00313725490196,767.0 247.00313725490196,766.0 247.00313725490196,765.0 247.00313725490196,764.0 247.00313725490196,763.0 247.00313725490196,762.0 247.00313725490196,761.0 247.00313725490196,760.0 247.00313725490196,759.0 247.00313725490196,758.0 247.00313725490196,757.0 247.00313725490196,756.0 247.00313725490196,755.0 247.00313725490196,754.0 247.00313725490196,753.0 247.00313725490196,752.0 247.00313725490196,751.0 247.00313725490196,750.0 247.00313725490196,749.0 247.00313725490196,748.0 247.00313725490196,747.0 247.00313725490196,746.0 247.00313725490196,745.0 247.00313725490196,744.0 247.00313725490196,743.0 247.00313725490196,742.0 247.00313725490196,741.0 247.00313725490196,740.0 247.00313725490196,739.0 247.00313725490196,738.0 247.00313725490196,737.0 247.00313725490196,736.0 247.00313725490196,735.0 247.00313725490196,734.0 247.00313725490196,733.0 247.00313725490196,732.0 247.00313725490196,731.0 247.00313725490196,730.0 247.00313725490196,729.0 247.00313725490196,728.0 247.00313725490196,727.0 247.00313725490196,726.0 247.00313725490196,725.0 247.00313725490196,724.0 247.00313725490196,723.0 247.00313725490196,722.0 247.00313725490196,721.0 247.00313725490196,720.0 247.00313725490196,719.0 247.00313725490196,718.0 247.00313725490196,717.0 247.00313725490196,716.0 247.00313725490196,715.0 247.00313725490196,714.0 247.00313725490196,713.0 247.00313725490196,712.0 247.00313725490196,711.0 247.00313725490196,710.0 247.00313725490196,709.0 247.00313725490196,708.0 247.00313725490196,707.0 247.00313725490196,706.0 247.00313725490196,705.0 247.00313725490196,704.0 247.00313725490196,703.0 247.00313725490196,702.0 247.00313725490196,701.0 247.00313725490196,700.0 247.00313725490196,699.0 247.00313725490196,698.0 247.00313725490196,697.0 247.00313725490196,696.0 247.00313725490196,695.0 247.00313725490196,694.0 247.00313725490196,693.0 247.00313725490196,692.0 247.00313725490196,691.0 247.00313725490196,690.0 247.00313725490196,689.0 247.00313725490196,688.0 247.00313725490196,687.0 247.00313725490196,686.0 247.00313725490196,685.0 247.00313725490196,684.0 247.00313725490196,683.0 247.00313725490196,682.0 247.00313725490196,681.0 247.00313725490196,680.0 247.00313725490196,679.0 247.00313725490196,678.0 247.00313725490196,677.0 247.00313725490196,676.0 247.00313725490196,675.0 247.00313725490196,674.0 247.00313725490196,673.0 247.00313725490196,672.0 247.00313725490196,671.0 247.00313725490196,670.0 247.00313725490196,669.0 247.00313725490196,668.0 247.00313725490196,667.0 247.00313725490196,666.0 247.00313725490196,665.0 247.00313725490196,664.0 247.00313725490196,663.0 247.00313725490196,662.0 247.00313725490196,661.0 247.00313725490196,660.0 247.00313725490196,659.0 247.00313725490196,658.0 247.00313725490196,657.0 247.00313725490196,656.0 247.00313725490196,655.0 247.00313725490196,654.0 247.00313725490196,653.0 247.00313725490196,652.0 247.00313725490196,651.0 247.00313725490196,650.0 247.00313725490196,649.0 247.00313725490196,648.0 247.00313725490196,647.0 247.00313725490196,646.0 247.00313725490196,645.0 247.00313725490196,644.0 247.00313725490196,643.0 247.00313725490196,642.0 247.00313725490196,641.0 247.00313725490196,640.0 247.00313725490196,639.0 247.00313725490196,638.0 247.00313725490196,637.0 247.00313725490196,636.0 247.00313725490196,635.0 247.00313725490196,634.0 247.00313725490196,633.0 247.00313725490196,632.0 247.00313725490196,631.0 247.00313725490196,630.0 247.00313725490196,629.0 247.00313725490196,628.0 247.00313725490196,627.0 247.00313725490196,626.0 247.00313725490196,625.0 247.00313725490196,624.0 247.00313725490196,623.0 247.00313725490196,622.0 247.00313725490196,621.0 247.00313725490196,620.0 247.00313725490196,619.0 247.00313725490196,618.0 247.00313725490196,617.0 247.00313725490196,616.0 247.00313725490196,615.0 247.00313725490196,614.0 247.00313725490196,613.0 247.00313725490196,612.0 247.00313725490196,611.0 247.00313725490196,610.0 247.00313725490196,609.0 247.00313725490196,608.0 247.00313725490196,607.0 247.00313725490196,606.0 247.00313725490196,605.0 247.00313725490196,604.0 247.00313725490196,603.0 247.00313725490196,602.0 247.00313725490196,601.0 247.00313725490196,600.0 247.00313725490196,599.0 247.00313725490196,598.0 247.00313725490196,597.0 247.00313725490196,596.0 247.00313725490196,595.0 247.00313725490196,594.0 247.00313725490196,593.0 247.00313725490196,592.0 247.00313725490196,591.0 247.00313725490196,590.0 247.00313725490196,589.0 247.00313725490196,588.0 247.00313725490196,587.0 247.00313725490196,586.0 247.00313725490196,585.0 247.00313725490196,584.0 247.00313725490196,583.0 247.00313725490196,582.0 247.00313725490196,581.0 247.00313725490196,580.0 247.00313725490196,579.0 247.00313725490196,578.0 247.00313725490196,577.0 247.00313725490196,576.0 247.00313725490196,575.0 247.00313725490196,574.0 247.00313725490196,573.0 247.00313725490196,572.0 247.00313725490196,571.0 247.00313725490196,570.0 247.00313725490196,569.0 247.00313725490196,568.0 247.00313725490196,567.0 247.00313725490196,566.0 247.00313725490196,565.0 247.00313725490196,564.0 247.00313725490196,563.0 247.00313725490196,562.0 247.00313725490196,561.0 247.00313725490196,560.0 247.00313725490196,559.0 247.00313725490196,558.0 247.00313725490196,557.0 247.00313725490196,556.0 247.00313725490196,555.0 247.00313725490196,554.0 247.00313725490196,553.0 247.00313725490196,552.0 247.00313725490196,551.0 247.00313725490196,550.0 247.00313725490196,549.0 247.00313725490196,548.0 247.00313725490196,547.0 247.00313725490196,546.0 247.00313725490196,545.0 247.00313725490196,544.0 247.00313725490196,543.0 247.00313725490196,542.0 247.00313725490196,541.0 247.00313725490196,540.0 247.00313725490196,539.0 247.00313725490196,538.0 247.00313725490196,537.0 247.00313725490196,536.0 247.00313725490196,535.0 247.00313725490196,534.0 247.00313725490196,533.0 247.00313725490196,532.0 247.00313725490196,531.0 247.00313725490196,530.0 247.00313725490196,529.0 247.00313725490196,528.0 247.00313725490196,527.0 247.00313725490196,526.0 247.00313725490196,525.0 247.00313725490196,524.0 247.00313725490196,523.0 247.00313725490196,522.0 247.00313725490196,521.0 247.00313725490196,520.0 247.00313725490196,519.0 247.00313725490196,518.0 247.00313725490196,517.0 247.00313725490196,516.0 247.00313725490196,515.0 247.00313725490196,514.0 247.00313725490196,513.0 247.00313725490196,512.0 247.00313725490196,511.0 247.00313725490196,510.0 247.00313725490196,509.0 247.00313725490196,508.0 247.00313725490196,507.0 247.00313725490196,506.0 247.00313725490196,505.0 247.00313725490196,504.0 247.00313725490196,503.0 247.00313725490196,502.0 247.00313725490196,501.0 247.00313725490196,500.0 247.00313725490196,499.0 247.00313725490196,498.0 247.00313725490196,497.0 247.00313725490196,496.0 247.00313725490196,495.0 247.00313725490196,494.0 247.00313725490196,493.0 247.00313725490196,492.0 247.00313725490196,491.0 247.00313725490196,490.0 247.00313725490196,489.0 247.00313725490196,488.0 247.00313725490196,487.0 247.00313725490196,486.0 247.00313725490196,485.0 247.00313725490196,484.0 247.00313725490196,483.0 247.00313725490196,482.0 247.00313725490196,481.0 247.00313725490196,480.0 247.00313725490196,479.0 247.00313725490196,478.0 247.00313725490196,477.0 247.00313725490196,476.0 247.00313725490196,475.0 247.00313725490196,474.0 247.00313725490196,473.0 247.00313725490196,472.0 247.00313725490196,471.0 247.00313725490196,470.0 247.00313725490196,469.0 247.00313725490196,468.0 247.00313725490196,467.0 247.00313725490196,466.0 247.00313725490196,465.0 247.00313725490196,464.0 247.00313725490196,463.0 247.00313725490196,462.0 247.00313725490196,461.0 247.00313725490196,460.0 247.00313725490196,459.0 247.00313725490196,458.0 247.00313725490196,457.0 247.00313725490196,456.0 247.00313725490196,455.0 247.00313725490196,454.0 247.00313725490196,453.0 247.00313725490196,452.0 247.00313725490196,451.0 247.00313725490196,450.0 247.00313725490196,449.0 247.00313725490196,448.0 247.00313725490196,447.0 247.00313725490196,446.0 247.00313725490196,445.0 247.00313725490196,444.0 247.00313725490196,443.0 247.00313725490196,442.0 247.00313725490196,441.0 247.00313725490196,440.0 247.00313725490196,439.0 247.00313725490196,438.0 247.00313725490196,437.0 247.00313725490196,436.0 247.00313725490196,435.0 247.00313725490196,434.0 247.00313725490196,433.0 247.00313725490196,432.0 247.00313725490196,431.0 247.00313725490196,430.0 247.00313725490196,429.0 247.00313725490196,428.0 247.00313725490196,427.0 247.00313725490196,426.0 247.00313725490196,425.0 247.00313725490196,424.0 247.00313725490196,423.0 247.00313725490196,422.0 247.00313725490196,421.0 247.00313725490196,420.0 247.00313725490196,419.0 247.00313725490196,418.0 247.00313725490196,417.0 247.00313725490196,416.0 247.00313725490196,415.0 247.00313725490196,414.0 247.00313725490196,413.0 247.00313725490196,412.0 247.00313725490196,411.0 247.00313725490196,410.0 247.00313725490196,409.0 247.00313725490196,408.0 247.00313725490196,407.0 247.00313725490196,406.0 247.00313725490196,405.0 247.00313725490196,404.0 247.00313725490196,403.0 247.00313725490196,402.0 247.00313725490196,401.0 247.00313725490196,400.0 247.00313725490196,399.0 247.00313725490196,398.0 247.00313725490196,397.0 247.00313725490196,396.0 247.00313725490196,395.0 247.00313725490196,394.0 247.00313725490196,393.0 247.00313725490196,392.0 247.00313725490196,391.0 247.00313725490196,390.0 247.00313725490196,389.0 247.00313725490196,388.0 247.00313725490196,387.0 247.00313725490196,386.0 247.00313725490196,385.0 247.00313725490196,384.0 247.00313725490196,383.0 247.00313725490196,382.0 247.00313725490196,381.0 247.00313725490196,380.0 247.00313725490196,379.0 247.00313725490196,378.0 247.00313725490196,377.0 247.00313725490196,376.0 247.00313725490196,375.0 247.00313725490196,374.0 247.00313725490196,373.0 247.00313725490196,372.0 247.00313725490196,371.0 247.00313725490196,370.0 247.00313725490196,369.0 247.00313725490196,368.0 247.00313725490196,367.0 247.00313725490196,366.0 247.00313725490196,365.0 247.00313725490196,364.0 247.00313725490196,363.0 247.00313725490196,362.0 247.00313725490196,361.0 247.00313725490196,360.0 247.00313725490196,359.0 247.00313725490196,358.0 247.00313725490196,357.0 247.00313725490196,356.0 247.00313725490196,355.0 247.00313725490196,354.0 247.00313725490196,353.0 247.00313725490196,352.0 247.00313725490196,351.0 247.00313725490196,350.0 247.00313725490196,349.0 247.00313725490196,348.0 247.00313725490196,347.0 247.00313725490196,346.0 247.00313725490196,345.0 247.00313725490196,344.0 247.00313725490196,343.0 247.00313725490196,342.0 247.00313725490196,341.0 247.00313725490196,340.0 247.00313725490196,339.0 247.00313725490196,338.0 247.00313725490196,337.0 247.00313725490196,336.0 247.00313725490196,335.0 247.00313725490196,334.0 247.00313725490196,333.0 247.00313725490196,332.0 247.00313725490196,331.0 247.00313725490196,330.0 247.00313725490196,329.0 247.00313725490196,328.0 247.00313725490196,327.0 247.00313725490196,326.0 247.00313725490196,325.0 247.00313725490196,324.0 247.00313725490196,323.0 247.00313725490196,322.0 247.00313725490196,321.0 247.00313725490196,320.0 247.00313725490196,319.0 247.00313725490196,318.0 247.00313725490196,317.0 247.00313725490196,316.0 247.00313725490196,315.0 247.00313725490196,314.0 247.00313725490196,313.0 247.00313725490196,312.0 247.00313725490196,311.0 247.00313725490196,310.0 247.00313725490196,309.0 247.00313725490196,308.0 247.00313725490196,307.0 247.00313725490196,306.0 247.00313725490196,305.0 247.00313725490196,304.0 247.00313725490196,303.0 247.00313725490196,302.0 247.00313725490196,301.0 247.00313725490196,300.0 247.00313725490196,299.0 247.00313725490196,298.0 247.00313725490196,297.0 247.00313725490196,296.0 247.00313725490196,295.0 247.00313725490196,294.0 247.00313725490196,293.0 247.00313725490196,292.0 247.00313725490196,291.0 247.00313725490196,290.0 247.00313725490196,289.0 247.00313725490196,288.0 247.00313725490196,287.0 247.00313725490196,286.0 247.00313725490196,285.0 247.00313725490196,284.0 247.00313725490196,283.0 247.00313725490196,282.0 247.00313725490196,281.0 247.00313725490196,280.0 247.00313725490196,279.0 247.00313725490196,278.0 247.00313725490196,277.0 247.00313725490196,276.0 247.00313725490196,275.0 247.00313725490196,274.0 247.00313725490196,273.0 247.00313725490196,272.0 247.00313725490196,271.0 247.00313725490196,270.0 247.00313725490196,269.0 247.00313725490196,268.0 247.00313725490196,267.0 247.00313725490196,266.0 247.00313725490196,265.0 247.00313725490196,264.0 247.00313725490196,263.0 247.00313725490196,262.0 247.00313725490196,261.0 247.00313725490196,260.0 247.00313725490196,259.0 247.00313725490196,258.0 247.00313725490196,257.0 247.00313725490196,256.0 247.00313725490196,255.0 247.00313725490196,254.0 247.00313725490196,253.0 247.00313725490196,252.0 247.00313725490196,251.0 247.00313725490196,250.0 247.00313725490196,249.0 247.00313725490196,248.0 247.00313725490196,247.0 247.00313725490196,246.0 247.00313725490196,245.0 247.00313725490196,244.0 247.00313725490196,243.0 247.00313725490196,242.0 247.00313725490196,241.0 247.00313725490196,240.0 247.00313725490196,239.0 247.00313725490196,238.0 247.00313725490196,237.0 247.00313725490196,236.0 247.00313725490196,235.0 247.00313725490196,234.0 247.00313725490196,233.0 247.00313725490196,232.0 247.00313725490196,231.0 247.00313725490196,230.0 247.00313725490196,229.0 248.0,228.00313725490196 249.0,228.00313725490196 250.0,228.00313725490196 251.0,228.00313725490196 252.0,228.00313725490196 253.0,228.00313725490196 254.0,228.00313725490196 255.0,228.00313725490196 256.0,228.00313725490196 257.0,228.00313725490196 258.0,228.00313725490196 259.0,228.00313725490196 260.0,228.00313725490196 261.0,228.00313725490196 262.0,228.00313725490196 263.0,228.00313725490196 264.0,228.00313725490196 265.0,228.00313725490196 266.0,228.00313725490196 267.0,228.00313725490196 268.0,228.00313725490196 269.0,228.00313725490196 270.0,228.00313725490196 271.0,228.00313725490196 272.0,228.00313725490196 273.0,228.00313725490196 274.0,228.00313725490196 275.0,228.00313725490196 276.0,228.00313725490196 277.0,228.00313725490196 278.0,228.00313725490196 279.0,228.00313725490196 280.0,228.00313725490196 281.0,228.00313725490196 282.0,228.00313725490196 283.0,228.00313725490196 284.0,228.00313725490196 285.0,228.00313725490196 286.0,228.00313725490196 287.0,228.00313725490196 288.0,228.00313725490196 289.0,228.00313725490196 290.0,228.00313725490196 291.0,228.00313725490196 292.0,228.00313725490196 293.0,228.00313725490196 294.0,228.00313725490196 295.0,228.00313725490196 296.0,228.00313725490196 297.0,228.00313725490196 298.0,228.00313725490196 299.0,228.00313725490196 300.0,228.00313725490196 301.0,228.00313725490196 302.0,228.00313725490196 303.0,228.00313725490196 304.0,228.00313725490196 305.0,228.00313725490196 306.0,228.00313725490196 307.0,228.00313725490196 308.0,228.00313725490196 309.0,228.00313725490196 310.0,228.00313725490196 311.0,228.00313725490196 312.0,228.00313725490196 313.0,228.00313725490196 314.0,228.00313725490196 315.0,228.00313725490196 316.0,228.00313725490196 317.0,228.00313725490196 318.0,228.00313725490196 319.0,228.00313725490196 320.0,228.00313725490196 321.0,228.00313725490196 322.0,228.00313725490196 323.0,228.00313725490196 324.0,228.00313725490196 325.0,228.00313725490196 326.0,228.00313725490196 327.0,228.00313725490196 328.0,228.00313725490196 329.0,228.00313725490196 330.0,228.00313725490196 331.0,228.00313725490196 332.0,228.00313725490196 333.0,228.00313725490196 334.0,228.00313725490196 335.0,228.00313725490196 336.0,228.00313725490196 337.0,228.00313725490196 338.0,228.00313725490196 339.0,228.00313725490196 340.0,228.00313725490196 341.0,228.00313725490196 342.0,228.00313725490196 343.0,228.00313725490196 344.0,228.00313725490196 345.0,228.00313725490196 346.0,228.00313725490196 347.0,228.00313725490196 348.0,228.00313725490196 349.0,228.00313725490196 350.0,228.00313725490196 351.0,228.00313725490196 352.0,228.00313725490196 353.0,228.00313725490196 354.0,228.00313725490196 355.0,228.00313725490196 356.0,228.00313725490196 357.0,228.00313725490196 358.0,228.00313725490196 359.0,228.00313725490196 360.0,228.00313725490196 361.0,228.00313725490196 362.0,228.00313725490196 363.0,228.00313725490196 364.0,228.00313725490196 365.0,228.00313725490196 366.0,228.00313725490196 367.0,228.00313725490196 368.0,228.00313725490196 369.0,228.00313725490196 370.0,228.00313725490196 371.0,228.00313725490196 372.0,228.00313725490196 373.0,228.00313725490196 374.0,228.00313725490196 375.0,228.00313725490196 376.0,228.00313725490196 377.0,228.00313725490196 378.0,228.00313725490196 379.0,228.00313725490196 380.0,228.00313725490196 381.0,228.00313725490196 382.0,228.00313725490196 383.0,228.00313725490196 384.0,228.00313725490196 385.0,228.00313725490196 386.0,228.00313725490196 387.0,228.00313725490196 388.0,228.00313725490196 389.0,228.00313725490196 390.0,228.00313725490196 391.0,228.00313725490196 392.0,228.00313725490196 393.0,228.00313725490196 394.0,228.00313725490196 395.0,228.00313725490196 396.0,228.00313725490196 397.0,228.00313725490196 398.0,228.00313725490196 399.0,228.00313725490196 400.0,228.00313725490196 401.0,228.00313725490196 402.0,228.00313725490196 403.0,228.00313725490196 404.0,228.00313725490196 405.0,228.00313725490196 406.0,228.00313725490196 407.0,228.00313725490196 408.0,228.00313725490196 409.0,228.00313725490196 410.0,228.00313725490196 411.0,228.00313725490196 412.0,228.00313725490196 413.0,228.00313725490196 414.0,228.00313725490196 415.0,228.00313725490196 416.0,228.00313725490196 417.0,228.00313725490196 418.0,228.00313725490196 419.0,228.00313725490196 420.0,228.00313725490196 421.0,228.00313725490196 422.0,228.00313725490196 423.0,228.00313725490196 424.0,228.00313725490196 425.0,228.00313725490196 426.0,228.00313725490196 427.0,228.00313725490196 428.0,228.00313725490196 429.0,228.00313725490196 430.0,228.00313725490196 431.0,228.00313725490196 432.0,228.00313725490196 433.0,228.00313725490196 434.0,228.00313725490196 435.0,228.00313725490196 436.0,228.00313725490196 437.0,228.00313725490196 438.0,228.00313725490196 439.0,228.00313725490196 440.0,228.00313725490196 441.0,228.00313725490196 442.0,228.00313725490196 443.0,228.00313725490196 444.0,228.00313725490196 445.0,228.00313725490196 446.0,228.00313725490196 447.0,228.00313725490196 448.0,228.00313725490196 449.0,228.00313725490196 450.0,228.00313725490196 451.0,228.00313725490196 452.0,228.00313725490196 453.0,228.00313725490196 454.0,228.00313725490196 455.0,228.00313725490196 456.0,228.00313725490196 457.0,228.00313725490196 458.0,228.00313725490196 459.0,228.00313725490196 460.0,228.00313725490196 461.0,228.00313725490196 462.0,228.00313725490196 463.0,228.00313725490196 464.0,228.00313725490196 465.0,228.00313725490196 466.0,228.00313725490196 467.0,228.00313725490196 468.0,228.00313725490196 469.0,228.00313725490196 470.0,228.00313725490196 471.0,228.00313725490196 472.0,228.00313725490196 473.0,228.00313725490196 474.0,228.00313725490196 475.0,228.00313725490196 476.0,228.00313725490196 477.0,228.00313725490196 478.0,228.00313725490196 479.0,228.00313725490196 480.0,228.00313725490196 481.0,228.00313725490196 482.0,228.00313725490196 483.0,228.00313725490196 484.0,228.00313725490196 485.0,228.00313725490196 486.0,228.00313725490196 487.0,228.00313725490196 488.0,228.00313725490196 489.0,228.00313725490196 490.0,228.00313725490196 491.0,228.00313725490196 492.0,228.00313725490196 493.0,228.00313725490196 494.0,228.00313725490196 495.0,228.00313725490196 496.0,228.00313725490196 497.0,228.00313725490196 498.0,228.00313725490196 499.0,228.00313725490196 500.0,228.00313725490196 501.0,228.00313725490196 502.0,228.00313725490196 503.0,228.00313725490196 504.0,228.00313725490196 505.0,228.00313725490196 506.0,228.00313725490196 507.0,228.00313725490196 508.0,228.00313725490196 509.0,228.00313725490196 510.0,228.00313725490196 511.0,228.00313725490196 512.0,228.00313725490196 513.0,228.00313725490196 514.0,228.00313725490196 515.0,228.00313725490196 516.0,228.00313725490196 517.0,228.00313725490196 518.0,228.00313725490196 519.0,228.00313725490196 520.0,228.00313725490196 521.0,228.00313725490196 522.0,228.00313725490196 523.0,228.00313725490196 524.0,228.00313725490196 525.0,228.00313725490196 526.0,228.00313725490196 527.0,228.00313725490196 528.0,228.00313725490196 529.0,228.00313725490196 530.0,228.00313725490196 531.0,228.00313725490196 532.0,228.00313725490196 533.0,228.00313725490196 534.0,228.00313725490196 535.0,228.00313725490196 536.0,228.00313725490196 537.0,228.00313725490196 538.0,228.00313725490196 539.0,228.00313725490196 540.0,228.00313725490196 541.0,228.00313725490196 542.0,228.00313725490196 543.0,228.00313725490196 544.0,228.00313725490196 545.0,228.00313725490196 546.0,228.00313725490196 547.0,228.00313725490196 548.0,228.00313725490196 549.0,228.00313725490196 550.0,228.00313725490196 551.0,228.00313725490196 552.0,228.00313725490196 553.0,228.00313725490196 554.0,228.00313725490196 555.0,228.00313725490196 556.0,228.00313725490196 557.0,228.00313725490196 558.0,228.00313725490196 559.0,228.00313725490196 560.0,228.00313725490196 561.0,228.00313725490196 562.0,228.00313725490196 563.0,228.00313725490196 564.0,228.00313725490196 565.0,228.00313725490196 566.0,228.00313725490196 567.0,228.00313725490196 568.0,228.00313725490196 569.0,228.00313725490196 570.0,228.00313725490196 571.0,228.00313725490196 572.0,228.00313725490196 573.0,228.00313725490196 574.0,228.00313725490196 575.0,228.00313725490196 576.0,228.00313725490196 577.0,228.00313725490196 578.0,228.00313725490196 579.0,228.00313725490196 580.0,228.00313725490196 581.0,228.00313725490196 582.0,228.00313725490196 583.0,228.00313725490196 584.0,228.00313725490196 585.0,228.00313725490196 586.0,228.00313725490196 587.0,228.00313725490196 588.0,228.00313725490196 589.0,228.00313725490196 590.0,228.00313725490196 591.0,228.00313725490196 592.0,228.00313725490196 593.0,228.00313725490196 594.0,228.00313725490196 595.0,228.00313725490196 596.0,228.00313725490196 597.0,228.00313725490196 598.0,228.00313725490196 599.0,228.00313725490196 600.0,228.00313725490196 601.0,228.00313725490196 602.0,228.00313725490196 603.0,228.00313725490196 604.0,228.00313725490196 605.0,228.00313725490196 606.0,228.00313725490196 607.0,228.00313725490196 608.0,228.00313725490196 609.0,228.00313725490196 610.0,228.00313725490196 611.0,228.00313725490196 612.0,228.00313725490196 613.0,228.00313725490196 614.0,228.00313725490196 615.0,228.00313725490196 616.0,228.00313725490196 616.996862745098,229.0 617.0,229.00313725490196 617.996862745098,230.0 618.0,230.00313725490196 618.996862745098,231.0 619.0,231.00313725490196 619.996862745098,232.0 620.0,232.00313725490196 620.996862745098,233.0 621.0,233.00313725490196 621.996862745098,234.0 622.0,234.00313725490196 622.996862745098,235.0 623.0,235.00313725490196 623.996862745098,236.0 624.0,236.00313725490196 624.996862745098,237.0 625.0,237.00313725490196 625.996862745098,238.0 626.0,238.00313725490196 626.996862745098,239.0 627.0,239.00313725490196 627.996862745098,240.0 628.0,240.00313725490196 628.996862745098,241.0 629.0,241.00313725490196 629.996862745098,242.0 630.0,242.00313725490196 630.996862745098,243.0 631.0,243.00313725490196 631.996862745098,244.0 632.0,244.00313725490196 632.996862745098,245.0 633.0,245.00313725490196 633.996862745098,246.0 634.0,246.00313725490196 634.996862745098,247.0 635.0,247.00313725490196 635.996862745098,248.0 636.0,248.00313725490196 636.996862745098,249.0 637.0,249.00313725490196 637.996862745098,250.0 638.0,250.00313725490196 638.996862745098,251.0 639.0,251.00313725490196 640.0,251.00313725490196 640.996862745098,252.0 641.0,252.00313725490196 641.996862745098,253.0 641.996862745098,254.0 642.0,254.00313725490196 642.996862745098,255.0 643.0,255.00313725490196 643.996862745098,256.0 644.0,256.00313725490196 644.996862745098,257.0 645.0,257.00313725490196 645.996862745098,258.0 646.0,258.00313725490196 646.996862745098,259.0 647.0,259.00313725490196 647.996862745098,260.0 648.0,260.00313725490196 648.996862745098,261.0 649.0,261.00313725490196 649.996862745098,262.0 650.0,262.00313725490196 650.996862745098,263.0 651.0,263.00313725490196 651.996862745098,264.0 652.0,264.00313725490196 652.996862745098,265.0 653.0,265.00313725490196 653.996862745098,266.0 654.0,266.00313725490196 654.996862745098,267.0 655.0,267.00313725490196 655.996862745098,268.0 656.0,268.00313725490196 656.996862745098,269.0 657.0,269.00313725490196 657.996862745098,270.0 658.0,270.00313725490196 658.996862745098,271.0 659.0,271.00313725490196 659.996862745098,272.0 660.0,272.00313725490196 660.996862745098,273.0 661.0,273.00313725490196 661.996862745098,274.0 662.0,274.00313725490196 662.996862745098,275.0 663.0,275.00313725490196 663.996862745098,276.0 664.0,276.00313725490196 664.996862745098,277.0 665.0,277.00313725490196 665.996862745098,278.0 666.0,278.00313725490196 666.996862745098,279.0 667.0,279.00313725490196 667.996862745098,280.0 668.0,280.00313725490196 668.996862745098,281.0 669.0,281.00313725490196 669.996862745098,282.0 670.0,282.00313725490196 670.996862745098,283.0 671.0,283.00313725490196 671.996862745098,284.0 672.0,284.00313725490196 672.996862745098,285.0 673.0,285.00313725490196 673.996862745098,286.0 674.0,286.00313725490196 674.996862745098,287.0 675.0,287.00313725490196 675.996862745098,288.0 676.0,288.00313725490196 676.996862745098,289.0 677.0,289.00313725490196 677.996862745098,290.0 678.0,290.00313725490196 678.996862745098,291.0 679.0,291.00313725490196 679.996862745098,292.0 680.0,292.00313725490196 681.0,292.00313725490196 681.996862745098,293.0 682.0,293.00313725490196 682.996862745098,294.0 683.0,294.00313725490196 683.996862745098,295.0 683.996862745098,296.0 684.0,296.00313725490196 684.996862745098,297.0 685.0,297.00313725490196 685.996862745098,298.0 686.0,298.00313725490196 686.996862745098,299.0 687.0,299.00313725490196 687.996862745098,300.0 688.0,300.00313725490196 689.0,300.00313725490196 689.996862745098,301.0 689.996862745098,302.0 690.0,302.00313725490196 690.996862745098,303.0 691.0,303.00313725490196 691.996862745098,304.0 692.0,304.00313725490196 692.996862745098,305.0 693.0,305.00313725490196 693.996862745098,306.0 694.0,306.00313725490196 694.996862745098,307.0 695.0,307.00313725490196 695.996862745098,308.0 696.0,308.00313725490196 696.996862745098,309.0 697.0,309.00313725490196 697.996862745098,310.0 698.0,310.00313725490196 698.996862745098,311.0 699.0,311.00313725490196 699.996862745098,312.0 700.0,312.00313725490196 700.996862745098,313.0 701.0,313.00313725490196 701.996862745098,314.0 702.0,314.00313725490196 702.996862745098,315.0 703.0,315.00313725490196 703.996862745098,316.0 704.0,316.00313725490196 704.996862745098,317.0 705.0,317.00313725490196 705.996862745098,318.0 706.0,318.00313725490196 706.996862745098,319.0 707.0,319.00313725490196 707.996862745098,320.0 708.0,320.00313725490196 708.996862745098,321.0 709.0,321.00313725490196 709.996862745098,322.0 710.0,322.00313725490196 710.996862745098,323.0 711.0,323.00313725490196 711.996862745098,324.0 712.0,324.00313725490196 712.996862745098,325.0 713.0,325.00313725490196 713.996862745098,326.0 714.0,326.00313725490196 714.996862745098,327.0 715.0,327.00313725490196 715.996862745098,328.0 716.0,328.00313725490196 716.996862745098,329.0 717.0,329.00313725490196 717.996862745098,330.0 718.0,330.00313725490196 718.996862745098,331.0 719.0,331.00313725490196 719.996862745098,332.0 720.0,332.00313725490196 720.996862745098,333.0 721.0,333.00313725490196 721.996862745098,334.0 722.0,334.00313725490196 722.996862745098,335.0 723.0,335.00313725490196 723.996862745098,336.0 724.0,336.00313725490196 724.996862745098,337.0 725.0,337.00313725490196 725.996862745098,338.0 726.0,338.00313725490196 726.996862745098,339.0 727.0,339.00313725490196 728.0,339.00313725490196 728.996862745098,340.0 728.996862745098,341.0 729.0,341.00313725490196 730.0,341.00313725490196 730.996862745098,342.0 730.996862745098,343.0 731.0,343.00313725490196 731.996862745098,344.0 732.0,344.00313725490196 732.996862745098,345.0 733.0,345.00313725490196 733.996862745098,346.0 734.0,346.00313725490196 734.996862745098,347.0 735.0,347.00313725490196 735.996862745098,348.0 736.0,348.00313725490196 736.996862745098,349.0 737.0,349.00313725490196 737.996862745098,350.0 738.0,350.00313725490196 738.996862745098,351.0 739.0,351.00313725490196 739.996862745098,352.0 740.0,352.00313725490196 740.996862745098,353.0 741.0,353.00313725490196 741.996862745098,354.0 742.0,354.00313725490196 742.996862745098,355.0 743.0,355.00313725490196 743.996862745098,356.0 744.0,356.00313725490196 744.996862745098,357.0 745.0,357.00313725490196 745.996862745098,358.0 746.0,358.00313725490196 746.996862745098,359.0 746.996862745098,360.0 746.996862745098,361.0 746.996862745098,362.0 746.996862745098,363.0 746.996862745098,364.0 746.996862745098,365.0 746.996862745098,366.0 746.996862745098,367.0 746.996862745098,368.0 746.996862745098,369.0 746.996862745098,370.0 746.996862745098,371.0 746.996862745098,372.0 746.996862745098,373.0 746.996862745098,374.0 746.996862745098,375.0 746.996862745098,376.0 746.996862745098,377.0 746.996862745098,378.0 746.996862745098,379.0 746.996862745098,380.0 746.996862745098,381.0 746.996862745098,382.0 746.996862745098,383.0 746.996862745098,384.0 747.0,384.00313725490196 747.996862745098,385.0 747.996862745098,386.0 747.996862745098,387.0 747.996862745098,388.0 747.996862745098,389.0 747.996862745098,390.0 747.996862745098,391.0 747.996862745098,392.0 747.996862745098,393.0 747.996862745098,394.0 747.996862745098,395.0 747.996862745098,396.0 747.996862745098,397.0 747.996862745098,398.0 747.996862745098,399.0 747.996862745098,400.0 747.996862745098,401.0 747.996862745098,402.0 747.996862745098,403.0 747.996862745098,404.0 747.996862745098,405.0 747.996862745098,406.0 747.996862745098,407.0 747.996862745098,408.0 747.996862745098,409.0 747.996862745098,410.0 747.996862745098,411.0 747.996862745098,412.0 747.996862745098,413.0 747.996862745098,414.0 747.996862745098,415.0 747.996862745098,416.0 747.996862745098,417.0 747.996862745098,418.0 747.996862745098,419.0 747.996862745098,420.0 747.996862745098,421.0 747.996862745098,422.0 747.996862745098,423.0 747.996862745098,424.0 747.996862745098,425.0 747.996862745098,426.0 747.996862745098,427.0 747.996862745098,428.0 747.996862745098,429.0 747.996862745098,430.0 747.996862745098,431.0 747.0,431.99686274509804 746.996862745098,432.0 746.0,432.99686274509804 745.996862745098,433.0 745.0,433.99686274509804 744.996862745098,434.0 744.0,434.99686274509804 743.996862745098,435.0 743.0,435.99686274509804 742.996862745098,436.0 742.0,436.99686274509804 741.996862745098,437.0 741.0,437.99686274509804 740.996862745098,438.0 740.0,438.99686274509804 739.996862745098,439.0 739.0,439.99686274509804 738.996862745098,440.0 738.0,440.99686274509804 737.996862745098,441.0 737.0,441.99686274509804 736.996862745098,442.0 736.0,442.99686274509804 735.996862745098,443.0 735.0,443.99686274509804 734.996862745098,444.0 734.996862745098,445.0 734.0,445.99686274509804 733.996862745098,446.0 733.0,446.99686274509804 732.996862745098,447.0 732.0,447.99686274509804 731.996862745098,448.0 731.0,448.99686274509804 730.996862745098,449.0 730.0,449.99686274509804 729.996862745098,450.0 729.0,450.99686274509804 728.996862745098,451.0 728.0,451.99686274509804 727.0,451.99686274509804 726.996862745098,452.0 726.996862745098,453.0 726.0,453.99686274509804 725.0,453.99686274509804 724.996862745098,454.0 724.0,454.99686274509804 723.996862745098,455.0 723.0,455.99686274509804 722.996862745098,456.0 722.996862745098,457.0 722.0,457.99686274509804 721.0,457.99686274509804 720.996862745098,458.0 720.0,458.99686274509804 719.996862745098,459.0 719.996862745098,460.0 719.0,460.99686274509804 718.996862745098,461.0 718.0,461.99686274509804 717.996862745098,462.0 717.0,462.99686274509804 716.0,462.99686274509804 715.996862745098,463.0 715.996862745098,464.0 715.0,464.99686274509804 714.996862745098,465.0 714.0,465.99686274509804 713.0,465.99686274509804 712.996862745098,466.0 712.996862745098,467.0 712.0,467.99686274509804 711.996862745098,468.0 711.0,468.99686274509804 710.996862745098,469.0 710.0,469.99686274509804 709.996862745098,470.0 709.0,470.99686274509804 708.996862745098,471.0 708.0,471.99686274509804 707.996862745098,472.0 707.0,472.99686274509804 706.996862745098,473.0 706.0,473.99686274509804 705.996862745098,474.0 705.0,474.99686274509804 704.996862745098,475.0 704.0,475.99686274509804 703.996862745098,476.0 703.0,476.99686274509804 702.996862745098,477.0 702.0,477.99686274509804 701.996862745098,478.0 701.0,478.99686274509804 700.996862745098,479.0 700.0,479.99686274509804 699.996862745098,480.0 699.0,480.99686274509804 698.996862745098,481.0 698.0,481.99686274509804 697.996862745098,482.0 697.0,482.99686274509804 696.996862745098,483.0 696.0,483.99686274509804 695.996862745098,484.0 695.0,484.99686274509804 694.996862745098,485.0 694.0,485.99686274509804 693.996862745098,486.0 693.0,486.99686274509804 692.996862745098,487.0 692.0,487.99686274509804 691.996862745098,488.0 691.0,488.99686274509804 690.996862745098,489.0 690.0,489.99686274509804 689.996862745098,490.0 689.0,490.99686274509804 688.996862745098,491.0 688.0,491.99686274509804 687.996862745098,492.0 687.0,492.99686274509804 686.996862745098,493.0 686.0,493.99686274509804 685.996862745098,494.0 685.0,494.99686274509804 684.996862745098,495.0 684.0,495.99686274509804 683.996862745098,496.0 683.0,496.99686274509804 682.996862745098,497.0 682.0,497.99686274509804 681.996862745098,498.0 681.0,498.99686274509804 680.996862745098,499.0 680.0,499.99686274509804 679.996862745098,500.0 679.0,500.99686274509804 678.996862745098,501.0 678.0,501.99686274509804 677.996862745098,502.0 677.0,502.99686274509804 676.996862745098,503.0 676.0,503.99686274509804 675.996862745098,504.0 675.0,504.99686274509804 674.996862745098,505.0 674.0,505.99686274509804 673.996862745098,506.0 673.0,506.99686274509804 672.996862745098,507.0 672.0,507.99686274509804 671.996862745098,508.0 671.0,508.99686274509804 670.996862745098,509.0 670.0,509.99686274509804 669.996862745098,510.0 669.0,510.99686274509804 668.996862745098,511.0 668.0,511.99686274509804 667.996862745098,512.0 667.0,512.996862745098 666.996862745098,513.0 666.0,513.996862745098 665.996862745098,514.0 665.0,514.996862745098 664.996862745098,515.0 664.0,515.996862745098 663.996862745098,516.0 663.0,516.996862745098 662.996862745098,517.0 662.0,517.996862745098 661.996862745098,518.0 661.0,518.996862745098 660.996862745098,519.0 660.0,519.996862745098 659.996862745098,520.0 659.0,520.996862745098 658.996862745098,521.0 658.0,521.996862745098 657.996862745098,522.0 657.0,522.996862745098 656.0,522.996862745098 655.996862745098,523.0 655.0,523.996862745098 654.996862745098,524.0 654.996862745098,525.0 654.0,525.996862745098 653.0,525.996862745098 652.996862745098,526.0 652.996862745098,527.0 652.0,527.996862745098 651.0,527.996862745098 650.996862745098,528.0 650.0,528.996862745098 649.996862745098,529.0 649.0,529.996862745098 648.996862745098,530.0 648.0,530.996862745098 647.996862745098,531.0 647.0,531.996862745098 646.996862745098,532.0 646.996862745098,533.0 646.0,533.996862745098 645.996862745098,534.0 645.0,534.996862745098 644.0,534.996862745098 643.996862745098,535.0 643.0,535.996862745098 642.996862745098,536.0 642.0,536.996862745098 641.996862745098,537.0 641.0,537.996862745098 640.996862745098,538.0 640.0,538.996862745098 639.996862745098,539.0 639.0,539.996862745098 638.996862745098,540.0 638.996862745098,541.0 638.0,541.996862745098 637.0,541.996862745098 636.996862745098,542.0 636.0,542.996862745098 635.996862745098,543.0 635.0,543.996862745098 634.996862745098,544.0 635.0,544.003137254902 635.996862745098,545.0 636.0,545.003137254902 636.996862745098,546.0 637.0,546.003137254902 637.996862745098,547.0 638.0,547.003137254902 638.996862745098,548.0 638.996862745098,549.0 639.0,549.003137254902 639.996862745098,550.0 640.0,550.003137254902 640.996862745098,551.0 641.0,551.003137254902 641.996862745098,552.0 641.996862745098,553.0 642.0,553.003137254902 642.996862745098,554.0 643.0,554.003137254902 643.996862745098,555.0 644.0,555.003137254902 644.996862745098,556.0 645.0,556.003137254902 645.996862745098,557.0 645.996862745098,558.0 646.0,558.003137254902 646.996862745098,559.0 647.0,559.003137254902 647.996862745098,560.0 648.0,560.003137254902 648.996862745098,561.0 648.996862745098,562.0 649.0,562.003137254902 649.996862745098,563.0 650.0,563.003137254902 650.996862745098,564.0 651.0,564.003137254902 651.996862745098,565.0 652.0,565.003137254902 652.996862745098,566.0 652.996862745098,567.0 653.0,567.003137254902 653.996862745098,568.0 654.0,568.003137254902 654.996862745098,569.0 655.0,569.003137254902 655.996862745098,570.0 655.996862745098,571.0 656.0,571.003137254902 656.996862745098,572.0 657.0,572.003137254902 657.996862745098,573.0 658.0,573.003137254902 658.996862745098,574.0 659.0,574.003137254902 659.996862745098,575.0 659.996862745098,576.0 660.0,576.003137254902 660.996862745098,577.0 661.0,577.003137254902 661.996862745098,578.0 662.0,578.003137254902 662.996862745098,579.0 663.0,579.003137254902 663.996862745098,580.0 663.996862745098,581.0 664.0,581.003137254902 664.996862745098,582.0 665.0,582.003137254902 665.996862745098,583.0 666.0,583.003137254902 666.996862745098,584.0 667.0,584.003137254902 667.996862745098,585.0 667.996862745098,586.0 668.0,586.003137254902 668.996862745098,587.0 669.0,587.003137254902 669.996862745098,588.0 670.0,588.003137254902 670.996862745098,589.0 670.996862745098,590.0 671.0,590.003137254902 671.996862745098,591.0 672.0,591.003137254902 672.996862745098,592.0 673.0,592.003137254902 673.996862745098,593.0 674.0,593.003137254902 674.996862745098,594.0 674.996862745098,595.0 675.0,595.003137254902 675.996862745098,596.0 676.0,596.003137254902 676.996862745098,597.0 677.0,597.003137254902 677.996862745098,598.0 678.0,598.003137254902 678.996862745098,599.0 678.996862745098,600.0 679.0,600.003137254902 679.996862745098,601.0 680.0,601.003137254902 680.996862745098,602.0 681.0,602.003137254902 681.996862745098,603.0 682.0,603.003137254902 682.996862745098,604.0 682.996862745098,605.0 683.0,605.003137254902 683.996862745098,606.0 684.0,606.003137254902 684.996862745098,607.0 685.0,607.003137254902 685.996862745098,608.0 685.996862745098,609.0 686.0,609.003137254902 686.996862745098,610.0 687.0,610.003137254902 687.996862745098,611.0 688.0,611.003137254902 688.996862745098,612.0 689.0,612.003137254902 689.996862745098,613.0 689.996862745098,614.0 690.0,614.003137254902 690.996862745098,615.0 691.0,615.003137254902 691.996862745098,616.0 692.0,616.003137254902 692.996862745098,617.0 693.0,617.003137254902 693.996862745098,618.0 693.996862745098,619.0 694.0,619.003137254902 694.996862745098,620.0 695.0,620.003137254902 695.996862745098,621.0 696.0,621.003137254902 696.996862745098,622.0 697.0,622.003137254902 697.996862745098,623.0 697.996862745098,624.0 698.0,624.003137254902 698.996862745098,625.0 699.0,625.003137254902 699.996862745098,626.0 700.0,626.003137254902 700.996862745098,627.0 700.996862745098,628.0 701.0,628.003137254902 701.996862745098,629.0 702.0,629.003137254902 702.996862745098,630.0 703.0,630.003137254902 703.996862745098,631.0 704.0,631.003137254902 704.996862745098,632.0 704.996862745098,633.0 705.0,633.003137254902 705.996862745098,634.0 706.0,634.003137254902 706.996862745098,635.0 707.0,635.003137254902 707.996862745098,636.0 708.0,636.003137254902 708.996862745098,637.0 708.996862745098,638.0 709.0,638.003137254902 709.996862745098,639.0 710.0,639.003137254902 710.996862745098,640.0 711.0,640.003137254902 711.996862745098,641.0 711.996862745098,642.0 712.0,642.003137254902 712.996862745098,643.0 713.0,643.003137254902 713.996862745098,644.0 714.0,644.003137254902 714.996862745098,645.0 715.0,645.003137254902 715.996862745098,646.0 715.996862745098,647.0 716.0,647.003137254902 716.996862745098,648.0 717.0,648.003137254902 717.996862745098,649.0 718.0,649.003137254902 718.996862745098,650.0 719.0,650.003137254902 719.996862745098,651.0 719.996862745098,652.0 720.0,652.003137254902 720.996862745098,653.0 721.0,653.003137254902 721.996862745098,654.0 722.0,654.003137254902 722.996862745098,655.0 723.0,655.003137254902 723.996862745098,656.0 723.996862745098,657.0 724.0,657.003137254902 724.996862745098,658.0 725.0,658.003137254902 725.996862745098,659.0 726.0,659.003137254902 726.996862745098,660.0 726.996862745098,661.0 727.0,661.003137254902 727.996862745098,662.0 728.0,662.003137254902 728.996862745098,663.0 729.0,663.003137254902 729.996862745098,664.0 730.0,664.003137254902 730.996862745098,665.0 730.996862745098,666.0 731.0,666.003137254902 731.996862745098,667.0 732.0,667.003137254902 732.996862745098,668.0 733.0,668.003137254902 733.996862745098,669.0 734.0,669.003137254902 734.996862745098,670.0 734.996862745098,671.0 735.0,671.003137254902 735.996862745098,672.0 736.0,672.003137254902 736.996862745098,673.0 737.0,673.003137254902 737.996862745098,674.0 738.0,674.003137254902 738.996862745098,675.0 738.996862745098,676.0 739.0,676.003137254902 739.996862745098,677.0 740.0,677.003137254902 740.996862745098,678.0 741.0,678.003137254902 741.996862745098,679.0 741.996862745098,680.0 742.0,680.003137254902 742.996862745098,681.0 743.0,681.003137254902 743.996862745098,682.0 744.0,682.003137254902 744.996862745098,683.0 745.0,683.003137254902 745.996862745098,684.0 745.996862745098,685.0 746.0,685.003137254902 746.996862745098,686.0 747.0,686.003137254902 747.996862745098,687.0 748.0,687.003137254902 748.996862745098,688.0 749.0,688.003137254902 749.996862745098,689.0 750.0,689.003137254902 750.996862745098,690.0 750.996862745098,691.0 751.0,691.003137254902 751.996862745098,692.0 752.0,692.003137254902 752.996862745098,693.0 753.0,693.003137254902 753.996862745098,694.0 753.996862745098,695.0 754.0,695.003137254902 754.996862745098,696.0 755.0,696.003137254902 755.996862745098,697.0 756.0,697.003137254902 756.996862745098,698.0 757.0,698.003137254902 757.996862745098,699.0 757.996862745098,700.0 758.0,700.003137254902 758.996862745098,701.0 759.0,701.003137254902 759.996862745098,702.0 760.0,702.003137254902 760.996862745098,703.0 761.0,703.003137254902 761.996862745098,704.0 761.996862745098,705.0 762.0,705.003137254902 762.996862745098,706.0 763.0,706.003137254902 763.996862745098,707.0 764.0,707.003137254902 764.996862745098,708.0 764.996862745098,709.0 765.0,709.003137254902 765.996862745098,710.0 766.0,710.003137254902 766.996862745098,711.0 767.0,711.003137254902 767.996862745098,712.0 768.0,712.003137254902 768.996862745098,713.0 768.996862745098,714.0 769.0,714.003137254902 769.996862745098,715.0 770.0,715.003137254902 770.996862745098,716.0 771.0,716.003137254902 771.996862745098,717.0 772.0,717.003137254902 772.996862745098,718.0 772.996862745098,719.0 773.0,719.003137254902 773.996862745098,720.0 774.0,720.003137254902 774.996862745098,721.0 775.0,721.003137254902 775.996862745098,722.0 775.996862745098,723.0 776.0,723.003137254902 776.996862745098,724.0 777.0,724.003137254902 777.996862745098,725.0 778.0,725.003137254902 778.996862745098,726.0 779.0,726.003137254902 779.996862745098,727.0 779.996862745098,728.0 780.0,728.003137254902 780.996862745098,729.0 781.0,729.003137254902 781.996862745098,730.0 782.0,730.003137254902 782.996862745098,731.0 783.0,731.003137254902 783.996862745098,732.0 783.996862745098,733.0 784.0,733.003137254902 784.996862745098,734.0 785.0,734.003137254902 785.996862745098,735.0 786.0,735.003137254902 786.996862745098,736.0 787.0,736.003137254902 787.996862745098,737.0 787.996862745098,738.0 788.0,738.003137254902 788.996862745098,739.0 789.0,739.003137254902 789.996862745098,740.0 790.0,740.003137254902 790.996862745098,741.0 790.996862745098,742.0 791.0,742.003137254902 791.996862745098,743.0 792.0,743.003137254902 792.996862745098,744.0 793.0,744.003137254902 793.996862745098,745.0 794.0,745.003137254902 794.996862745098,746.0 794.996862745098,747.0 795.0,747.003137254902 795.996862745098,748.0 796.0,748.003137254902 796.996862745098,749.0 797.0,749.003137254902 797.996862745098,750.0 798.0,750.003137254902 798.996862745098,751.0 798.996862745098,752.0 799.0,752.003137254902 799.996862745098,753.0 800.0,753.003137254902 800.996862745098,754.0 801.0,754.003137254902 801.996862745098,755.0 802.0,755.003137254902 802.996862745098,756.0 802.996862745098,757.0 803.0,757.003137254902 803.996862745098,758.0 804.0,758.003137254902 804.996862745098,759.0 805.0,759.003137254902 805.996862745098,760.0 806.0,760.003137254902 806.996862745098,761.0 806.996862745098,762.0 807.0,762.003137254902 807.996862745098,763.0 808.0,763.003137254902 808.996862745098,764.0 809.0,764.003137254902 809.996862745098,765.0 809.996862745098,766.0 810.0,766.003137254902 810.996862745098,767.0 811.0,767.003137254902 811.996862745098,768.0 812.0,768.003137254902 812.996862745098,769.0 812.996862745098,770.0 812.0,770.996862745098 811.0,770.996862745098 810.0,770.996862745098 809.0,770.996862745098 808.0,770.996862745098 807.0,770.996862745098 806.0,770.996862745098 805.0,770.996862745098 804.0,770.996862745098 803.0,770.996862745098 802.0,770.996862745098 801.0,770.996862745098 800.0,770.996862745098 799.0,770.996862745098 798.0,770.996862745098 797.0,770.996862745098 796.0,770.996862745098 795.0,770.996862745098 794.0,770.996862745098 793.0,770.996862745098 792.0,770.996862745098 791.0,770.996862745098 790.0,770.996862745098 789.0,770.996862745098 788.0,770.996862745098 787.0,770.996862745098 786.0,770.996862745098 785.0,770.996862745098 784.0,770.996862745098 783.0,770.996862745098 782.0,770.996862745098 781.0,770.996862745098 780.0,770.996862745098 779.0,770.996862745098 778.0,770.996862745098 777.0,770.996862745098 776.0,770.996862745098 775.0,770.996862745098 774.0,770.996862745098 773.0,770.996862745098 772.0,770.996862745098 771.0,770.996862745098 770.0,770.996862745098 769.0,770.996862745098 768.0,770.996862745098 767.0,770.996862745098 766.0,770.996862745098 765.0,770.996862745098 764.0,770.996862745098 763.0,770.996862745098 762.0,770.996862745098 761.0,770.996862745098 760.0,770.996862745098 759.0,770.996862745098 758.0,770.996862745098 757.0,770.996862745098 756.0,770.996862745098 755.0,770.996862745098 754.0,770.996862745098 753.0,770.996862745098 752.0,770.996862745098 751.0,770.996862745098 750.0,770.996862745098 749.0,770.996862745098 748.0,770.996862745098 747.0,770.996862745098 746.0,770.996862745098 745.0,770.996862745098 744.0,770.996862745098 743.0,770.996862745098 742.0,770.996862745098 741.0,770.996862745098 740.0,770.996862745098 739.0,770.996862745098 738.0,770.996862745098 737.0,770.996862745098 736.0,770.996862745098 735.0,770.996862745098 734.0,770.996862745098 733.0,770.996862745098 732.0,770.996862745098 731.0,770.996862745098 730.0,770.996862745098 729.0,770.996862745098 728.0,770.996862745098 727.0,770.996862745098 726.0,770.996862745098 725.0,770.996862745098 724.0,770.996862745098 723.0,770.996862745098 722.0,770.996862745098 721.0,770.996862745098 720.0,770.996862745098 719.0,770.996862745098 718.0,770.996862745098 717.0,770.996862745098 716.0,770.996862745098 715.0,770.996862745098 714.0,770.996862745098 713.0,770.996862745098 712.0,770.996862745098 711.0,770.996862745098 710.0,770.996862745098 709.0,770.996862745098 708.0,770.996862745098 707.0,770.996862745098 706.0,770.996862745098 705.0,770.996862745098 704.0,770.996862745098 703.0,770.996862745098 702.0,770.996862745098 701.0,770.996862745098 700.0,770.996862745098 699.0,770.996862745098 698.0,770.996862745098 697.0,770.996862745098 696.0,770.996862745098 695.0,770.996862745098 694.0,770.996862745098 693.0,770.996862745098 692.0,770.996862745098 691.0,770.996862745098 690.0,770.996862745098 689.0,770.996862745098 688.0,770.996862745098 687.0,770.996862745098 686.0,770.996862745098 685.0,770.996862745098 684.0,770.996862745098 683.0,770.996862745098 682.0,770.996862745098 681.0,770.996862745098 680.0,770.996862745098 679.0,770.996862745098 678.003137254902,770.0 678.0,769.996862745098 677.003137254902,769.0 677.0,768.996862745098 676.003137254902,768.0 676.003137254902,767.0 676.0,766.996862745098 675.003137254902,766.0 675.0,765.996862745098 674.003137254902,765.0 674.0,764.996862745098 673.003137254902,764.0 673.0,763.996862745098 672.003137254902,763.0 672.003137254902,762.0 672.0,761.996862745098 671.003137254902,761.0 671.0,760.996862745098 670.003137254902,760.0 670.0,759.996862745098 669.003137254902,759.0 669.0,758.996862745098 668.003137254902,758.0 668.003137254902,757.0 668.0,756.996862745098 667.003137254902,756.0 667.0,755.996862745098 666.003137254902,755.0 666.0,754.996862745098 665.003137254902,754.0 665.0,753.996862745098 664.003137254902,753.0 664.0,752.996862745098 663.003137254902,752.0 663.003137254902,751.0 663.0,750.996862745098 662.003137254902,750.0 662.0,749.996862745098 661.003137254902,749.0 661.0,748.996862745098 660.003137254902,748.0 660.0,747.996862745098 659.003137254902,747.0 659.003137254902,746.0 659.0,745.996862745098 658.003137254902,745.0 658.0,744.996862745098 657.003137254902,744.0 657.0,743.996862745098 656.003137254902,743.0 656.0,742.996862745098 655.003137254902,742.0 655.003137254902,741.0 655.0,740.996862745098 654.003137254902,740.0 654.0,739.996862745098 653.003137254902,739.0 653.0,738.996862745098 652.003137254902,738.0 652.0,737.996862745098 651.003137254902,737.0 651.0,736.996862745098 650.003137254902,736.0 650.003137254902,735.0 650.0,734.996862745098 649.003137254902,734.0 649.0,733.996862745098 648.003137254902,733.0 648.0,732.996862745098 647.003137254902,732.0 647.0,731.996862745098 646.003137254902,731.0 646.003137254902,730.0 646.0,729.996862745098 645.003137254902,729.0 645.0,728.996862745098 644.003137254902,728.0 644.0,727.996862745098 643.003137254902,727.0 643.0,726.996862745098 642.003137254902,726.0 642.0,725.996862745098 641.003137254902,725.0 641.003137254902,724.0 641.0,723.996862745098 640.003137254902,723.0 640.0,722.996862745098 639.003137254902,722.0 639.0,721.996862745098 638.003137254902,721.0 638.0,720.996862745098 637.003137254902,720.0 637.0,719.996862745098 636.003137254902,719.0 636.003137254902,718.0 636.0,717.996862745098 635.003137254902,717.0 635.0,716.996862745098 634.003137254902,716.0 634.0,715.996862745098 633.003137254902,715.0 633.0,714.996862745098 632.003137254902,714.0 632.003137254902,713.0 632.0,712.996862745098 631.003137254902,712.0 631.0,711.996862745098 630.003137254902,711.0 630.0,710.996862745098 629.003137254902,710.0 629.0,709.996862745098 628.003137254902,709.0 628.0,708.996862745098 627.003137254902,708.0 627.003137254902,707.0 627.0,706.996862745098 626.003137254902,706.0 626.0,705.996862745098 625.003137254902,705.0 625.0,704.996862745098 624.003137254902,704.0 624.003137254902,703.0 624.0,702.996862745098 623.003137254902,702.0 623.0,701.996862745098 622.003137254902,701.0 622.0,700.996862745098 621.003137254902,700.0 621.0,699.996862745098 620.003137254902,699.0 620.0,698.996862745098 619.003137254902,698.0 619.003137254902,697.0 619.0,696.996862745098 618.003137254902,696.0 618.0,695.996862745098 617.003137254902,695.0 617.0,694.996862745098 616.003137254902,694.0 616.0,693.996862745098 615.003137254902,693.0 615.0,692.996862745098 614.003137254902,692.0 614.003137254902,691.0 614.0,690.996862745098 613.003137254902,690.0 613.0,689.996862745098 612.003137254902,689.0 612.0,688.996862745098 611.003137254902,688.0 611.0,687.996862745098 610.003137254902,687.0 610.003137254902,686.0 610.0,685.996862745098 609.003137254902,685.0 609.0,684.996862745098 608.003137254902,684.0 608.0,683.996862745098 607.003137254902,683.0 607.0,682.996862745098 606.003137254902,682.0 606.0,681.996862745098 605.003137254902,681.0 605.003137254902,680.0 605.0,679.996862745098 604.003137254902,679.0 604.0,678.996862745098 603.003137254902,678.0 603.0,677.996862745098 602.003137254902,677.0 602.0,676.996862745098 601.003137254902,676.0 601.0,675.996862745098 600.003137254902,675.0 600.003137254902,674.0 600.0,673.996862745098 599.003137254902,673.0 599.0,672.996862745098 598.003137254902,672.0 598.0,671.996862745098 597.003137254902,671.0 597.0,670.996862745098 596.003137254902,670.0 596.003137254902,669.0 596.0,668.996862745098 595.003137254902,668.0 595.0,667.996862745098 594.003137254902,667.0 594.0,666.996862745098 593.003137254902,666.0 593.0,665.996862745098 592.003137254902,665.0 592.0,664.996862745098 591.003137254902,664.0 591.003137254902,663.0 591.0,662.996862745098 590.003137254902,662.0 590.0,661.996862745098 589.003137254902,661.0 589.0,660.996862745098 588.003137254902,660.0 588.0,659.996862745098 587.003137254902,659.0 587.003137254902,658.0 587.0,657.996862745098 586.003137254902,657.0 586.0,656.996862745098 585.003137254902,656.0 585.0,655.996862745098 584.003137254902,655.0 584.0,654.996862745098 583.003137254902,654.0 583.0,653.996862745098 582.003137254902,653.0 582.003137254902,652.0 582.0,651.996862745098 581.003137254902,651.0 581.0,650.996862745098 580.003137254902,650.0 580.0,649.996862745098 579.003137254902,649.0 579.0,648.996862745098 578.003137254902,648.0 578.003137254902,647.0 578.0,646.996862745098 577.003137254902,646.0 577.0,645.996862745098 576.003137254902,645.0 576.0,644.996862745098 575.003137254902,644.0 575.0,643.996862745098 574.003137254902,643.0 574.0,642.996862745098 573.003137254902,642.0 573.003137254902,641.0 573.0,640.996862745098 572.003137254902,640.0 572.0,639.996862745098 571.003137254902,639.0 571.0,638.996862745098 570.003137254902,638.0 570.0,637.996862745098 569.003137254902,637.0 569.003137254902,636.0 569.0,635.996862745098 568.003137254902,635.0 568.0,634.996862745098 567.003137254902,634.0 567.0,633.996862745098 566.003137254902,633.0 566.0,632.996862745098 565.003137254902,632.0 565.0,631.996862745098 564.003137254902,631.0 564.003137254902,630.0 564.0,629.996862745098 563.003137254902,629.0 563.0,628.996862745098 562.003137254902,628.0 562.0,627.996862745098 561.003137254902,627.0 561.0,626.996862745098 560.003137254902,626.0 560.003137254902,625.0 560.0,624.996862745098 559.003137254902,624.0 559.0,623.996862745098 558.003137254902,623.0 558.0,622.996862745098 557.003137254902,622.0 557.0,621.996862745098 556.003137254902,621.0 556.0,620.996862745098 555.003137254902,620.0 555.003137254902,619.0 555.0,618.996862745098 554.003137254902,618.0 554.0,617.996862745098 553.003137254902,617.0 553.0,616.996862745098 552.003137254902,616.0 552.0,615.996862745098 551.003137254902,615.0 551.0,614.996862745098 550.003137254902,614.0 550.003137254902,613.0 550.0,612.996862745098 549.003137254902,612.0 549.0,611.996862745098 548.003137254902,611.0 548.0,610.996862745098 547.003137254902,610.0 547.0,609.996862745098 546.003137254902,609.0 546.0,608.996862745098 545.003137254902,608.0 545.003137254902,607.0 545.0,606.996862745098 544.003137254902,606.0 544.0,605.996862745098 543.003137254902,605.0 543.0,604.996862745098 542.003137254902,604.0 542.0,603.996862745098 541.003137254902,603.0 541.003137254902,602.0 541.0,601.996862745098 540.003137254902,601.0 540.0,600.996862745098 539.003137254902,600.0 539.0,599.996862745098 538.003137254902,599.0 538.0,598.996862745098 537.003137254902,598.0 537.003137254902,597.0 537.0,596.996862745098 536.003137254902,596.0 536.0,595.996862745098 535.003137254902,595.0 535.0,594.996862745098 534.003137254902,594.0 534.0,593.996862745098 533.003137254902,593.0 533.0,592.996862745098 532.003137254902,592.0 532.003137254902,591.0 532.0,590.996862745098 531.003137254902,590.0 531.0,589.996862745098 530.003137254902,589.0 530.0,588.996862745098 529.003137254902,588.0 529.0,587.996862745098 528.003137254902,587.0 528.003137254902,586.0 528.0,585.996862745098 527.003137254902,585.0 527.0,584.996862745098 526.003137254902,584.0 526.0,583.996862745098 525.003137254902,583.0 525.0,582.996862745098 524.003137254902,582.0 524.0,581.996862745098 523.003137254902,581.0 523.003137254902,580.0 523.0,579.996862745098 522.003137254902,579.0 522.0,578.996862745098 521.003137254902,578.0 521.0,577.996862745098 520.003137254902,577.0 520.0,576.996862745098 519.003137254902,576.0 519.0,575.996862745098 518.003137254902,575.0 518.003137254902,574.0 518.0,573.996862745098 517.003137254902,573.0 517.0,572.996862745098 516.003137254902,572.0 516.0,571.996862745098 515.003137254902,571.0 515.0,570.996862745098 514.003137254902,570.0 514.0,569.996862745098 513.003137254902,569.0 513.003137254902,568.0 513.0,567.996862745098 512.003137254902,567.0 512.0,566.996862745098 511.00313725490196,566.0 511.0,565.996862745098 510.00313725490196,565.0 510.0,564.996862745098 509.00313725490196,564.0 509.00313725490196,563.0 509.0,562.996862745098 508.00313725490196,562.0 508.0,561.996862745098 507.00313725490196,561.0 507.0,560.996862745098 506.00313725490196,560.0 506.0,559.996862745098 505.00313725490196,559.0 505.0,558.996862745098 504.00313725490196,558.0 504.00313725490196,557.0 504.0,556.996862745098 503.00313725490196,556.0 503.0,555.996862745098 502.00313725490196,555.0 502.0,554.996862745098 501.00313725490196,554.0 501.0,553.996862745098 500.00313725490196,553.0 500.0,552.996862745098 499.00313725490196,552.0 499.00313725490196,551.0 499.0,550.996862745098 498.00313725490196,550.0 498.0,549.996862745098 497.00313725490196,549.0 497.0,548.996862745098 496.00313725490196,548.0 496.0,547.996862745098 495.00313725490196,547.0 495.00313725490196,546.0 495.0,545.996862745098 494.00313725490196,545.0 494.0,544.996862745098 493.00313725490196,544.0 493.0,543.996862745098 492.00313725490196,543.0 492.0,542.996862745098 491.00313725490196,542.0 491.00313725490196,541.0 491.0,540.996862745098 490.00313725490196,540.0 490.0,539.996862745098 489.00313725490196,539.0 489.0,538.996862745098 488.00313725490196,538.0 488.0,537.996862745098 487.00313725490196,537.0 487.0,536.996862745098 486.00313725490196,536.0 486.00313725490196,535.0 486.0,534.996862745098 485.00313725490196,534.0 485.0,533.996862745098 484.00313725490196,533.0 484.0,532.996862745098 483.00313725490196,532.0 483.0,531.996862745098 482.00313725490196,531.0 482.0,530.996862745098 481.00313725490196,530.0 481.00313725490196,529.0 481.0,528.996862745098 480.00313725490196,528.0 480.0,527.996862745098 479.00313725490196,527.0 479.0,526.996862745098 478.00313725490196,526.0 478.0,525.996862745098 477.00313725490196,525.0 477.00313725490196,524.0 477.0,523.996862745098 476.00313725490196,523.0 476.0,522.996862745098 475.00313725490196,522.0 475.0,521.996862745098 474.00313725490196,521.0 474.0,520.996862745098 473.00313725490196,520.0 473.0,519.996862745098 472.00313725490196,519.0 472.00313725490196,518.0 472.0,517.996862745098 471.00313725490196,517.0 471.0,516.996862745098 470.00313725490196,516.0 470.0,515.996862745098 469.00313725490196,515.0 469.0,514.996862745098 468.00313725490196,514.0 468.0,513.996862745098 467.00313725490196,513.0 467.00313725490196,512.0 467.0,511.99686274509804 466.00313725490196,511.0 466.0,510.99686274509804 465.00313725490196,510.0 465.0,509.99686274509804 464.00313725490196,509.0 464.0,508.99686274509804 463.00313725490196,508.0 463.00313725490196,507.0 463.0,506.99686274509804 462.00313725490196,506.0 462.0,505.99686274509804 461.00313725490196,505.0 461.0,504.99686274509804 460.00313725490196,504.0 460.0,503.99686274509804 459.00313725490196,503.0 459.0,502.99686274509804 458.00313725490196,502.0 458.00313725490196,501.0 458.0,500.99686274509804 457.00313725490196,500.0 457.0,499.99686274509804 456.00313725490196,499.0 456.0,498.99686274509804 455.00313725490196,498.0 455.0,497.99686274509804 454.00313725490196,497.0 454.00313725490196,496.0 454.0,495.99686274509804 453.00313725490196,495.0 453.0,494.99686274509804 452.00313725490196,494.0 452.0,493.99686274509804 451.00313725490196,493.0 451.0,492.99686274509804 450.00313725490196,492.0 450.0,491.99686274509804 449.00313725490196,491.0 449.00313725490196,490.0 449.0,489.99686274509804 448.00313725490196,489.0 448.0,488.99686274509804 447.00313725490196,488.0 447.0,487.99686274509804 446.00313725490196,487.0 446.0,486.99686274509804 445.00313725490196,486.0 445.00313725490196,485.0 445.0,484.99686274509804 444.00313725490196,484.0 444.0,483.99686274509804 443.00313725490196,483.0 443.0,482.99686274509804 442.00313725490196,482.0 442.0,481.99686274509804 441.00313725490196,481.0 441.0,480.99686274509804 440.00313725490196,480.0 440.00313725490196,479.0 440.0,478.99686274509804 439.00313725490196,478.0 439.0,477.99686274509804 438.00313725490196,477.0 438.0,476.99686274509804 437.00313725490196,476.0 437.0,475.99686274509804 436.00313725490196,475.0 436.00313725490196,474.0 436.0,473.99686274509804 435.00313725490196,473.0 435.0,472.99686274509804 434.00313725490196,472.0 434.0,471.99686274509804 433.00313725490196,471.0 433.0,470.99686274509804 432.00313725490196,470.0 432.0,469.99686274509804 431.00313725490196,469.0 431.00313725490196,468.0 431.0,467.99686274509804 430.00313725490196,467.0 430.0,466.99686274509804 429.00313725490196,466.0 429.0,465.99686274509804 428.00313725490196,465.0 428.0,464.99686274509804 427.00313725490196,464.0 427.00313725490196,463.0 427.0,462.99686274509804 426.00313725490196,462.0 426.0,461.99686274509804 425.00313725490196,461.0 425.0,460.99686274509804 424.00313725490196,460.0 424.0,459.99686274509804 423.00313725490196,459.0 423.00313725490196,458.0 424.0,457.00313725490196 424.99686274509804,458.0 425.0,458.00313725490196 426.0,458.00313725490196 427.0,458.00313725490196 428.0,458.00313725490196 429.0,458.00313725490196 430.0,458.00313725490196 431.0,458.00313725490196 432.0,458.00313725490196 433.0,458.00313725490196 434.0,458.00313725490196 435.0,458.00313725490196 436.0,458.00313725490196 437.0,458.00313725490196 438.0,458.00313725490196 439.0,458.00313725490196 440.0,458.00313725490196 441.0,458.00313725490196 442.0,458.00313725490196 443.0,458.00313725490196 444.0,458.00313725490196 445.0,458.00313725490196 446.0,458.00313725490196 447.0,458.00313725490196 448.0,458.00313725490196 448.00313725490196,458.0 449.0,457.00313725490196 449.99686274509804,458.0 450.0,458.00313725490196 451.0,458.00313725490196 452.0,458.00313725490196 453.0,458.00313725490196 454.0,458.00313725490196 455.0,458.00313725490196 456.0,458.00313725490196 457.0,458.00313725490196 458.0,458.00313725490196 459.0,458.00313725490196 460.0,458.00313725490196 461.0,458.00313725490196 462.0,458.00313725490196 463.0,458.00313725490196 464.0,458.00313725490196 465.0,458.00313725490196 466.0,458.00313725490196 467.0,458.00313725490196 467.00313725490196,458.0 468.0,457.00313725490196 468.99686274509804,458.0 469.0,458.00313725490196 470.0,458.00313725490196 471.0,458.00313725490196 472.0,458.00313725490196 473.0,458.00313725490196 474.0,458.00313725490196 475.0,458.00313725490196 476.0,458.00313725490196 477.0,458.00313725490196 478.0,458.00313725490196 479.0,458.00313725490196 480.0,458.00313725490196 481.0,458.00313725490196 482.0,458.00313725490196 483.0,458.00313725490196 484.0,458.00313725490196 485.0,458.00313725490196 486.0,458.00313725490196 487.0,458.00313725490196 488.0,458.00313725490196 489.0,458.00313725490196 490.0,458.00313725490196 491.0,458.00313725490196 492.0,458.00313725490196 493.0,458.00313725490196 494.0,458.00313725490196 495.0,458.00313725490196 496.0,458.00313725490196 497.0,458.00313725490196 498.0,458.00313725490196 499.0,458.00313725490196 500.0,458.00313725490196 501.0,458.00313725490196 502.0,458.00313725490196 503.0,458.00313725490196 504.0,458.00313725490196 505.0,458.00313725490196 506.0,458.00313725490196 507.0,458.00313725490196 508.0,458.00313725490196 509.0,458.00313725490196 510.0,458.00313725490196 511.0,458.00313725490196 512.0,458.00313725490196 513.0,458.00313725490196 514.0,458.00313725490196 515.0,458.00313725490196 516.0,458.00313725490196 517.0,458.00313725490196 518.0,458.00313725490196 519.0,458.00313725490196 520.0,458.00313725490196 521.0,458.00313725490196 522.0,458.00313725490196 523.0,458.00313725490196 524.0,458.00313725490196 525.0,458.00313725490196 526.0,458.00313725490196 527.0,458.00313725490196 528.0,458.00313725490196 529.0,458.00313725490196 530.0,458.00313725490196 531.0,458.00313725490196 532.0,458.00313725490196 533.0,458.00313725490196 534.0,458.00313725490196 535.0,458.00313725490196 536.0,458.00313725490196 537.0,458.00313725490196 538.0,458.00313725490196 539.0,458.00313725490196 540.0,458.00313725490196 541.0,458.00313725490196 542.0,458.00313725490196 543.0,458.00313725490196 544.0,458.00313725490196 545.0,458.00313725490196 546.0,458.00313725490196 547.0,458.00313725490196 548.0,458.00313725490196 549.0,458.00313725490196 550.0,458.00313725490196 551.0,458.00313725490196 552.0,458.00313725490196 553.0,458.00313725490196 554.0,458.00313725490196 555.0,458.00313725490196 556.0,458.00313725490196 557.0,458.00313725490196 558.0,458.00313725490196 559.0,458.00313725490196 560.0,458.00313725490196 561.0,458.00313725490196 562.0,458.00313725490196 563.0,458.00313725490196 563.003137254902,458.0 564.0,457.00313725490196 564.003137254902,457.0 565.0,456.00313725490196 565.003137254902,456.0 566.0,455.00313725490196 566.003137254902,455.0 567.0,454.00313725490196 567.003137254902,454.0 568.0,453.00313725490196 568.003137254902,453.0 569.0,452.00313725490196 569.003137254902,452.0 570.0,451.00313725490196 570.003137254902,451.0 571.0,450.00313725490196 571.003137254902,450.0 572.0,449.00313725490196 572.003137254902,449.0 573.0,448.00313725490196 573.003137254902,448.0 574.0,447.00313725490196 574.003137254902,447.0 575.0,446.00313725490196 575.003137254902,446.0 576.0,445.00313725490196 576.003137254902,445.0 577.0,444.00313725490196 577.003137254902,444.0 578.0,443.00313725490196 578.003137254902,443.0 579.0,442.00313725490196 579.003137254902,442.0 580.0,441.00313725490196 580.003137254902,441.0 581.0,440.00313725490196 581.003137254902,440.0 582.0,439.00313725490196 582.003137254902,439.0 583.0,438.00313725490196 583.003137254902,438.0 584.0,437.00313725490196 584.003137254902,437.0 585.0,436.00313725490196 585.003137254902,436.0 586.0,435.00313725490196 586.003137254902,435.0 587.0,434.00313725490196 587.003137254902,434.0 588.0,433.00313725490196 588.003137254902,433.0 589.0,432.00313725490196 589.003137254902,432.0 590.0,431.00313725490196 590.003137254902,431.0 591.0,430.00313725490196 591.003137254902,430.0 592.0,429.00313725490196 592.003137254902,429.0 593.0,428.00313725490196 593.003137254902,428.0 594.0,427.00313725490196 594.003137254902,427.0 595.0,426.00313725490196 595.003137254902,426.0 596.0,425.00313725490196 596.003137254902,425.0 597.0,424.00313725490196 597.003137254902,424.0 598.0,423.00313725490196 598.003137254902,423.0 599.0,422.00313725490196 599.003137254902,422.0 600.0,421.00313725490196 600.003137254902,421.0 601.0,420.00313725490196 601.003137254902,420.0 602.0,419.00313725490196 602.003137254902,419.0 603.0,418.00313725490196 603.003137254902,418.0 604.0,417.00313725490196 604.003137254902,417.0 605.0,416.00313725490196 605.003137254902,416.0 606.0,415.00313725490196 606.003137254902,415.0 607.0,414.00313725490196 607.003137254902,414.0 608.0,413.00313725490196 608.003137254902,413.0 609.0,412.00313725490196 609.003137254902,412.0 610.0,411.00313725490196 610.003137254902,411.0 611.0,410.00313725490196 611.003137254902,410.0 612.0,409.00313725490196 612.003137254902,409.0 613.0,408.00313725490196 613.003137254902,408.0 614.0,407.00313725490196 614.003137254902,407.0 615.0,406.00313725490196 615.003137254902,406.0 616.0,405.00313725490196 616.003137254902,405.0 617.0,404.00313725490196 617.003137254902,404.0 618.0,403.00313725490196 619.0,403.00313725490196 619.003137254902,403.0 619.003137254902,402.0 619.0,401.99686274509804 618.003137254902,401.0 618.0,400.99686274509804 617.003137254902,400.0 617.0,399.99686274509804 616.003137254902,399.0 616.0,398.99686274509804 615.003137254902,398.0 615.0,397.99686274509804 614.003137254902,397.0 614.0,396.99686274509804 613.003137254902,396.0 613.0,395.99686274509804 612.003137254902,395.0 612.0,394.99686274509804 611.003137254902,394.0 611.0,393.99686274509804 610.003137254902,393.0 610.0,392.99686274509804 609.003137254902,392.0 609.0,391.99686274509804 608.003137254902,391.0 608.0,390.99686274509804 607.003137254902,390.0 607.0,389.99686274509804 606.003137254902,389.0 606.0,388.99686274509804 605.003137254902,388.0 605.0,387.99686274509804 604.003137254902,387.0 604.0,386.99686274509804 603.003137254902,386.0 603.0,385.99686274509804 602.003137254902,385.0 602.0,384.99686274509804 601.003137254902,384.0 601.0,383.99686274509804 600.003137254902,383.0 600.0,382.99686274509804 599.003137254902,382.0 599.0,381.99686274509804 598.003137254902,381.0 598.0,380.99686274509804 597.003137254902,380.0 597.0,379.99686274509804 596.003137254902,379.0 596.0,378.99686274509804 595.003137254902,378.0 595.0,377.99686274509804 594.003137254902,377.0 594.0,376.99686274509804 593.003137254902,376.0 593.0,375.99686274509804 592.003137254902,375.0 592.0,374.99686274509804 591.003137254902,374.0 591.0,373.99686274509804 590.0,373.99686274509804 589.003137254902,373.0 589.0,372.99686274509804 588.003137254902,372.0 588.003137254902,371.0 588.0,370.99686274509804 587.003137254902,370.0 587.0,369.99686274509804 586.003137254902,369.0 586.0,368.99686274509804 585.003137254902,368.0 585.0,367.99686274509804 584.003137254902,367.0 584.0,366.99686274509804 583.003137254902,366.0 583.0,365.99686274509804 582.003137254902,365.0 582.0,364.99686274509804 581.003137254902,364.0 581.0,363.99686274509804 580.003137254902,363.0 580.0,362.99686274509804 579.003137254902,362.0 579.0,361.99686274509804 578.003137254902,361.0 578.0,360.99686274509804 577.003137254902,360.0 577.0,359.99686274509804 576.003137254902,359.0 576.0,358.99686274509804 575.003137254902,358.0 575.0,357.99686274509804 574.003137254902,357.0 574.0,356.99686274509804 573.003137254902,356.0 573.0,355.99686274509804 572.003137254902,355.0 572.0,354.99686274509804 571.003137254902,354.0 571.0,353.99686274509804 570.003137254902,353.0 570.0,352.99686274509804 569.003137254902,352.0 569.0,351.99686274509804 568.003137254902,351.0 568.0,350.99686274509804 567.003137254902,350.0 567.0,349.99686274509804 566.003137254902,349.0 566.0,348.99686274509804 565.003137254902,348.0 565.0,347.99686274509804 564.003137254902,347.0 564.0,346.99686274509804 563.003137254902,346.0 563.0,345.99686274509804 562.0,345.99686274509804 561.003137254902,345.0 561.0,344.99686274509804 560.003137254902,344.0 560.003137254902,343.0 560.0,342.99686274509804 559.003137254902,342.0 559.0,341.99686274509804 558.003137254902,341.0 558.0,340.99686274509804 557.003137254902,340.0 557.0,339.99686274509804 556.003137254902,339.0 556.0,338.99686274509804 555.003137254902,338.0 555.0,337.99686274509804 554.003137254902,337.0 554.0,336.99686274509804 553.003137254902,336.0 553.0,335.99686274509804 552.0,335.99686274509804 551.0,335.99686274509804 550.0,335.99686274509804 549.0,335.99686274509804 548.0,335.99686274509804 547.0,335.99686274509804 546.0,335.99686274509804 545.0,335.99686274509804 544.0,335.99686274509804 543.0,335.99686274509804 542.0,335.99686274509804 541.0,335.99686274509804 540.0,335.99686274509804 539.0,335.99686274509804 538.0,335.99686274509804 537.0,335.99686274509804 536.0,335.99686274509804 535.0,335.99686274509804 534.0,335.99686274509804 533.0,335.99686274509804 532.0,335.99686274509804 531.0,335.99686274509804 530.0,335.99686274509804 529.0,335.99686274509804 528.0,335.99686274509804 527.0,335.99686274509804 526.0,335.99686274509804 525.0,335.99686274509804 524.0,335.99686274509804 523.0,335.99686274509804 522.0,335.99686274509804 521.0,335.99686274509804 520.0,335.99686274509804 519.0,335.99686274509804 518.0,335.99686274509804 517.0,335.99686274509804 516.0,335.99686274509804 515.0,335.99686274509804 514.0,335.99686274509804 513.0,335.99686274509804 512.0,335.99686274509804 511.0,335.99686274509804 510.0,335.99686274509804 509.0,335.99686274509804 508.0,335.99686274509804 507.0,335.99686274509804 506.0,335.99686274509804 505.0,335.99686274509804 504.0,335.99686274509804 503.0,335.99686274509804 502.0,335.99686274509804 501.0,335.99686274509804 500.0,335.99686274509804 499.0,335.99686274509804 498.0,335.99686274509804 497.0,335.99686274509804 496.0,335.99686274509804 495.0,335.99686274509804 494.0,335.99686274509804 493.0,335.99686274509804 492.0,335.99686274509804 491.0,335.99686274509804 490.0,335.99686274509804 489.0,335.99686274509804 488.0,335.99686274509804 487.0,335.99686274509804 486.0,335.99686274509804 485.0,335.99686274509804 484.0,335.99686274509804 483.0,335.99686274509804 482.0,335.99686274509804 481.0,335.99686274509804 480.0,335.99686274509804 479.0,335.99686274509804 478.0,335.99686274509804 477.0,335.99686274509804 476.0,335.99686274509804 475.0,335.99686274509804 474.0,335.99686274509804 473.0,335.99686274509804 472.0,335.99686274509804 471.0,335.99686274509804 470.0,335.99686274509804 469.0,335.99686274509804 468.0,335.99686274509804 467.0,335.99686274509804 466.0,335.99686274509804 465.0,335.99686274509804 464.0,335.99686274509804 463.0,335.99686274509804 462.0,335.99686274509804 461.0,335.99686274509804 460.0,335.99686274509804 459.0,335.99686274509804 458.0,335.99686274509804 457.0,335.99686274509804 456.0,335.99686274509804 455.0,335.99686274509804 454.0,335.99686274509804 453.0,335.99686274509804 452.0,335.99686274509804 451.0,335.99686274509804 450.0,335.99686274509804 449.0,335.99686274509804 448.0,335.99686274509804 447.0,335.99686274509804 446.0,335.99686274509804 445.0,335.99686274509804 444.0,335.99686274509804 443.0,335.99686274509804 442.0,335.99686274509804 441.0,335.99686274509804 440.0,335.99686274509804 439.0,335.99686274509804 438.0,335.99686274509804 437.0,335.99686274509804 436.0,335.99686274509804 435.0,335.99686274509804 434.0,335.99686274509804 433.0,335.99686274509804 432.0,335.99686274509804 431.0,335.99686274509804 430.0,335.99686274509804 429.0,335.99686274509804 428.0,335.99686274509804 427.0,335.99686274509804 426.0,335.99686274509804 425.0,335.99686274509804 424.0,335.99686274509804 423.0,335.99686274509804 422.0,335.99686274509804 421.0,335.99686274509804 420.0,335.99686274509804 419.0,335.99686274509804 418.0,335.99686274509804 417.0,335.99686274509804 416.0,335.99686274509804 415.0,335.99686274509804 414.0,335.99686274509804 413.0,335.99686274509804 412.0,335.99686274509804 411.0,335.99686274509804 410.0,335.99686274509804 409.0,335.99686274509804 408.0,335.99686274509804 407.0,335.99686274509804 406.0,335.99686274509804 405.0,335.99686274509804 404.0,335.99686274509804 403.0,335.99686274509804 402.0,335.99686274509804 401.0,335.99686274509804 400.0,335.99686274509804 399.0,335.99686274509804 398.0,335.99686274509804 397.0,335.99686274509804 396.0,335.99686274509804 395.0,335.99686274509804 394.0,335.99686274509804 393.0,335.99686274509804 392.0,335.99686274509804 391.0,335.99686274509804 390.0,335.99686274509804 389.0,335.99686274509804 388.0,335.99686274509804 387.0,335.99686274509804 386.0,335.99686274509804 385.0,335.99686274509804 384.0,335.99686274509804 383.0,335.99686274509804 382.0,335.99686274509804 381.0,335.99686274509804 380.0,335.99686274509804 379.0,335.99686274509804 378.0,335.99686274509804 377.0,335.99686274509804 376.0,335.99686274509804 375.0,335.99686274509804 374.0,335.99686274509804 373.0,335.99686274509804 372.0,335.99686274509804 371.0,335.99686274509804 370.0,335.99686274509804 369.0,335.99686274509804 368.0,335.99686274509804 367.0,335.99686274509804 366.99686274509804,336.0 366.99686274509804,337.0 366.99686274509804,338.0 366.99686274509804,339.0 366.99686274509804,340.0 366.99686274509804,341.0 366.99686274509804,342.0 366.99686274509804,343.0 366.99686274509804,344.0 366.99686274509804,345.0 366.99686274509804,346.0 366.99686274509804,347.0 366.99686274509804,348.0 366.99686274509804,349.0 366.99686274509804,350.0 366.99686274509804,351.0 366.99686274509804,352.0 366.99686274509804,353.0 366.99686274509804,354.0 366.99686274509804,355.0 366.99686274509804,356.0 366.99686274509804,357.0 366.99686274509804,358.0 366.99686274509804,359.0 366.99686274509804,360.0 366.99686274509804,361.0 366.99686274509804,362.0 366.99686274509804,363.0 366.99686274509804,364.0 366.99686274509804,365.0 366.99686274509804,366.0 366.99686274509804,367.0 366.99686274509804,368.0 366.99686274509804,369.0 366.99686274509804,370.0 366.99686274509804,371.0 366.99686274509804,372.0 366.99686274509804,373.0 366.99686274509804,374.0 366.99686274509804,375.0 366.99686274509804,376.0 366.99686274509804,377.0 366.99686274509804,378.0 366.99686274509804,379.0 366.99686274509804,380.0 366.99686274509804,381.0 366.99686274509804,382.0 366.99686274509804,383.0 366.99686274509804,384.0 366.99686274509804,385.0 366.99686274509804,386.0 366.99686274509804,387.0 366.99686274509804,388.0 366.99686274509804,389.0 366.99686274509804,390.0 366.99686274509804,391.0 366.99686274509804,392.0 366.99686274509804,393.0 366.99686274509804,394.0 366.99686274509804,395.0 366.99686274509804,396.0 366.99686274509804,397.0 366.99686274509804,398.0 366.99686274509804,399.0 366.99686274509804,400.0 366.99686274509804,401.0 366.99686274509804,402.0 366.99686274509804,403.0 366.99686274509804,404.0 366.99686274509804,405.0 366.99686274509804,406.0 366.99686274509804,407.0 366.99686274509804,408.0 366.99686274509804,409.0 366.99686274509804,410.0 366.99686274509804,411.0 366.99686274509804,412.0 366.99686274509804,413.0 366.99686274509804,414.0 366.99686274509804,415.0 366.99686274509804,416.0 366.99686274509804,417.0 366.99686274509804,418.0 366.99686274509804,419.0 366.99686274509804,420.0 366.99686274509804,421.0 366.99686274509804,422.0 366.99686274509804,423.0 366.99686274509804,424.0 366.99686274509804,425.0 366.99686274509804,426.0 366.99686274509804,427.0 366.99686274509804,428.0 366.99686274509804,429.0 366.99686274509804,430.0 366.99686274509804,431.0 366.99686274509804,432.0 366.99686274509804,433.0 366.99686274509804,434.0 366.99686274509804,435.0 366.99686274509804,436.0 366.99686274509804,437.0 366.99686274509804,438.0 366.99686274509804,439.0 366.99686274509804,440.0 366.99686274509804,441.0 366.99686274509804,442.0 366.99686274509804,443.0 366.99686274509804,444.0 366.99686274509804,445.0 366.99686274509804,446.0 366.99686274509804,447.0 366.99686274509804,448.0 366.99686274509804,449.0 366.99686274509804,450.0 366.99686274509804,451.0 366.99686274509804,452.0 366.99686274509804,453.0 366.99686274509804,454.0 366.99686274509804,455.0 366.99686274509804,456.0 366.99686274509804,457.0 366.99686274509804,458.0 366.99686274509804,459.0 366.99686274509804,460.0 366.99686274509804,461.0 366.99686274509804,462.0 366.99686274509804,463.0 366.99686274509804,464.0 366.99686274509804,465.0 366.99686274509804,466.0 366.99686274509804,467.0 366.99686274509804,468.0 366.99686274509804,469.0 366.99686274509804,470.0 366.99686274509804,471.0 366.99686274509804,472.0 366.99686274509804,473.0 366.99686274509804,474.0 366.99686274509804,475.0 366.99686274509804,476.0 366.99686274509804,477.0 366.99686274509804,478.0 366.99686274509804,479.0 366.99686274509804,480.0 366.99686274509804,481.0 366.99686274509804,482.0 366.99686274509804,483.0 366.99686274509804,484.0 366.99686274509804,485.0 366.99686274509804,486.0 366.99686274509804,487.0 366.99686274509804,488.0 366.99686274509804,489.0 366.99686274509804,490.0 366.99686274509804,491.0 366.99686274509804,492.0 366.99686274509804,493.0 366.99686274509804,494.0 366.99686274509804,495.0 366.99686274509804,496.0 366.99686274509804,497.0 366.99686274509804,498.0 366.99686274509804,499.0 366.99686274509804,500.0 366.99686274509804,501.0 366.99686274509804,502.0 366.99686274509804,503.0 366.99686274509804,504.0 366.99686274509804,505.0 366.99686274509804,506.0 366.99686274509804,507.0 366.99686274509804,508.0 366.99686274509804,509.0 366.99686274509804,510.0 366.99686274509804,511.0 366.99686274509804,512.0 366.99686274509804,513.0 366.99686274509804,514.0 366.99686274509804,515.0 366.99686274509804,516.0 366.99686274509804,517.0 366.99686274509804,518.0 366.99686274509804,519.0 366.99686274509804,520.0 366.99686274509804,521.0 366.99686274509804,522.0 366.99686274509804,523.0 366.99686274509804,524.0 366.99686274509804,525.0 366.99686274509804,526.0 366.99686274509804,527.0 366.99686274509804,528.0 366.99686274509804,529.0 366.99686274509804,530.0 366.99686274509804,531.0 366.99686274509804,532.0 366.99686274509804,533.0 366.99686274509804,534.0 366.99686274509804,535.0 366.99686274509804,536.0 366.99686274509804,537.0 366.99686274509804,538.0 366.99686274509804,539.0 366.99686274509804,540.0 366.99686274509804,541.0 366.99686274509804,542.0 366.99686274509804,543.0 366.99686274509804,544.0 366.99686274509804,545.0 366.99686274509804,546.0 366.99686274509804,547.0 366.99686274509804,548.0 366.99686274509804,549.0 366.99686274509804,550.0 366.99686274509804,551.0 366.99686274509804,552.0 366.99686274509804,553.0 366.99686274509804,554.0 366.99686274509804,555.0 366.99686274509804,556.0 366.99686274509804,557.0 366.99686274509804,558.0 366.99686274509804,559.0 366.99686274509804,560.0 366.99686274509804,561.0 366.99686274509804,562.0 366.99686274509804,563.0 366.99686274509804,564.0 366.99686274509804,565.0 366.99686274509804,566.0 366.99686274509804,567.0 366.99686274509804,568.0 366.99686274509804,569.0 366.99686274509804,570.0 366.99686274509804,571.0 366.99686274509804,572.0 366.99686274509804,573.0 366.99686274509804,574.0 366.99686274509804,575.0 366.99686274509804,576.0 366.99686274509804,577.0 366.99686274509804,578.0 366.99686274509804,579.0 366.99686274509804,580.0 366.99686274509804,581.0 366.99686274509804,582.0 366.99686274509804,583.0 366.99686274509804,584.0 366.99686274509804,585.0 366.99686274509804,586.0 366.99686274509804,587.0 366.99686274509804,588.0 366.99686274509804,589.0 366.99686274509804,590.0 366.99686274509804,591.0 366.99686274509804,592.0 366.99686274509804,593.0 366.99686274509804,594.0 366.99686274509804,595.0 366.99686274509804,596.0 366.99686274509804,597.0 366.99686274509804,598.0 366.99686274509804,599.0 366.99686274509804,600.0 366.99686274509804,601.0 366.99686274509804,602.0 366.99686274509804,603.0 366.99686274509804,604.0 366.99686274509804,605.0 366.99686274509804,606.0 366.99686274509804,607.0 366.99686274509804,608.0 366.99686274509804,609.0 366.99686274509804,610.0 366.99686274509804,611.0 366.99686274509804,612.0 366.99686274509804,613.0 366.99686274509804,614.0 366.99686274509804,615.0 366.99686274509804,616.0 366.99686274509804,617.0 366.99686274509804,618.0 366.99686274509804,619.0 366.99686274509804,620.0 366.99686274509804,621.0 366.99686274509804,622.0 366.99686274509804,623.0 366.99686274509804,624.0 366.99686274509804,625.0 366.99686274509804,626.0 366.99686274509804,627.0 366.99686274509804,628.0 366.99686274509804,629.0 366.99686274509804,630.0 366.99686274509804,631.0 366.99686274509804,632.0 366.99686274509804,633.0 366.99686274509804,634.0 366.99686274509804,635.0 366.99686274509804,636.0 366.99686274509804,637.0 366.99686274509804,638.0 366.99686274509804,639.0 366.99686274509804,640.0 366.99686274509804,641.0 366.99686274509804,642.0 366.99686274509804,643.0 366.99686274509804,644.0 366.99686274509804,645.0 366.99686274509804,646.0 366.99686274509804,647.0 366.99686274509804,648.0 366.99686274509804,649.0 366.99686274509804,650.0 366.99686274509804,651.0 366.99686274509804,652.0 366.99686274509804,653.0 366.0,653.996862745098 365.99686274509804,654.0 365.99686274509804,655.0 365.0,655.996862745098 364.99686274509804,656.0 364.0,656.996862745098 363.0,656.996862745098 362.99686274509804,657.0 362.99686274509804,658.0 362.0,658.996862745098 361.99686274509804,659.0 361.0,659.996862745098 360.99686274509804,660.0 360.0,660.996862745098 359.99686274509804,661.0 359.0,661.996862745098 358.99686274509804,662.0 358.0,662.996862745098 357.99686274509804,663.0 357.0,663.996862745098 356.99686274509804,664.0 356.0,664.996862745098 355.99686274509804,665.0 355.0,665.996862745098 354.99686274509804,666.0 354.0,666.996862745098 353.99686274509804,667.0 353.0,667.996862745098 352.99686274509804,668.0 352.0,668.996862745098 351.99686274509804,669.0 351.0,669.996862745098 350.99686274509804,670.0 350.0,670.996862745098 349.0,670.996862745098 348.99686274509804,671.0 348.99686274509804,672.0 348.0,672.996862745098 347.99686274509804,673.0 347.0,673.996862745098 346.0,673.996862745098 345.99686274509804,674.0 345.99686274509804,675.0 345.0,675.996862745098 344.99686274509804,676.0 344.0,676.996862745098 343.99686274509804,677.0 343.0,677.996862745098 342.99686274509804,678.0 342.0,678.996862745098 341.99686274509804,679.0 341.0,679.996862745098 340.99686274509804,680.0 340.0,680.996862745098 339.0,680.996862745098 338.99686274509804,681.0 338.0,681.996862745098 337.99686274509804,682.0 337.99686274509804,683.0 337.0,683.996862745098 336.99686274509804,684.0 336.0,684.996862745098 335.0,684.996862745098 334.99686274509804,685.0 334.99686274509804,686.0 334.0,686.996862745098 333.99686274509804,687.0 333.0,687.996862745098 332.99686274509804,688.0 332.0,688.996862745098 331.99686274509804,689.0 331.0,689.996862745098 330.99686274509804,690.0 330.0,690.996862745098 329.99686274509804,691.0 329.0,691.996862745098 328.99686274509804,692.0 328.0,692.996862745098 327.99686274509804,693.0 327.0,693.996862745098 326.99686274509804,694.0 326.0,694.996862745098 325.99686274509804,695.0 325.0,695.996862745098 324.99686274509804,696.0 324.0,696.996862745098 323.0,696.996862745098 322.99686274509804,697.0 322.99686274509804,698.0 322.0,698.996862745098 321.0,698.996862745098 320.99686274509804,699.0 320.99686274509804,700.0 320.0,700.996862745098 319.0,700.996862745098 318.99686274509804,701.0 318.99686274509804,702.0 318.0,702.996862745098 317.0,702.996862745098 316.99686274509804,703.0 316.99686274509804,704.0 316.0,704.996862745098 315.0,704.996862745098 314.99686274509804,705.0 314.0,705.996862745098 313.99686274509804,706.0 313.0,706.996862745098 312.99686274509804,707.0 312.0,707.996862745098 311.99686274509804,708.0 311.0,708.996862745098 310.99686274509804,709.0 310.0,709.996862745098 309.99686274509804,710.0 309.0,710.996862745098 308.99686274509804,711.0 308.0,711.996862745098 307.99686274509804,712.0 307.0,712.996862745098 306.99686274509804,713.0 306.0,713.996862745098 305.99686274509804,714.0 305.0,714.996862745098 304.99686274509804,715.0 304.0,715.996862745098 303.99686274509804,716.0 303.0,716.996862745098 302.99686274509804,717.0 302.0,717.996862745098 301.99686274509804,718.0 301.0,718.996862745098 300.99686274509804,719.0 300.0,719.996862745098 299.99686274509804,720.0 299.0,720.996862745098 298.99686274509804,721.0 298.0,721.996862745098 297.99686274509804,722.0 297.0,722.996862745098 296.99686274509804,723.0 296.0,723.996862745098 295.99686274509804,724.0 295.0,724.996862745098 294.99686274509804,725.0 294.0,725.996862745098 293.99686274509804,726.0 293.0,726.996862745098 292.99686274509804,727.0 292.0,727.996862745098 291.99686274509804,728.0 291.0,728.996862745098 290.99686274509804,729.0 290.0,729.996862745098 289.99686274509804,730.0 289.0,730.996862745098 288.99686274509804,731.0 288.0,731.996862745098 287.99686274509804,732.0 287.0,732.996862745098 286.99686274509804,733.0 286.0,733.996862745098 285.99686274509804,734.0 285.0,734.996862745098 284.99686274509804,735.0 284.0,735.996862745098 283.99686274509804,736.0 283.0,736.996862745098 282.99686274509804,737.0 282.0,737.996862745098 281.99686274509804,738.0 281.0,738.996862745098 280.99686274509804,739.0 280.0,739.996862745098 279.99686274509804,740.0 279.0,740.996862745098 278.99686274509804,741.0 278.0,741.996862745098 277.99686274509804,742.0 277.0,742.996862745098 276.99686274509804,743.0 276.0,743.996862745098 275.99686274509804,744.0 275.0,744.996862745098 274.99686274509804,745.0 274.0,745.996862745098 273.99686274509804,746.0 273.99686274509804,747.0 273.0,747.996862745098 272.99686274509804,748.0 272.0,748.996862745098 271.99686274509804,749.0 271.0,749.996862745098 270.99686274509804,750.0 270.0,750.996862745098 269.0,750.996862745098 268.99686274509804,751.0 268.99686274509804,752.0 268.0,752.996862745098 267.99686274509804,753.0 267.0,753.996862745098 266.99686274509804,754.0 266.0,754.996862745098 265.0,754.996862745098 264.99686274509804,755.0 264.99686274509804,756.0 264.0,756.996862745098 263.99686274509804,757.0 263.0,757.996862745098 262.99686274509804,758.0 262.0,758.996862745098 261.99686274509804,759.0 261.0,759.996862745098 260.99686274509804,760.0 260.0,760.996862745098 259.99686274509804,761.0 259.0,761.996862745098 258.0,761.996862745098 257.99686274509804,762.0 257.99686274509804,763.0 257.0,763.996862745098 256.0,763.996862745098 255.99686274509804,764.0 255.0,764.996862745098 254.99686274509804,765.0 254.0,765.996862745098 253.99686274509804,766.0 253.99686274509804,767.0 253.0,767.996862745098 252.99686274509804,768.0 252.0,768.996862745098 251.0,768.996862745098 250.99686274509804,769.0 250.0,769.996862745098 249.99686274509804,770.0 249.99686274509804,771.0 249.0,771.996862745098" /><polygon fill="#2C79FF" points="611.0,409.99686274509804 610.003137254902,409.0 611.0,408.00313725490196 611.996862745098,409.0 611.0,409.99686274509804" /><polygon fill="#2C79FF" points="610.0,410.99686274509804 609.003137254902,410.0 610.0,409.00313725490196 610.996862745098,410.0 610.0,410.99686274509804" /></svg>