<svg width="24" height="24" viewBox="0 0 24 24" fill="none" xmlns="http://www.w3.org/2000/svg">
<g clip-path="url(#clip0_5845_1052)">
<g clip-path="url(#clip1_5845_1052)">
<path d="M13 2V4C17.39 4.54 20.5 8.53 19.96 12.92C19.5 16.56 16.64 19.43 13 19.88V21.88C18.5 21.28 22.45 16.34 21.85 10.85C21.33 6.19 17.66 2.5 13 2ZM11 2C9.03999 2.18 7.18999 2.95 5.66999 4.2L7.09999 5.74C8.21999 4.84 9.56999 4.26 11 4.06V2ZM4.25999 5.67C2.99999 7.19 2.23999 9.04 2.04999 11H4.04999C4.23999 9.58 4.79999 8.23 5.68999 7.1L4.25999 5.67ZM2.05999 13C2.25999 14.96 3.02999 16.81 4.26999 18.33L5.68999 16.9C4.80999 15.77 4.23999 14.42 4.05999 13H2.05999ZM7.05999 18.37L5.66999 19.74C7.17999 21 9.03999 21.79 11 22V20C9.57999 19.82 8.22999 19.25 7.09999 18.37H7.05999Z" fill="black"/>
</g>
</g>
<defs>
<clipPath id="clip0_5845_1052">
<rect width="24" height="24" fill="white"/>
</clipPath>
<clipPath id="clip1_5845_1052">
<rect width="24" height="24" fill="white"/>
</clipPath>
</defs>
</svg>
