<svg width="50" height="50" viewBox="0 0 50 50" fill="none" xmlns="http://www.w3.org/2000/svg">
<path d="M25 39.9998C19.7916 39.9998 15.1875 37.3332 12.5 33.3332C12.5625 29.1665 20.8333 26.8748 25 26.8748C29.1666 26.8748 37.4375 29.1665 37.5 33.3332C34.8125 37.3332 30.2083 39.9998 25 39.9998ZM25 10.4165C26.6576 10.4165 28.2473 11.075 29.4194 12.2471C30.5915 13.4192 31.25 15.0089 31.25 16.6665C31.25 18.3241 30.5915 19.9138 29.4194 21.0859C28.2473 22.258 26.6576 22.9165 25 22.9165C23.3424 22.9165 21.7526 22.258 20.5805 21.0859C19.4084 19.9138 18.75 18.3241 18.75 16.6665C18.75 15.0089 19.4084 13.4192 20.5805 12.2471C21.7526 11.075 23.3424 10.4165 25 10.4165ZM25 4.1665C22.2641 4.1665 19.555 4.70537 17.0274 5.75235C14.4998 6.79932 12.2031 8.33389 10.2686 10.2684C6.36156 14.1755 4.16663 19.4745 4.16663 24.9998C4.16663 30.5252 6.36156 35.8242 10.2686 39.7312C12.2031 41.6658 14.4998 43.2004 17.0274 44.2473C19.555 45.2943 22.2641 45.8332 25 45.8332C30.5253 45.8332 35.8243 43.6382 39.7314 39.7312C43.6384 35.8242 45.8333 30.5252 45.8333 24.9998C45.8333 13.479 36.4583 4.1665 25 4.1665Z" fill="black"/>
</svg>
